<svg width="20" height="20" viewBox="0 0 20 20" xmlns="http://www.w3.org/2000/svg">
  <path d="M8.9998 0C7.0398 0.18 5.18981 0.95 3.6698 2.2L5.0998 3.74C6.2198 2.84 7.5698 2.26 8.9998 2.06V0ZM2.2598 3.67C0.999805 5.19 0.239805 7.04 0.0498047 9H2.0498C2.2398 7.58 2.7998 6.23 3.6898 5.1L2.2598 3.67ZM0.0598047 11C0.259805 12.96 1.0298 14.81 2.2698 16.33L3.6898 14.9C2.8098 13.77 2.2398 12.42 2.0598 11H0.0598047ZM5.0598 16.37L3.6698 17.74C5.1798 19 7.0398 19.79 8.9998 20V18C7.5798 17.82 6.2298 17.25 5.0998 16.37H5.0598Z"/>
  <path d="M11 0C12.96 0.18 14.81 0.95 16.33 2.2L14.9 3.74C13.78 2.84 12.43 2.26 11 2.06V0ZM17.74 3.67C19 5.19 19.76 7.04 19.95 9H17.95C17.76 7.58 17.2 6.23 16.31 5.1L17.74 3.67ZM19.94 11C19.74 12.96 18.97 14.81 17.73 16.33L16.31 14.9C17.19 13.77 17.76 12.42 17.94 11H19.94ZM14.94 16.37L16.33 17.74C14.82 19 12.96 19.79 11 20V18C12.42 17.82 13.77 17.25 14.9 16.37H14.94Z"/>
</svg>
