<svg width="12" height="12" viewBox="0 0 12 12" xmlns="http://www.w3.org/2000/svg">
<path fill-rule="evenodd" clip-rule="evenodd" d="M2.4375 1.875H3V2.0625C3 2.58027 3.41973 3 3.9375 3H8.0625C8.58027 3 9 2.58027 9 2.0625V1.875H9.5625C9.87316 1.875 10.125 2.12684 10.125 2.4375V4.6875C10.125 4.99816 10.3768 5.25 10.6875 5.25C10.9982 5.25 11.25 4.99816 11.25 4.6875V2.4375C11.25 1.50552 10.4945 0.75 9.5625 0.75H8.98125C8.89438 0.32208 8.51606 0 8.0625 0H3.9375C3.48395 0 3.10562 0.32208 3.01875 0.75H2.4375C1.50552 0.75 0.75 1.50552 0.75 2.4375V10.3125C0.75 11.2445 1.50552 12 2.4375 12H9.5625C10.4945 12 11.25 11.2445 11.25 10.3125V9.5625C11.25 9.25184 10.9982 9 10.6875 9C10.3768 9 10.125 9.25184 10.125 9.5625V10.3125C10.125 10.6232 9.87316 10.875 9.5625 10.875H2.4375C2.12684 10.875 1.875 10.6232 1.875 10.3125V2.4375C1.875 2.12684 2.12684 1.875 2.4375 1.875ZM4.125 1.125V1.875H7.875V1.125H4.125Z"/>
<path d="M3.5625 4.125C3.25184 4.125 3 4.37684 3 4.6875C3 4.99816 3.25184 5.25 3.5625 5.25H5.8125C6.12316 5.25 6.375 4.99816 6.375 4.6875C6.375 4.37684 6.12316 4.125 5.8125 4.125H3.5625Z"/>
<path d="M3 9.1875C3 8.87684 3.25184 8.625 3.5625 8.625H5.8125C6.12316 8.625 6.375 8.87684 6.375 9.1875C6.375 9.49816 6.12316 9.75 5.8125 9.75H3.5625C3.25184 9.75 3 9.49816 3 9.1875Z" />
<path d="M3.5625 6.375C3.25184 6.375 3 6.62684 3 6.9375C3 7.24816 3.25184 7.5 3.5625 7.5H5.0625C5.37316 7.5 5.625 7.24816 5.625 6.9375C5.625 6.62684 5.37316 6.375 5.0625 6.375H3.5625Z" />
<path d="M12 6.9375C12 7.24816 11.7482 7.5 11.4375 7.5H8.2955L9.21025 8.41475C9.42992 8.63442 9.42992 8.99058 9.21025 9.21025C8.99058 9.42992 8.63442 9.42992 8.41475 9.21025L6.5402 7.33569C6.43471 7.2302 6.375 7.08668 6.375 6.9375C6.375 6.78832 6.43426 6.64524 6.53975 6.53975L8.41475 4.66475C8.63442 4.44508 8.99058 4.44508 9.21025 4.66475C9.42992 4.88442 9.42992 5.24058 9.21025 5.46025L8.2955 6.375H11.4375C11.7482 6.375 12 6.62684 12 6.9375Z" />
</svg>
