<svg focusable="false" role="img" width="24" height="24" xmlns="http://www.w3.org/2000/svg"><path fill-rule="evenodd" clip-rule="evenodd" d="M12 22a10 10 0 1 0 0-20 10 10 0 0 0 0 20ZM7.46 7.143C7.46 6.508 7.969 6 8.602 6h4.572l3.428 3.429v1.194l-1.09 1.09h-6.91v1.145h5.767L13.225 14H8.602v1.143h3.48l-1.193 1.194v1.092H8.602a1.142 1.142 0 0 1-1.142-1.143V7.142ZM15.745 10l-3.143-3.143V10h3.143Zm.717 2.379a.32.32 0 0 1 .226-.093c.082 0 .162.03.222.093l.742.742a.315.315 0 0 1 0 .448l-.583.581-1.19-1.19.583-.581Zm-4.43 4.43 3.51-3.513 1.19 1.19L13.223 18h-1.19v-1.191Z"/></svg>
