<svg focusable="false" role="img" width="24" height="24" xmlns="http://www.w3.org/2000/svg"><path d="M7.76 16.24A5.944 5.944 0 0 1 6 12c0-1.66.67-3.16 1.76-4.24l1.42 1.42A3.95 3.95 0 0 0 8 12c0 1.1.45 2.1 1.17 2.83l-1.41 1.41Zm8.48 0A5.944 5.944 0 0 0 18 12c0-1.66-.67-3.16-1.76-4.24l-1.42 1.42A3.95 3.95 0 0 1 16 12c0 1.1-.45 2.1-1.17 2.83l1.41 1.41ZM12 10c-1.1 0-2 .9-2 2s.9 2 2 2 2-.9 2-2-.9-2-2-2Zm8 2c0 2.21-.9 4.21-2.35 5.65l1.42 1.42A9.969 9.969 0 0 0 22 12c0-2.76-1.12-5.26-2.93-7.07l-1.42 1.42A7.94 7.94 0 0 1 20 12ZM6.35 6.35 4.93 4.93A9.969 9.969 0 0 0 2 12c0 2.76 1.12 5.26 2.93 7.07l1.42-1.42A7.94 7.94 0 0 1 4 12c0-2.21.9-4.21 2.35-5.65Z"/></svg>
