<svg width="24" height="24" fill="none" xmlns="http://www.w3.org/2000/svg"><path d="M12.834 3.692v1.683a6.662 6.662 0 0 1 5.8 7.433c-.384 3.034-2.767 5.442-5.8 5.8v1.667a8.313 8.313 0 0 0 7.458-9.108c-.375-3.959-3.517-7.084-7.459-7.475Zm-1.667.025A8.19 8.19 0 0 0 6.725 5.55l1.192 1.233a6.663 6.663 0 0 1 3.25-1.4V3.717ZM5.55 6.725a8.237 8.237 0 0 0-1.841 4.442h1.666a6.68 6.68 0 0 1 1.367-3.25L5.55 6.725Zm-1.833 6.108a8.366 8.366 0 0 0 1.842 4.442l1.183-1.192a6.668 6.668 0 0 1-1.359-3.25H3.717Zm4.2 4.475L6.725 18.45a8.328 8.328 0 0 0 4.442 1.883v-1.666a6.668 6.668 0 0 1-3.25-1.359Z" fill="#000"/></svg>
