<svg focusable="false" role="img" xmlns="http://www.w3.org/2000/svg" width="24" height="24" viewBox="0 0 24 24">
  <path d="M8 8.5c-.83 0-1.5-.67-1.5-1.5S7.17 5.5 8 5.5s1.5.67 1.5 1.5S8.83 8.5 8 8.5z"/>
  <path fill-rule="evenodd" d="M7.75 3h7.5C17.32 3 19 4.792 19 7s-1.68 4-3.75 4h-7.5C5.68 11 4 9.208 4 7s1.68-4 3.75-4zm7.5 1h-7.5C6.292 4 5 5.283 5 7s1.292 3 2.75 3h7.5C16.708 10 18 8.717 18 7s-1.292-3-2.75-3zm0 9h-7.5C5.68 13 4 14.792 4 17s1.68 4 3.75 4h7.5c2.07 0 3.75-1.792 3.75-4s-1.68-4-3.75-4zM15 19a2 2 0 100-4 2 2 0 000 4z" clip-rule="evenodd"/>
  <path d="M10 7a2 2 0 11-4 0 2 2 0 014 0z"/>
</svg>
