<svg width="121" height="121" fill="none" xmlns="http://www.w3.org/2000/svg"><path d="m60.5 0 52.395 30.25v60.5L60.5 121 8.105 90.75v-60.5L60.5 0z" fill="#282828"/><g clip-path="url(#a)" fill="#EBFF38"><path d="M70.09 51.178H50v15.61h20.09v-15.61zM71 38.22H50L60.72 22 71 38.22zM60.5 99c-5.297 0-9.596-4.33-9.596-9.678 0-5.343 4.293-9.678 9.596-9.678 5.298 0 9.596 4.329 9.596 9.678C70.09 94.665 65.798 99 60.5 99zM61.904 41.176H59.09v6.566h2.813v-6.566zM61.904 69.935H59.09v6.566h2.813v-6.566z"/></g><defs><clipPath id="a"><path fill="#fff" transform="translate(50 22)" d="M0 0h21v77H0z"/></clipPath></defs></svg>