<svg xmlns="http://www.w3.org/2000/svg" fill="none" viewBox="0 0 80 80" width="3rem">
  <path fill="none" d="M.5.5h79v79H.5z" />
  <path
    fill="currentcolor"
    d="M22.985 21.09a2.23 2.23 0 0 0-1.037-1.675c-.606-.398-1.349-.597-2.23-.597-.643 0-1.207.104-1.69.313-.478.208-.852.494-1.122.86a2.06 2.06 0 0 0-.398 1.242c0 .388.093.722.277 1.001.19.275.431.505.725.69.293.18.6.328.923.447.322.113.618.206.888.277l1.477.398c.379.099.8.236 1.264.411a5.84 5.84 0 0 1 1.342.718c.431.298.787.681 1.066 1.15.28.469.419 1.044.419 1.726 0 .786-.206 1.496-.618 2.13-.407.635-1.004 1.14-1.79 1.514-.781.374-1.73.56-2.848.56-1.041 0-1.944-.167-2.706-.504-.757-.336-1.354-.805-1.79-1.406-.43-.601-.674-1.3-.731-2.095h1.818c.047.55.232 1.004.554 1.364a3 3 0 0 0 1.236.795c.502.17 1.041.256 1.62.256.671 0 1.275-.11 1.81-.327.535-.223.96-.53 1.272-.923.312-.398.468-.862.468-1.392 0-.483-.135-.876-.405-1.18a2.98 2.98 0 0 0-1.065-.738c-.44-.19-.916-.355-1.427-.497l-1.79-.511c-1.137-.327-2.036-.794-2.7-1.4-.662-.606-.993-1.399-.993-2.379 0-.814.22-1.524.66-2.13.445-.611 1.042-1.085 1.79-1.421.753-.34 1.593-.511 2.521-.511.938 0 1.771.168 2.5.504.73.331 1.307.786 1.733 1.364.431.577.658 1.233.682 1.967h-1.705ZM30.03 32l-3.324-10.91h1.762l2.358 8.353h.113l2.33-8.352h1.79l2.3 8.324h.114l2.358-8.324h1.762L38.268 32H36.62l-2.386-8.38h-.17L31.676 32h-1.648Zm16.989.256c-.691 0-1.319-.13-1.882-.39a3.23 3.23 0 0 1-1.343-1.144c-.331-.502-.497-1.108-.497-1.819 0-.625.123-1.131.37-1.52.246-.392.575-.7.987-.923a5.19 5.19 0 0 1 1.363-.497 16.584 16.584 0 0 1 1.513-.27c.663-.085 1.2-.149 1.612-.192.417-.047.72-.125.91-.234.194-.109.29-.298.29-.568v-.057c0-.7-.191-1.245-.575-1.633-.378-.389-.954-.583-1.725-.583-.8 0-1.428.175-1.883.526-.454.35-.774.724-.958 1.122l-1.591-.568c.284-.663.663-1.18 1.136-1.549.478-.374 1-.634 1.563-.78a6.488 6.488 0 0 1 1.676-.228c.35 0 .752.042 1.207.128.46.08.902.248 1.328.504.431.256.788.642 1.073 1.158.284.516.426 1.207.426 2.073V32h-1.676v-1.477h-.086c-.113.236-.303.49-.568.76-.265.27-.618.5-1.058.689-.44.189-.978.284-1.612.284Zm.255-1.506c.663 0 1.222-.13 1.677-.39.459-.261.804-.597 1.036-1.01a2.57 2.57 0 0 0 .356-1.299v-1.534c-.071.085-.228.163-.47.234a7.911 7.911 0 0 1-.823.178 37.814 37.814 0 0 1-1.605.213c-.436.057-.843.15-1.222.277-.374.123-.677.31-.909.561-.227.246-.34.582-.34 1.009 0 .582.215 1.022.646 1.32.435.294.987.441 1.654.441Zm7.804 5.34v-15h1.62v1.734h.198c.123-.19.294-.431.512-.725.222-.298.54-.563.951-.795.417-.237.98-.355 1.69-.355.92 0 1.729.23 2.43.689.7.46 1.247 1.11 1.64 1.953.393.843.59 1.837.59 2.983 0 1.155-.197 2.157-.59 3.004-.393.843-.937 1.496-1.633 1.96-.696.46-1.499.69-2.408.69-.7 0-1.262-.117-1.683-.349-.422-.237-.746-.504-.973-.802a10.75 10.75 0 0 1-.526-.753h-.142v5.767h-1.676Zm1.648-9.545c0 .824.12 1.551.362 2.18.241.626.594 1.116 1.058 1.471.464.35 1.032.526 1.705.526.7 0 1.285-.185 1.754-.554.474-.374.829-.876 1.065-1.506.242-.634.363-1.34.363-2.116 0-.768-.119-1.459-.355-2.074-.233-.62-.585-1.11-1.059-1.47-.468-.365-1.058-.547-1.768-.547-.682 0-1.255.172-1.719.518-.464.34-.814.82-1.051 1.435-.237.61-.355 1.323-.355 2.137ZM23.739 62V51.09h1.62v1.705h.141a2.742 2.742 0 0 1 1.101-1.356c.507-.327 1.115-.49 1.826-.49.72 0 1.318.163 1.797.49.482.322.859.774 1.129 1.356h.113c.28-.563.699-1.01 1.258-1.342.558-.336 1.228-.504 2.01-.504.975 0 1.773.305 2.393.916.62.606.93 1.55.93 2.834V62h-1.676v-7.301c0-.805-.22-1.38-.66-1.726-.44-.346-.96-.518-1.556-.518-.767 0-1.361.232-1.782.696-.422.459-.633 1.041-.633 1.747V62h-1.704v-7.472c0-.62-.201-1.12-.604-1.498-.402-.384-.92-.575-1.555-.575-.436 0-.843.116-1.222.348a2.628 2.628 0 0 0-.909.966c-.227.407-.34.878-.34 1.413V62h-1.677Zm21.957.227c-1.051 0-1.958-.232-2.72-.696a4.67 4.67 0 0 1-1.755-1.96c-.407-.843-.61-1.823-.61-2.94 0-1.118.203-2.103.61-2.955.412-.857.985-1.525 1.72-2.003.738-.483 1.6-.724 2.584-.724.569 0 1.13.095 1.684.284.554.19 1.058.497 1.512.923.455.422.817.98 1.087 1.676s.405 1.553.405 2.571v.71h-8.41v-1.448h6.705c0-.616-.123-1.165-.369-1.648a2.783 2.783 0 0 0-1.037-1.143c-.445-.28-.97-.42-1.577-.42-.667 0-1.245.166-1.733.498a3.27 3.27 0 0 0-1.115 1.278 3.756 3.756 0 0 0-.39 1.69v.966c0 .824.142 1.523.426 2.095a3.073 3.073 0 0 0 1.2 1.3c.512.294 1.106.44 1.783.44.44 0 .838-.061 1.193-.184.36-.128.67-.317.93-.568.26-.256.462-.573.604-.952l1.62.455a3.591 3.591 0 0 1-.86 1.448 4.19 4.19 0 0 1-1.491.966c-.592.228-1.258.341-1.996.341Zm9.282-14.772-.142 10.454H53.19l-.142-10.454h1.931Zm-.965 14.659a1.23 1.23 0 0 1-.902-.377 1.23 1.23 0 0 1-.377-.902c0-.35.126-.65.377-.902a1.23 1.23 0 0 1 .902-.376c.35 0 .65.125.902.376.25.251.376.552.376.902 0 .232-.06.445-.177.64-.114.194-.268.35-.462.468-.19.114-.403.17-.64.17Z"
  />
  <path stroke="#A34FDE" stroke-dasharray="2 2" d="M.5.5h79v79H.5z" />
</svg>
