<svg xmlns="http://www.w3.org/2000/svg" xmlns:xlink="http://www.w3.org/1999/xlink">
  <defs>
    <symbol viewBox="0 0 20 20" id="app-icon-smile">
      <path
        fill-rule="evenodd"
        clip-rule="evenodd"
        d="M6.84286 2.37799C7.8438 1.96339 8.91659 1.75 10 1.75C11.0834 1.75 12.1562 1.96339 13.1571 2.37799C14.1581 2.7926 15.0675 3.40029 15.8336 4.16637C16.5997 4.93245 17.2074 5.84192 17.622 6.84286C18.0366 7.8438 18.25 8.91659 18.25 10C18.25 11.0834 18.0366 12.1562 17.622 13.1571C17.2074 14.1581 16.5997 15.0675 15.8336 15.8336C15.0675 16.5997 14.1581 17.2074 13.1571 17.622C12.1562 18.0366 11.0834 18.25 10 18.25C8.91659 18.25 7.8438 18.0366 6.84286 17.622C5.84192 17.2074 4.93245 16.5997 4.16637 15.8336C3.40029 15.0675 2.7926 14.1581 2.37799 13.1571C1.96339 12.1562 1.75 11.0834 1.75 10C1.75 8.91659 1.96339 7.8438 2.37799 6.84286C2.7926 5.84193 3.40029 4.93245 4.16637 4.16637C4.93245 3.40029 5.84193 2.7926 6.84286 2.37799ZM10 3.25C9.11358 3.25 8.23583 3.42459 7.41689 3.76381C6.59794 4.10303 5.85382 4.60023 5.22703 5.22703C4.60023 5.85382 4.10303 6.59794 3.76381 7.41689C3.42459 8.23583 3.25 9.11358 3.25 10C3.25 10.8864 3.42459 11.7642 3.76381 12.5831C4.10303 13.4021 4.60023 14.1462 5.22703 14.773C5.85382 15.3998 6.59794 15.897 7.41689 16.2362C8.23583 16.5754 9.11358 16.75 10 16.75C10.8864 16.75 11.7642 16.5754 12.5831 16.2362C13.4021 15.897 14.1462 15.3998 14.773 14.773C15.3998 14.1462 15.897 13.4021 16.2362 12.5831C16.5754 11.7642 16.75 10.8864 16.75 10C16.75 9.11358 16.5754 8.23583 16.2362 7.41689C15.897 6.59794 15.3998 5.85383 14.773 5.22703C14.1462 4.60023 13.4021 4.10303 12.5831 3.76381C11.7642 3.42459 10.8864 3.25 10 3.25ZM6.75 8.33333C6.75 7.91912 7.08579 7.58333 7.5 7.58333H7.50833C7.92255 7.58333 8.25833 7.91912 8.25833 8.33333C8.25833 8.74755 7.92255 9.08333 7.50833 9.08333H7.5C7.08579 9.08333 6.75 8.74755 6.75 8.33333ZM11.75 8.33333C11.75 7.91912 12.0858 7.58333 12.5 7.58333H12.5083C12.9225 7.58333 13.2583 7.91912 13.2583 8.33333C13.2583 8.74755 12.9225 9.08333 12.5083 9.08333H12.5C12.0858 9.08333 11.75 8.74755 11.75 8.33333ZM7.39178 11.9643C7.68764 11.6744 8.16249 11.6792 8.45238 11.9751C8.65411 12.181 8.89491 12.3446 9.16065 12.4562C9.42639 12.5679 9.71175 12.6254 10 12.6254C10.2883 12.6254 10.5736 12.5679 10.8393 12.4562C11.1051 12.3446 11.3459 12.181 11.5476 11.9751C11.8375 11.6792 12.3124 11.6744 12.6082 11.9643C12.9041 12.2542 12.9089 12.729 12.619 13.0249C12.2777 13.3733 11.8702 13.6501 11.4204 13.8391C10.9707 14.0281 10.4878 14.1254 10 14.1254C9.51219 14.1254 9.02928 14.0281 8.57956 13.8391C8.12984 13.6501 7.72235 13.3733 7.38095 13.0249C7.09106 12.729 7.09591 12.2542 7.39178 11.9643Z"
      />
    </symbol>
  </defs>
</svg>
