<svg width="772" height="176" viewBox="0 0 772 176" fill="none" xmlns="http://www.w3.org/2000/svg">
<path d="M684.811 0C685.834 0.00689369 686.812 0.427702 687.52 1.16602L770.166 83.5518C771.34 84.7248 772 86.3143 772 87.9717C772 89.629 771.34 91.2186 770.166 92.3916L687.48 174.874C687.13 175.231 686.712 175.514 686.25 175.707C685.788 175.9 685.292 176 684.791 176C684.061 176.001 683.344 175.798 682.724 175.413C682.104 175.028 681.604 174.477 681.283 173.823C680.972 173.208 680.84 172.518 680.901 171.831C680.963 171.144 681.217 170.488 681.634 169.938L723.104 113.007L650.493 142.58C650.001 142.793 649.471 142.906 648.935 142.91C648.095 142.906 647.278 142.631 646.607 142.127C645.937 141.623 645.447 140.916 645.212 140.112C644.971 139.327 644.997 138.483 645.286 137.714C645.575 136.945 646.111 136.292 646.81 135.857L710.671 98.2588L598.228 91.8086C597.324 91.6513 596.504 91.1815 595.914 90.4814C595.324 89.7812 595 88.8952 595 87.9805C595 87.0658 595.324 86.1806 595.914 85.4805C596.504 84.7802 597.324 84.3097 598.228 84.1523L710.729 77.7207L646.849 40.124C646.15 39.6891 645.614 39.036 645.325 38.2666C645.036 37.4972 645.01 36.6538 645.251 35.8682C645.485 35.0674 645.972 34.3632 646.639 33.8594C647.305 33.3556 648.117 33.0788 648.953 33.0703C649.492 33.0682 650.025 33.1876 650.513 33.4199L723.143 63.0322L681.673 6.12109C681.256 5.57059 681.002 4.91448 680.94 4.22754C680.878 3.54059 681.011 2.85018 681.322 2.23438C681.634 1.57236 682.127 1.01145 682.744 0.616211C683.361 0.221136 684.077 0.00739432 684.811 0ZM86.6045 66.9365C88.699 66.9365 91.1052 67.1917 93.8223 67.7012C96.5678 68.1823 99.2144 69.1874 101.762 70.7158C104.337 72.2442 106.475 74.5507 108.173 77.6357C109.871 80.7209 110.721 84.8536 110.721 90.0332V133H100.7V124.169H100.191C99.5121 125.584 98.3799 127.099 96.7949 128.712C95.2099 130.325 93.101 131.698 90.4688 132.83C87.8365 133.962 84.6238 134.528 80.8311 134.528C76.6987 134.528 72.9482 133.75 69.5801 132.193C66.2118 130.608 63.537 128.329 61.5557 125.357C59.5744 122.357 58.5831 118.735 58.583 114.489C58.583 110.753 59.3193 107.724 60.791 105.403C62.2628 103.054 64.23 101.214 66.6924 99.8838C69.1549 98.5535 71.8727 97.5621 74.8447 96.9111C77.8449 96.2319 80.8593 95.6941 83.8877 95.2979C87.8503 94.7884 91.0629 94.4071 93.5254 94.1523C96.0162 93.8693 97.8278 93.402 98.96 92.751C100.12 92.1 100.7 90.9677 100.7 89.3545V89.0146C100.7 84.8256 99.5544 81.57 97.2617 79.249C94.9973 76.9282 91.5579 75.7676 86.9443 75.7676C82.161 75.7676 78.4106 76.8156 75.6934 78.9102C72.9762 81.0046 71.0658 83.2406 69.9619 85.6182L60.4512 82.2217C62.1494 78.2591 64.4138 75.1736 67.2441 72.9658C70.1029 70.7298 73.2168 69.1734 76.585 68.2959C79.9814 67.3902 83.3213 66.9366 86.6045 66.9365ZM478.002 66.9365C480.096 66.9366 482.503 67.1917 485.22 67.7012C487.965 68.1824 490.612 69.1874 493.159 70.7158C495.735 72.2442 497.871 74.5509 499.569 77.6357C501.268 80.7209 502.117 84.8536 502.117 90.0332V133H492.098V124.169H491.588C490.909 125.584 489.776 127.099 488.191 128.712C486.606 130.325 484.498 131.698 481.865 132.83C479.233 133.962 476.02 134.528 472.228 134.528C468.095 134.528 464.345 133.75 460.977 132.193C457.608 130.608 454.933 128.329 452.952 125.357C450.971 122.357 449.981 118.735 449.98 114.489C449.98 110.753 450.716 107.724 452.188 105.403C453.659 103.054 455.627 101.214 458.089 99.8838C460.551 98.5535 463.269 97.5621 466.241 96.9111C469.241 96.2319 472.256 95.6941 475.284 95.2979C479.247 94.7884 482.459 94.4071 484.922 94.1523C487.413 93.8693 489.224 93.4019 490.356 92.751C491.517 92.1 492.098 90.9677 492.098 89.3545V89.0146C492.098 84.8256 490.951 81.57 488.658 79.249C486.394 76.9282 482.954 75.7676 478.341 75.7676C473.558 75.7676 469.807 76.8157 467.09 78.9102C464.373 81.0046 462.462 83.2407 461.358 85.6182L451.848 82.2217C453.546 78.259 455.811 75.1736 458.642 72.9658C461.5 70.7299 464.613 69.1733 467.981 68.2959C471.378 67.3901 474.719 66.9365 478.002 66.9365ZM280.393 66.9365C284.978 66.9365 289.11 67.7861 292.79 69.4844C296.47 71.1827 299.485 73.5603 301.834 76.6172C304.183 79.674 305.641 83.2407 306.207 87.3164H296.187C295.422 84.3444 293.724 81.7116 291.092 79.4189C288.488 77.0981 284.978 75.9375 280.562 75.9375C276.656 75.9375 273.232 76.9572 270.288 78.9951C267.373 81.0047 265.094 83.8488 263.452 87.5283C261.839 91.1795 261.032 95.4678 261.032 100.393C261.032 105.431 261.825 109.818 263.41 113.555C265.024 117.291 267.288 120.193 270.203 122.259C273.147 124.325 276.6 125.357 280.562 125.357C283.167 125.357 285.53 124.905 287.653 123.999C289.776 123.093 291.573 121.791 293.045 120.093C294.517 118.395 295.564 116.357 296.187 113.979H306.207C305.641 117.829 304.239 121.296 302.003 124.381C299.795 127.438 296.866 129.872 293.215 131.684C289.592 133.467 285.374 134.358 280.562 134.358C274.449 134.358 269.184 132.915 264.769 130.028C260.353 127.141 256.957 123.164 254.579 118.098C252.202 113.031 251.013 107.242 251.013 100.732C251.013 94.1093 252.23 88.2647 254.664 83.1982C257.127 78.1034 260.551 74.1264 264.938 71.2676C269.354 68.3806 274.505 66.9365 280.393 66.9365ZM570.138 133H560.458V122.98H559.269C558.533 124.169 557.485 125.669 556.127 127.48C554.768 129.264 552.83 130.863 550.311 132.278C547.791 133.665 544.437 134.358 540.248 134.358C534.814 134.358 530.016 132.986 525.855 130.24C521.695 127.466 518.439 123.561 516.09 118.522C513.741 113.456 512.566 107.469 512.566 100.562C512.566 93.7129 513.741 87.7686 516.09 82.7305C518.439 77.6925 521.709 73.8012 525.897 71.0557C530.087 68.3101 534.927 66.9365 540.418 66.9365C544.664 66.9365 548.018 67.6444 550.48 69.0596C552.971 70.4465 554.868 72.0322 556.17 73.8154C557.5 75.57 558.533 77.0135 559.269 78.1455H560.118V46.0479H570.138V133ZM134.246 108.545C134.246 113.3 135.577 117.092 138.237 119.923C140.926 122.753 144.351 124.169 148.512 124.169C151.002 124.169 153.536 123.532 156.111 122.259C158.715 120.985 160.895 119.032 162.65 116.399C164.434 113.767 165.325 110.413 165.325 106.337V67.7861H175.345V133H165.325V121.961H164.646C163.117 125.273 160.739 128.089 157.513 130.41C154.286 132.703 150.21 133.85 145.285 133.85C141.209 133.85 137.586 132.958 134.416 131.175C131.246 129.363 128.755 126.645 126.943 123.022C125.132 119.371 124.227 114.771 124.227 109.224V67.7861H134.246V108.545ZM11.0586 123.659H51.4775V133H0.529297V46.0479H11.0586V123.659ZM218.465 66.9365C222.88 66.9366 226.744 67.8428 230.056 69.6543C233.367 71.4374 235.943 74.1546 237.782 77.8057C239.622 81.4286 240.542 86.014 240.542 91.5615V133H230.522V92.2412C230.522 87.1181 229.192 83.1273 226.531 80.2686C223.871 77.3815 220.219 75.9375 215.577 75.9375C212.379 75.9375 209.52 76.6317 207.001 78.0186C204.51 79.4055 202.543 81.4293 201.1 84.0898C199.656 86.7504 198.935 89.9769 198.935 93.7695V133H188.914V67.7861H198.595V77.9756H199.443C200.972 74.6641 203.293 72.0037 206.406 69.9941C209.52 67.9562 213.54 66.9365 218.465 66.9365ZM326.092 77.9756H326.94C328.469 74.6073 330.762 71.9325 333.819 69.9512C336.904 67.9417 341.009 66.9365 346.132 66.9365C350.575 66.9366 354.467 67.8284 357.807 69.6113C361.147 71.3662 363.737 74.0694 365.577 77.7207C367.445 81.3436 368.379 85.9574 368.379 91.5615V133H358.359V92.2412C358.359 87.0615 357.014 83.056 354.325 80.2256C351.665 77.3671 347.971 75.9375 343.244 75.9375C339.961 75.9375 337.017 76.6317 334.413 78.0186C331.837 79.4055 329.8 81.4293 328.3 84.0898C326.828 86.7504 326.092 89.9768 326.092 93.7695V133H316.072V46.0479H326.092V77.9756ZM412.666 46.0479C419.487 46.0479 425.064 47.2797 429.395 49.7422C433.753 52.1764 436.98 55.4741 439.074 59.6348C441.169 63.7955 442.217 68.4375 442.217 73.5605C442.217 78.6835 441.169 83.3393 439.074 87.5283C437.008 91.7174 433.81 95.058 429.479 97.5488C425.149 100.011 419.601 101.242 412.836 101.242H393.815V133H383.286V46.0479H412.666ZM100.7 100.224C100.275 100.733 99.3415 101.2 97.8984 101.624C96.4833 102.02 94.8417 102.374 92.9736 102.686C91.1338 102.969 89.3359 103.224 87.5811 103.45C85.8547 103.648 84.4534 103.817 83.3779 103.959C80.774 104.299 78.3395 104.851 76.0752 105.615C73.8393 106.351 72.0275 107.47 70.6406 108.97C69.2823 110.441 68.6036 112.451 68.6035 114.998C68.6035 118.48 69.8911 121.112 72.4668 122.896C75.0708 124.65 78.3685 125.527 82.3594 125.527C86.3219 125.527 89.6617 124.749 92.3789 123.192C95.1244 121.636 97.1912 119.626 98.5781 117.164C99.9934 114.702 100.7 112.111 100.7 109.394V100.224ZM492.098 100.224C491.673 100.733 490.738 101.199 489.295 101.624C487.88 102.02 486.238 102.374 484.37 102.686C482.53 102.969 480.733 103.224 478.979 103.45C477.252 103.648 475.85 103.817 474.774 103.959C472.171 104.299 469.737 104.851 467.473 105.615C465.237 106.351 463.425 107.47 462.038 108.97C460.68 110.442 460 112.451 460 114.998C460 118.48 461.288 121.112 463.863 122.896C466.467 124.65 469.765 125.527 473.756 125.527C477.718 125.527 481.058 124.749 483.775 123.192C486.521 121.636 488.588 119.626 489.975 117.164C491.39 114.702 492.098 112.111 492.098 109.394V100.224ZM541.606 75.9375C537.361 75.9376 533.823 77.0276 530.992 79.207C528.19 81.3582 526.082 84.2883 524.667 87.9961C523.28 91.6755 522.586 95.8075 522.586 100.393C522.586 105.034 523.294 109.252 524.709 113.045C526.152 116.809 528.275 119.81 531.077 122.046C533.908 124.254 537.418 125.357 541.606 125.357C545.626 125.357 549.023 124.31 551.797 122.216C554.571 120.093 556.68 117.164 558.123 113.428C559.567 109.663 560.288 105.318 560.288 100.393C560.288 95.5244 559.58 91.2645 558.165 87.6133C556.75 83.9339 554.656 81.075 551.882 79.0371C549.108 76.9709 545.682 75.9375 541.606 75.9375ZM393.815 91.9014H412.496C417.166 91.9014 420.917 91.0947 423.747 89.4814C426.577 87.8681 428.63 85.6888 429.903 82.9434C431.205 80.1696 431.856 77.0419 431.856 73.5605C431.856 70.0791 431.205 66.9653 429.903 64.2197C428.63 61.4743 426.564 59.3233 423.705 57.7666C420.846 56.1815 417.053 55.3887 412.326 55.3887H393.815V91.9014Z" fill="url(#paint0_linear_141_8983)"/>
<defs>
<linearGradient id="paint0_linear_141_8983" x1="-11.5" y1="-66.5" x2="1089" y2="329.5" gradientUnits="userSpaceOnUse">
<stop stop-color="#B9A5ED"/>
<stop offset="1" stop-color="#425EFF"/>
</linearGradient>
</defs>
</svg>
