<svg width="509" height="87" viewBox="0 0 509 87" fill="none" xmlns="http://www.w3.org/2000/svg">
<path d="M465.111 0C465.62 0.00357381 466.106 0.211359 466.458 0.576172L507.548 41.3008C508.132 41.8806 508.459 42.6671 508.459 43.4863C508.459 44.3053 508.131 45.0912 507.548 45.6709L466.438 86.4434C466.264 86.6196 466.056 86.7599 465.826 86.8555C465.597 86.9509 465.35 87 465.102 87C464.739 87.0007 464.381 86.9 464.073 86.71C463.765 86.5198 463.517 86.2469 463.357 85.9238C463.203 85.6196 463.137 85.2787 463.168 84.9395C463.199 84.6 463.324 84.275 463.531 84.0029L484.149 55.8613L448.05 70.4795C447.805 70.5849 447.541 70.6412 447.274 70.6436C446.857 70.6415 446.451 70.505 446.117 70.2559C445.784 70.0066 445.541 69.6571 445.424 69.2598C445.304 68.8714 445.317 68.4545 445.461 68.0742C445.605 67.6943 445.871 67.3721 446.218 67.1572L477.968 48.5713L422.063 45.3828C421.614 45.305 421.207 45.0724 420.914 44.7266C420.621 44.3804 420.46 43.9424 420.46 43.4902C420.46 43.0382 420.621 42.6009 420.914 42.2549C421.207 41.909 421.614 41.6765 422.063 41.5986L477.997 38.4189L446.237 19.834C445.89 19.6191 445.624 19.2962 445.48 18.916C445.337 18.5357 445.324 18.1189 445.443 17.7305C445.56 17.3347 445.801 16.9864 446.133 16.7373C446.464 16.4884 446.868 16.3518 447.284 16.3477C447.552 16.3468 447.817 16.4058 448.059 16.5205L484.169 31.1582L463.551 3.02539C463.344 2.75335 463.217 2.42927 463.187 2.08984C463.156 1.75027 463.222 1.4089 463.377 1.10449C463.532 0.777495 463.776 0.499996 464.083 0.304688C464.39 0.109457 464.747 0.00362722 465.111 0ZM97.8438 59.46C97.8438 64.6745 100.125 68.0146 105.421 68.0146C109.821 68.0144 114.221 64.7552 114.221 58.6445V33.2236H123.998V76H114.221V71.4375C111.776 74.2891 108.109 76.8963 102.569 76.8965C93.6067 76.8965 88.0664 70.7852 88.0664 61.5781V33.2236H97.8438V59.46ZM198.548 32.4092C207.754 32.4095 214.11 37.6238 216.392 44.4678L208.162 48.9492C206.94 44.3052 203.762 40.8012 198.548 40.8008C191.867 40.8008 187.304 45.9343 187.304 54.6523C187.304 63.3706 191.867 68.4229 198.548 68.4229C203.762 68.4224 206.94 64.9999 208.162 60.2744L216.555 64.5117C214.355 71.4372 207.836 76.8961 198.548 76.8965C186.326 76.8965 177.526 67.8519 177.526 54.6523C177.526 41.4529 186.326 32.4092 198.548 32.4092ZM399.767 76H389.988V71.5186C387.3 74.6961 383.226 76.8963 377.686 76.8965C365.708 76.8965 358.864 66.7927 358.864 54.6523C358.864 42.5121 365.708 32.4092 377.686 32.4092C383.226 32.4094 387.3 34.6088 389.988 37.7861V17.498H399.767V76ZM61.2383 32.4092C71.5042 32.4093 77.6971 37.2977 77.6973 47.1562V65.5703C77.6973 68.0146 78.7567 68.7487 81.4453 68.4229V76C74.3569 76.8147 70.6092 75.4292 69.1426 71.9258C66.4539 74.9404 61.9719 76.7333 56.4316 76.7334C48.2839 76.7334 42.0099 71.7633 42.0098 64.1045C42.0098 55.9567 48.1205 52.3712 56.3496 50.6602L68.1641 48.2158V47.4824C68.164 43.4087 66.0453 40.883 60.8311 40.8828C56.1871 40.8829 53.7423 43.0011 52.6016 47.1562L43.3945 45.0381C45.513 37.9496 51.7871 32.4094 61.2383 32.4092ZM334.4 32.4092C344.666 32.4095 350.858 37.2979 350.858 47.1562V65.5703C350.858 68.0146 351.918 68.7487 354.606 68.4229V76C347.518 76.8147 343.77 75.4292 342.304 71.9258C339.615 74.9404 335.133 76.7333 329.593 76.7334C321.445 76.7334 315.171 71.7633 315.171 64.1045C315.171 55.9567 321.282 52.3712 329.511 50.6602L341.325 48.2158V47.4824C341.325 43.4087 339.206 40.883 333.992 40.8828C329.348 40.8829 326.903 43.0011 325.763 47.1562L316.556 45.0381C318.674 37.9495 324.949 32.4092 334.4 32.4092ZM10.4297 66.874H37.9688V76H-0.000976562V17.498H10.4297V66.874ZM155.896 32.4092C164.858 32.4096 170.235 38.6018 170.235 47.8086V76H160.458V50.6602C160.458 45.3642 158.339 41.5344 152.962 41.5342C148.562 41.5342 144.081 44.7936 144.081 50.9043V76H134.304V33.2236H144.081V37.7861C146.525 34.9346 150.355 32.4092 155.896 32.4092ZM232.243 37.7861C234.688 34.9346 238.517 32.4092 244.058 32.4092C253.02 32.4094 258.398 38.6017 258.398 47.8086V76H248.62V50.6602C248.62 45.3642 246.501 41.5344 241.124 41.5342C236.724 41.5344 232.243 44.7938 232.243 50.9043V76H222.466V17.498H232.243V37.7861ZM292.169 17.498C305.205 17.4982 313.354 23.6096 313.354 35.4238C313.353 47.075 305.205 53.3485 292.169 53.3486H279.214V76H268.785V17.498H292.169ZM58.957 57.667C54.8017 58.5633 51.7061 59.8678 51.7061 63.6973C51.7063 67.0376 54.1506 68.9111 57.8984 68.9111C63.1127 68.9109 68.1639 66.141 68.1641 60.9268V55.7119L58.957 57.667ZM332.118 57.667C327.963 58.5633 324.867 59.8678 324.867 63.6973C324.867 67.0376 327.312 68.9111 331.06 68.9111C336.274 68.9109 341.325 66.141 341.325 60.9268V55.7119L332.118 57.667ZM379.641 40.9639C372.552 40.964 368.723 46.5047 368.723 54.6523C368.723 62.8001 372.552 68.3407 379.641 68.3408C385.67 68.3406 390.233 63.8593 390.233 55.9561V53.4307C390.233 45.3645 385.67 40.9641 379.641 40.9639ZM279.214 44.3867H291.599C299.094 44.3866 303.087 41.1271 303.087 35.4238C303.087 29.639 299.094 26.4611 291.599 26.4609H279.214V44.3867Z" fill="url(#paint0_linear_207_6440)"/>
<defs>
<linearGradient id="paint0_linear_207_6440" x1="-3.30532" y1="-33.4241" x2="304.156" y2="68.9397" gradientUnits="userSpaceOnUse">
<stop stop-color="#B9A5ED"/>
<stop offset="1" stop-color="#425EFF"/>
</linearGradient>
</defs>
</svg>
