<svg xmlns="http://www.w3.org/2000/svg" xmlns:xlink="http://www.w3.org/1999/xlink">
  <defs>
    <symbol viewBox="0 0 24 24" id="lp-icon-add">
      <path
        fill-rule="evenodd"
        d="M12 4.1a.9.9 0 0 1 .9.9v6.1H19a.9.9 0 1 1 0 1.8h-6.1V19a.9.9 0 1 1-1.8 0v-6.1H5a.9.9 0 1 1 0-1.8h6.1V5a.9.9 0 0 1 .9-.9Z"
        clip-rule="evenodd"
      />
    </symbol>
    <symbol viewBox="0 0 24 24" id="lp-icon-add-circle">
      <path
        fill-rule="evenodd"
        d="M5 5a9.9 9.9 0 1 1 14.001 14 9.9 9.9 0 0 1-14-14Zm7 3.1a.9.9 0 0 1 .9.9v2.1H15a.9.9 0 0 1 0 1.8h-2.1V15a.9.9 0 0 1-1.8 0v-2.1H9a.9.9 0 0 1 0-1.8h2.1V9a.9.9 0 0 1 .9-.9Z"
        clip-rule="evenodd"
      />
    </symbol>
    <symbol viewBox="0 0 24 24" id="lp-icon-add-circle-outline">
      <path
        fill-rule="evenodd"
        d="M5 5a9.9 9.9 0 1 1 14.001 14 9.9 9.9 0 0 1-14-14Zm7-1.1a8.1 8.1 0 1 0 0 16.2 8.1 8.1 0 0 0 0-16.2Zm0 4.2a.9.9 0 0 1 .9.9v2.1H15a.9.9 0 0 1 0 1.8h-2.1V15a.9.9 0 0 1-1.8 0v-2.1H9a.9.9 0 0 1 0-1.8h2.1V9a.9.9 0 0 1 .9-.9Z"
        clip-rule="evenodd"
      />
    </symbol>
    <symbol viewBox="0 0 24 24" id="lp-icon-alert-rhombus">
      <path
        fill-rule="evenodd"
        d="M12 1.65c.682 0 1.336.272 1.818.754l7.778 7.778a2.571 2.571 0 0 1 0 3.636l-7.778 7.778a2.571 2.571 0 0 1-3.637 0l-7.777-7.778a2.572 2.572 0 0 1 0-3.636l7.777-7.778A2.571 2.571 0 0 1 12 1.651ZM13 9a1 1 0 1 0-2 0v4a1 1 0 0 0 2 0V9Zm-1 5.9a1.1 1.1 0 0 1 1.1 1.1v.01a1.1 1.1 0 1 1-2.2 0V16a1.1 1.1 0 0 1 1.1-1.1Z"
        clip-rule="evenodd"
      />
    </symbol>
    <symbol viewBox="0 0 24 24" id="lp-icon-analyze">
      <path
        fill-rule="evenodd"
        d="M8.02 4.028a8.995 8.995 0 0 1 5.11-.838 9 9 0 0 1 7.761 7.686.9.9 0 0 1-1.783.248 7.2 7.2 0 0 0-6.21-6.15 7.198 7.198 0 0 0-6.18 2.216A1.9 1.9 0 1 1 5.26 6.118a8.995 8.995 0 0 1 2.76-2.09Zm1.222 5.214a3.9 3.9 0 1 1 5.515 5.516 3.9 3.9 0 0 1-5.515-5.516ZM3.876 12.11a.9.9 0 0 1 1.015.767 7.2 7.2 0 0 0 12.388 3.93 1.9 1.9 0 1 1 1.455 1.075 9.001 9.001 0 0 1-15.626-4.757.9.9 0 0 1 .768-1.015Z"
        clip-rule="evenodd"
      />
    </symbol>
    <symbol viewBox="0 0 24 24" id="lp-icon-application">
      <path
        fill-rule="evenodd"
        d="M3.758 3.756a1.9 1.9 0 1 1 2.687 2.687 1.9 1.9 0 0 1-2.687-2.687Zm7 0a1.9 1.9 0 1 1 2.687 2.687 1.9 1.9 0 0 1-2.687-2.687Zm7 0a1.9 1.9 0 1 1 2.687 2.687 1.9 1.9 0 0 1-2.687-2.687Zm-14 7a1.9 1.9 0 1 1 2.686 2.688 1.9 1.9 0 0 1-2.686-2.688Zm7 0a1.9 1.9 0 1 1 2.686 2.688 1.9 1.9 0 0 1-2.686-2.688Zm7 0a1.9 1.9 0 1 1 2.686 2.688 1.9 1.9 0 0 1-2.686-2.688Zm-14 7a1.9 1.9 0 1 1 2.686 2.688 1.9 1.9 0 0 1-2.686-2.688Zm7 0a1.9 1.9 0 1 1 2.686 2.688 1.9 1.9 0 0 1-2.686-2.688Zm7 0a1.9 1.9 0 1 1 2.686 2.688 1.9 1.9 0 0 1-2.686-2.688Z"
        clip-rule="evenodd"
      />
    </symbol>
    <symbol viewBox="0 0 24 24" id="lp-icon-approval-applied">
      <path
        fill-rule="evenodd"
        d="M4.949 3.95a2.9 2.9 0 1 1 3.037 4.777A3.1 3.1 0 0 0 11 11.1h3.243a2.9 2.9 0 1 1 0 1.8H11a4.9 4.9 0 0 1-3.1-1.105v3.448a2.9 2.9 0 1 1-1.8 0V8.757a2.9 2.9 0 0 1-1.151-4.808Zm2.05.95a1.1 1.1 0 1 0 0 2.2 1.1 1.1 0 0 0 0-2.2Zm10 6a1.1 1.1 0 1 0 0 2.2 1.1 1.1 0 0 0 0-2.2Zm-10 6a1.1 1.1 0 1 0 0 2.2 1.1 1.1 0 0 0 0-2.2Z"
        clip-rule="evenodd"
      />
    </symbol>
    <symbol viewBox="0 0 24 24" id="lp-icon-approval-approved">
      <path
        fill-rule="evenodd"
        d="M4.949 3.95a2.9 2.9 0 1 1 2.95 4.807v6.486A2.9 2.9 0 0 1 9.757 17.1H15a1.1 1.1 0 0 0 1.1-1.1v-2.827l-1.464 1.463a.9.9 0 1 1-1.273-1.272l3-3a.9.9 0 0 1 1.273 0l3 3a.9.9 0 1 1-1.273 1.272L17.9 13.174V16a2.9 2.9 0 0 1-2.9 2.9H9.756A2.9 2.9 0 1 1 6.1 15.243V8.757a2.9 2.9 0 0 1-1.151-4.808Zm2.05.95a1.1 1.1 0 1 0 0 2.2 1.1 1.1 0 0 0 0-2.2Zm11.364-1.536a.9.9 0 0 1 1.273 1.272l-3 3a.9.9 0 0 1-1.273 0l-1.5-1.5a.9.9 0 1 1 1.273-1.272l.864.863 2.363-2.363ZM7 16.9a1.1 1.1 0 1 0 0 2.2 1.1 1.1 0 0 0 0-2.2Z"
        clip-rule="evenodd"
      />
    </symbol>
    <symbol viewBox="0 0 24 24" id="lp-icon-approval-denied">
      <path
        fill-rule="evenodd"
        d="M4.949 3.95a2.9 2.9 0 1 1 2.95 4.807v6.486A2.9 2.9 0 0 1 9.757 17.1H15a1.1 1.1 0 0 0 1.1-1.1v-2.827l-1.464 1.463a.9.9 0 1 1-1.273-1.272l3-3a.9.9 0 0 1 1.273 0l3 3a.9.9 0 1 1-1.273 1.272L17.9 13.174V16a2.9 2.9 0 0 1-2.9 2.9H9.756A2.9 2.9 0 1 1 6.1 15.243V8.757a2.9 2.9 0 0 1-1.151-4.808Zm2.05.95a1.1 1.1 0 1 0 0 2.2 1.1 1.1 0 0 0 0-2.2Zm7.364-1.536a.9.9 0 0 1 1.273 0L17 4.727l1.363-1.363a.9.9 0 0 1 1.273 1.272L18.272 6l1.364 1.364a.9.9 0 1 1-1.273 1.272L17 7.273l-1.364 1.363a.9.9 0 1 1-1.273-1.272L15.727 6l-1.364-1.364a.9.9 0 0 1 0-1.272ZM7 16.9a1.1 1.1 0 1 0 0 2.2 1.1 1.1 0 0 0 0-2.2Z"
        clip-rule="evenodd"
      />
    </symbol>
    <symbol viewBox="0 0 24 24" id="lp-icon-approval-pending">
      <path
        fill-rule="evenodd"
        d="M4.949 3.95a2.9 2.9 0 1 1 2.95 4.807v6.486A2.9 2.9 0 0 1 9.757 17.1H15a1.1 1.1 0 0 0 1.1-1.1v-2.827l-1.464 1.463a.9.9 0 1 1-1.273-1.272l3-3a.9.9 0 0 1 1.273 0l3 3a.9.9 0 1 1-1.273 1.272L17.9 13.174V16a2.9 2.9 0 0 1-2.9 2.9H9.756A2.9 2.9 0 1 1 6.1 15.243V8.757a2.9 2.9 0 0 1-1.151-4.808Zm2.05.95a1.1 1.1 0 1 0 0 2.2 1.1 1.1 0 0 0 0-2.2Zm7.95-.95a2.9 2.9 0 1 1 4.101 4.1 2.9 2.9 0 0 1-4.101-4.1Zm2.05.95a1.1 1.1 0 1 0 0 2.2 1.1 1.1 0 0 0 0-2.2Zm-10 12a1.1 1.1 0 1 0 0 2.2 1.1 1.1 0 0 0 0-2.2Z"
        clip-rule="evenodd"
      />
    </symbol>
    <symbol viewBox="0 0 24 24" id="lp-icon-approvals">
      <path
        fill-rule="evenodd"
        d="M10.82 2.349a3.1 3.1 0 0 1 3.387.676l.698.697a1.3 1.3 0 0 0 .915.378h1a3.1 3.1 0 0 1 3.1 3.1v1c0 .342.136.671.377.915l.698.697v.001a3.101 3.101 0 0 1 0 4.394v.001l-.697.697a1.303 1.303 0 0 0-.378.916v1a3.1 3.1 0 0 1-3.1 3.1h-1a1.3 1.3 0 0 0-.915.376l-.697.698a3.099 3.099 0 0 1-4.395 0h-.001l-.697-.697a1.303 1.303 0 0 0-.915-.378h-1a3.1 3.1 0 0 1-3.1-3.1v-1a1.3 1.3 0 0 0-.377-.915l-.698-.697a3.107 3.107 0 0 1-.914-2.198 3.1 3.1 0 0 1 .913-2.197l.698-.698c.241-.243.378-.572.378-.915v-1a3.1 3.1 0 0 1 3.1-3.1h1a1.3 1.3 0 0 0 .915-.377l.697-.698c.288-.289.63-.52 1.008-.676Zm4.816 7.015a.9.9 0 0 1 0 1.272l-4 4a.9.9 0 0 1-1.272 0l-2-2a.9.9 0 0 1 1.272-1.272L11 12.727l3.364-3.363a.9.9 0 0 1 1.272 0Z"
        clip-rule="evenodd"
      />
    </symbol>
    <symbol viewBox="0 0 24 24" id="lp-icon-arrow-down-thin">
      <path
        fill-rule="evenodd"
        d="M12 4.1a.9.9 0 0 1 .9.9v11.827l2.463-2.463a.9.9 0 1 1 1.273 1.272l-4 4a.9.9 0 0 1-1.273 0l-4-4a.9.9 0 0 1 1.273-1.272l2.464 2.463V5a.9.9 0 0 1 .9-.9Z"
        clip-rule="evenodd"
      />
    </symbol>
    <symbol viewBox="0 0 24 24" id="lp-icon-arrow-left-thin">
      <path
        fill-rule="evenodd"
        d="M9.636 7.364a.9.9 0 0 1 0 1.272L7.172 11.1H19a.9.9 0 1 1 0 1.8H7.172l2.464 2.464a.9.9 0 0 1-1.273 1.273l-4-4a.9.9 0 0 1 0-1.273l4-4a.9.9 0 0 1 1.273 0Z"
        clip-rule="evenodd"
      />
    </symbol>
    <symbol viewBox="0 0 24 24" id="lp-icon-arrow-right-thin">
      <path
        fill-rule="evenodd"
        d="M14.363 7.364a.9.9 0 0 1 1.273 0l4 4a.9.9 0 0 1 0 1.272l-4 4a.9.9 0 1 1-1.273-1.272l2.464-2.464H5a.9.9 0 1 1 0-1.8h11.827l-2.464-2.464a.9.9 0 0 1 0-1.272Z"
        clip-rule="evenodd"
      />
    </symbol>
    <symbol viewBox="0 0 24 24" id="lp-icon-arrow-up-thin">
      <path
        fill-rule="evenodd"
        d="M11.363 4.364a.9.9 0 0 1 1.273 0l4 4a.9.9 0 1 1-1.273 1.272L12.9 7.173V19a.9.9 0 1 1-1.8 0V7.173L8.636 9.636a.9.9 0 1 1-1.273-1.272l4-4Z"
        clip-rule="evenodd"
      />
    </symbol>
    <symbol viewBox="0 0 24 24" id="lp-icon-article">
      <path
        fill-rule="evenodd"
        d="M2.95 3.95A2.9 2.9 0 0 1 5 3.1h14A2.9 2.9 0 0 1 21.9 6v12a2.9 2.9 0 0 1-2.9 2.9H5A2.9 2.9 0 0 1 2.1 18V6a2.9 2.9 0 0 1 .85-2.05ZM6.1 8a.9.9 0 0 1 .9-.9h10a.9.9 0 0 1 0 1.8H7a.9.9 0 0 1-.9-.9Zm0 4a.9.9 0 0 1 .9-.9h10a.9.9 0 0 1 0 1.8H7a.9.9 0 0 1-.9-.9Zm0 4a.9.9 0 0 1 .9-.9h5.5a.9.9 0 0 1 0 1.8H7a.9.9 0 0 1-.9-.9Z"
        clip-rule="evenodd"
      />
    </symbol>
    <symbol viewBox="0 0 24 24" id="lp-icon-border-all">
      <path
        fill-rule="evenodd"
        d="M6 4.9A1.1 1.1 0 0 0 4.9 6v5.1h6.2V4.9H6Zm0-1.8A2.9 2.9 0 0 0 3.1 6v12A2.9 2.9 0 0 0 6 20.9h12a2.9 2.9 0 0 0 2.9-2.9V6A2.9 2.9 0 0 0 18 3.1H6Zm6.9 1.8v6.2h6.2V6A1.1 1.1 0 0 0 18 4.9h-5.1Zm6.2 8h-6.2v6.2H18a1.1 1.1 0 0 0 1.1-1.1v-5.1Zm-8 6.2v-6.2H4.9V18A1.1 1.1 0 0 0 6 19.1h5.1Z"
        clip-rule="evenodd"
      />
    </symbol>
    <symbol viewBox="0 0 24 24" id="lp-icon-brain">
      <path
        fill-rule="evenodd"
        d="M9.75 3.9a1.349 1.349 0 0 0-1.328 1.102.9.9 0 0 1-.718.719 1.349 1.349 0 0 0-1.07 1.62.9.9 0 0 1-.72 1.082 1.349 1.349 0 0 0-.713 2.291.9.9 0 0 1-.255 1.457 1.8 1.8 0 0 0 .204 3.35.9.9 0 0 1 .594 1.087 1.352 1.352 0 0 0 1.598 1.664.9.9 0 0 1 1.081.718 1.351 1.351 0 0 0 2.322.672 1.35 1.35 0 0 0 .356-.91v-2.37l-.203-.19c-.295-.271-.7-.632-1.147-.99a11.12 11.12 0 0 0-1.361-.952c-.468-.268-.763-.35-.89-.35a.9.9 0 0 1 0-1.8c.624 0 1.267.292 1.783.587.55.314 1.106.72 1.592 1.11.077.061.152.122.226.183V5.25A1.35 1.35 0 0 0 9.75 3.9ZM12 3.045a3.149 3.149 0 0 0-4.262-.22 3.15 3.15 0 0 0-.926 1.286 3.149 3.149 0 0 0-2.006 2.792 3.149 3.149 0 0 0-1.497 4.212 3.6 3.6 0 0 0 .59 5.81A3.151 3.151 0 0 0 6.907 20.1a3.15 3.15 0 0 0 5.095.853 3.15 3.15 0 0 0 5.094-.853 3.146 3.146 0 0 0 2.906-2.358 3.11 3.11 0 0 0 .1-.819 3.6 3.6 0 0 0 .591-5.81 3.148 3.148 0 0 0-.758-3.725 3.147 3.147 0 0 0-.739-.486 3.138 3.138 0 0 0-.517-1.59 3.15 3.15 0 0 0-1.49-1.202 3.15 3.15 0 0 0-5.187-1.066Zm.9 2.205v8.485c.07-.06.14-.118.212-.177.86-.698 2.065-1.439 3.375-1.458a.9.9 0 1 1 .027 1.8c-.69.01-1.497.43-2.268 1.056a9.469 9.469 0 0 0-1.345 1.346v2.45a1.351 1.351 0 0 0 2.167 1.071 1.35 1.35 0 0 0 .51-.833.9.9 0 0 1 1.081-.718 1.347 1.347 0 0 0 1.6-.98c.058-.225.057-.46-.002-.684a.9.9 0 0 1 .594-1.087 1.8 1.8 0 0 0 .995-2.639 1.8 1.8 0 0 0-.79-.71.9.9 0 0 1-.256-1.458 1.35 1.35 0 0 0-.712-2.29.9.9 0 0 1-.722-1.082 1.353 1.353 0 0 0-1.068-1.621.9.9 0 0 1-.72-.72 1.35 1.35 0 0 0-2.677.25Z"
        clip-rule="evenodd"
      />
    </symbol>
    <symbol viewBox="0 0 24 24" id="lp-icon-bullhorn">
      <path
        fill-rule="evenodd"
        d="M16.87 3.136a1.8 1.8 0 0 1 2.03 1.786v2.283a3.9 3.9 0 0 1 0 7.59v2.283a1.801 1.801 0 0 1-2.951 1.384L11.675 14.9H10.9V19A1.9 1.9 0 0 1 9 20.9H8A1.9 1.9 0 0 1 6.1 19v-4.1H4A1.9 1.9 0 0 1 2.1 13V9A1.9 1.9 0 0 1 4 7.1h7.674l4.273-3.561a1.8 1.8 0 0 1 .923-.403ZM7.9 14.9V19a.1.1 0 0 0 .1.1h1a.1.1 0 0 0 .1-.1v-4.1H7.9Zm1.2-1.8H4a.1.1 0 0 1-.1-.1V9a.1.1 0 0 1 .1-.1h5.1v4.2Zm1.8 0H12a.9.9 0 0 1 .577.209l4.524 3.77V4.921l-4.524 3.77A.9.9 0 0 1 12 8.9h-1.1v4.2Zm8-.203a2.099 2.099 0 0 0 0-3.794v3.794Z"
        clip-rule="evenodd"
      />
    </symbol>
    <symbol viewBox="0 0 24 24" id="lp-icon-bullseye">
      <path
        fill-rule="evenodd"
        d="M8.212 2.853a9.9 9.9 0 1 1 7.577 18.293A9.9 9.9 0 0 1 8.212 2.853ZM12.001 3.9a8.1 8.1 0 1 0 0 16.2 8.1 8.1 0 0 0 0-16.2ZM7.829 7.828a5.9 5.9 0 1 1 8.344 8.344 5.9 5.9 0 0 1-8.344-8.344ZM12 7.9a4.1 4.1 0 1 0 0 8.2 4.1 4.1 0 0 0 0-8.2Zm-1.344 2.756a1.9 1.9 0 1 1 2.687 2.687 1.9 1.9 0 0 1-2.687-2.687Z"
        clip-rule="evenodd"
      />
    </symbol>
    <symbol viewBox="0 0 24 24" id="lp-icon-bullseye-arrow">
      <path
        fill-rule="evenodd"
        d="M7.206 3.335a9.9 9.9 0 0 1 5.895-1.175.9.9 0 1 1-.2 1.79 8.1 8.1 0 1 0 7.147 7.15.9.9 0 0 1 1.789-.2 9.9 9.9 0 1 1-14.63-7.565Zm11.139-1.167a.9.9 0 0 1 .556.832v2.1H21a.9.9 0 0 1 .636 1.536l-3 3A.9.9 0 0 1 18 9.9h-2.628l-1.553 1.553a1.9 1.9 0 1 1-1.273-1.273L14.1 8.627V6a.9.9 0 0 1 .263-.637l3-3a.9.9 0 0 1 .981-.195ZM8.723 7.094A5.9 5.9 0 0 1 12 6.1a.9.9 0 0 1 0 1.8 4.1 4.1 0 1 0 4.1 4.1.9.9 0 1 1 1.8 0 5.9 5.9 0 1 1-9.178-4.906Z"
        clip-rule="evenodd"
      />
    </symbol>
    <symbol viewBox="0 0 24 24" id="lp-icon-calendar">
      <path
        d="M10.1 13.5a.9.9 0 0 1 .9-.9h1a.9.9 0 0 1 .9.9v3a.9.9 0 0 1-1.8 0v-2.1H11a.9.9 0 0 1-.9-.9Z"
      />
      <path
        fill-rule="evenodd"
        d="M8.9 3a.9.9 0 0 0-1.8 0v1.1H6A2.9 2.9 0 0 0 3.1 7v12A2.9 2.9 0 0 0 6 21.9h12a2.9 2.9 0 0 0 2.9-2.9V7A2.9 2.9 0 0 0 18 4.1h-1.1V3a.9.9 0 1 0-1.8 0v1.1H8.9V3Zm10.2 9v-1.9H4.9V19A1.1 1.1 0 0 0 6 20.1h12a1.1 1.1 0 0 0 1.1-1.1v-7Z"
        clip-rule="evenodd"
      />
    </symbol>
    <symbol viewBox="0 0 24 24" id="lp-icon-calendar-cancel">
      <path
        fill-rule="evenodd"
        d="M16.363 16.363a.9.9 0 0 1 1.273 0l1.864 1.864 1.863-1.864a.9.9 0 1 1 1.273 1.273L20.772 19.5l1.864 1.863a.9.9 0 1 1-1.273 1.273L19.5 20.773l-1.864 1.863a.9.9 0 0 1-1.273-1.273l1.864-1.863-1.864-1.864a.9.9 0 0 1 0-1.273Z"
        clip-rule="evenodd"
      />
      <path
        d="M8.9 3a.9.9 0 0 0-1.8 0v1.1H6A2.9 2.9 0 0 0 3.1 7v12A2.9 2.9 0 0 0 6 21.9h6a.9.9 0 0 0 0-1.8H6A1.1 1.1 0 0 1 4.9 19v-8.9h14.2V12a.9.9 0 0 0 1.8 0V7A2.9 2.9 0 0 0 18 4.1h-1.1V3a.9.9 0 1 0-1.8 0v1.1H8.9V3Z"
      />
    </symbol>
    <symbol viewBox="0 0 24 24" id="lp-icon-calendar-schedule">
      <path
        d="M8.9 3a.9.9 0 0 0-1.8 0v1.1H6A2.9 2.9 0 0 0 3.1 7v12A2.9 2.9 0 0 0 6 21.9h4.361a.9.9 0 0 0 0-1.8H6A1.1 1.1 0 0 1 4.9 19v-8.9h14.2l.05.8v.1a.9.9 0 0 0 1.8 0l-.05-4A2.9 2.9 0 0 0 18 4.1h-1.1V3a.9.9 0 1 0-1.8 0v1.1H8.9V3Z"
      />
      <path
        fill-rule="evenodd"
        d="M18 13.1a4.9 4.9 0 1 0 0 9.8 4.9 4.9 0 0 0 0-9.8Zm0 1.8a3.1 3.1 0 1 0 0 6.199 3.1 3.1 0 0 0 0-6.2Zm.9 1.596a.9.9 0 0 0-1.8 0V18a.9.9 0 0 0 .264.636l1 1a.9.9 0 1 0 1.273-1.273l-.737-.736v-1.131Z"
        clip-rule="evenodd"
      />
    </symbol>
    <symbol viewBox="0 0 24 24" id="lp-icon-cancel">
      <path
        fill-rule="evenodd"
        d="M5.364 5.363a.9.9 0 0 1 1.273 0l5.364 5.364 5.363-5.364a.9.9 0 0 1 1.273 1.273L13.273 12l5.364 5.363a.9.9 0 1 1-1.273 1.273l-5.363-5.363-5.364 5.363a.9.9 0 1 1-1.273-1.273L10.728 12 5.364 6.636a.9.9 0 0 1 0-1.273Z"
        clip-rule="evenodd"
      />
    </symbol>
    <symbol viewBox="0 0 24 24" id="lp-icon-cancel-circle">
      <path
        fill-rule="evenodd"
        d="M8.212 2.853a9.9 9.9 0 1 1 7.577 18.293A9.9 9.9 0 0 1 8.212 2.853Zm.152 5.51a.9.9 0 0 1 1.273 0l2.364 2.364 2.363-2.364a.9.9 0 0 1 1.273 1.273L13.273 12l2.364 2.364a.9.9 0 1 1-1.273 1.272l-2.363-2.363-2.364 2.363a.9.9 0 0 1-1.273-1.272L10.728 12 8.364 9.636a.9.9 0 0 1 0-1.273Z"
        clip-rule="evenodd"
      />
    </symbol>
    <symbol viewBox="0 0 24 24" id="lp-icon-cancel-circle-outline">
      <path
        fill-rule="evenodd"
        d="M8.212 2.853a9.9 9.9 0 1 1 7.577 18.293A9.9 9.9 0 0 1 8.212 2.853ZM12.001 3.9a8.1 8.1 0 1 0 0 16.2 8.1 8.1 0 0 0 0-16.2ZM8.364 8.363a.9.9 0 0 1 1.273 0l2.364 2.364 2.363-2.364a.9.9 0 0 1 1.273 1.273L13.273 12l2.364 2.364a.9.9 0 1 1-1.273 1.272l-2.363-2.363-2.364 2.363a.9.9 0 1 1-1.273-1.272L10.728 12 8.364 9.636a.9.9 0 0 1 0-1.273Z"
        clip-rule="evenodd"
      />
    </symbol>
    <symbol viewBox="0 0 24 24" id="lp-icon-caret-down">
      <path
        fill-rule="evenodd"
        d="M5.168 9.656A.9.9 0 0 1 6 9.1h12a.9.9 0 0 1 .636 1.537l-6 6a.9.9 0 0 1-1.273 0l-6-6a.9.9 0 0 1-.195-.981Z"
        clip-rule="evenodd"
      />
    </symbol>
    <symbol viewBox="0 0 24 24" id="lp-icon-caret-left">
      <path
        fill-rule="evenodd"
        d="M14.344 5.168A.9.9 0 0 1 14.9 6v12a.9.9 0 0 1-1.537.636l-6-6a.9.9 0 0 1 0-1.272l6-6a.9.9 0 0 1 .981-.196Z"
        clip-rule="evenodd"
      />
    </symbol>
    <symbol viewBox="0 0 24 24" id="lp-icon-caret-right">
      <path
        fill-rule="evenodd"
        d="M9.655 5.168a.9.9 0 0 1 .981.195l6 6a.9.9 0 0 1 0 1.273l-6 6A.9.9 0 0 1 9.1 18V6a.9.9 0 0 1 .555-.832Z"
        clip-rule="evenodd"
      />
    </symbol>
    <symbol viewBox="0 0 24 24" id="lp-icon-caret-up">
      <path
        fill-rule="evenodd"
        d="M11.363 7.364a.9.9 0 0 1 1.273 0l6 6A.9.9 0 0 1 18 14.9H6a.9.9 0 0 1-.637-1.536l6-6Z"
        clip-rule="evenodd"
      />
    </symbol>
    <symbol viewBox="0 0 24 24" id="lp-icon-change-history">
      <path
        fill-rule="evenodd"
        d="M10.524 2.472A2.89 2.89 0 0 1 14.41 3.49l.003.005 8.423 14.06.007.012a2.889 2.889 0 0 1-2.47 4.333H3.509a2.889 2.889 0 0 1-2.469-4.333l.008-.012L9.47 3.49c.258-.424.62-.775 1.053-1.018ZM11.941 3.9a1.089 1.089 0 0 0-.93.521l-8.416 14.05a1.089 1.089 0 0 0 .93 1.628h16.833a1.09 1.09 0 0 0 .93-1.628L12.87 4.424v-.002a1.09 1.09 0 0 0-.93-.521Z"
        clip-rule="evenodd"
      />
    </symbol>
    <symbol viewBox="0 0 24 24" id="lp-icon-chart-area">
      <path
        fill-rule="evenodd"
        d="M15.959 3.101a.9.9 0 0 1 .677.263l4 4a.9.9 0 0 1-1.273 1.272L16.06 5.333l-4.369 5.243a.9.9 0 0 1-1.094.23L7.27 9.14l-2.55 3.4a.9.9 0 0 1-1.44-1.08l3-4a.9.9 0 0 1 1.123-.266l3.363 1.681 4.543-5.452a.9.9 0 0 1 .65-.323Zm-.01 6a.9.9 0 0 1 .687.263l4 4A.9.9 0 0 1 20.9 14v5a.9.9 0 0 1-.9.9H4a.9.9 0 0 1-.75-1.4l4-6a.9.9 0 0 1 1.152-.305l3.35 1.675 3.545-4.432a.9.9 0 0 1 .653-.337Z"
        clip-rule="evenodd"
      />
    </symbol>
    <symbol viewBox="0 0 24 24" id="lp-icon-chart-pie">
      <path
        fill-rule="evenodd"
        d="M9.895 2.306A1.8 1.8 0 0 1 11.9 4v7a1.1 1.1 0 0 0 1.1 1.1h6.8a1.9 1.9 0 0 1 1.9 1.9.902.902 0 0 1-.023.203 9.902 9.902 0 0 1-16.645 4.765A9.9 9.9 0 0 1 9.797 2.323a.9.9 0 0 1 .098-.017Zm.205 1.795a8.1 8.1 0 1 0 9.787 9.849.1.1 0 0 0-.087-.05H13a2.9 2.9 0 0 1-2.9-2.9V4.101Zm4.38-1.335a.9.9 0 0 1 .82-.115 9.9 9.9 0 0 1 6.05 6.05.9.9 0 0 1-.85 1.2H16A1.9 1.9 0 0 1 14.1 8V3.5a.9.9 0 0 1 .38-.735Z"
        clip-rule="evenodd"
      />
    </symbol>
    <symbol viewBox="0 0 24 24" id="lp-icon-chat-bubble">
      <path
        fill-rule="evenodd"
        d="M5.88 4.992c1.874-1.33 4.213-2 6.581-1.904 2.369.096 4.633.953 6.369 2.434 1.738 1.483 2.833 3.496 3.046 5.675.214 2.181-.473 4.343-1.907 6.083-1.431 1.736-3.505 2.931-5.822 3.39a10.916 10.916 0 0 1-6.554-.727l-4.405.938a.9.9 0 0 1-1.041-1.165l1.164-3.493c-1.069-1.773-1.443-3.832-1.036-5.84.435-2.149 1.728-4.06 3.605-5.39Z"
        clip-rule="evenodd"
      />
    </symbol>
    <symbol viewBox="0 0 24 24" id="lp-icon-check">
      <path
        fill-rule="evenodd"
        d="M20.636 6.364a.9.9 0 0 1 0 1.272l-10 10a.9.9 0 0 1-1.273 0l-5-5a.9.9 0 0 1 1.273-1.272L10 15.727l9.363-9.363a.9.9 0 0 1 1.273 0Z"
        clip-rule="evenodd"
      />
    </symbol>
    <symbol viewBox="0 0 24 24" id="lp-icon-check-circle">
      <path
        fill-rule="evenodd"
        d="M8.212 2.853a9.9 9.9 0 1 1 7.577 18.293A9.9 9.9 0 0 1 8.212 2.853Zm8.365 5.455a.9.9 0 0 1 .115 1.268l-5 6a.9.9 0 0 1-1.328.06l-3-3a.9.9 0 0 1 1.273-1.272l2.303 2.303 4.37-5.243a.9.9 0 0 1 1.267-.116Z"
        clip-rule="evenodd"
      />
    </symbol>
    <symbol viewBox="0 0 24 24" id="lp-icon-check-circle-outline">
      <path
        fill-rule="evenodd"
        d="M8.212 2.853a9.9 9.9 0 1 1 7.577 18.293A9.9 9.9 0 0 1 8.212 2.853ZM12.001 3.9a8.1 8.1 0 1 0 0 16.2 8.1 8.1 0 0 0 0-16.2Zm4.576 4.408a.9.9 0 0 1 .115 1.268l-5 6a.9.9 0 0 1-1.328.06l-3-3a.9.9 0 0 1 1.273-1.272l2.303 2.303 4.37-5.243a.9.9 0 0 1 1.267-.116Z"
        clip-rule="evenodd"
      />
    </symbol>
    <symbol viewBox="0 0 24 24" id="lp-icon-checklist">
      <path
        fill-rule="evenodd"
        d="M8.136 3.863a.9.9 0 0 1 0 1.273l-2.5 2.5a.9.9 0 0 1-1.273 0l-1.5-1.5a.9.9 0 1 1 1.273-1.273L5 5.727l1.863-1.864a.9.9 0 0 1 1.273 0ZM10.1 6a.9.9 0 0 1 .9-.9h9a.9.9 0 1 1 0 1.8h-9a.9.9 0 0 1-.9-.9ZM8.136 9.863a.9.9 0 0 1 0 1.273l-2.5 2.5a.9.9 0 0 1-1.273 0l-1.5-1.5a.9.9 0 1 1 1.273-1.272l.864.863 1.863-1.864a.9.9 0 0 1 1.273 0ZM10.1 12a.9.9 0 0 1 .9-.9h9a.9.9 0 1 1 0 1.8h-9a.9.9 0 0 1-.9-.9Zm-1.964 3.864a.9.9 0 0 1 0 1.272l-2.5 2.5a.9.9 0 0 1-1.273 0l-1.5-1.5a.9.9 0 1 1 1.273-1.273l.864.864 1.863-1.864a.9.9 0 0 1 1.273 0ZM10.1 18a.9.9 0 0 1 .9-.9h9a.9.9 0 1 1 0 1.8h-9a.9.9 0 0 1-.9-.9Z"
        clip-rule="evenodd"
      />
    </symbol>
    <symbol viewBox="0 0 24 24" id="lp-icon-chevron-down">
      <path
        fill-rule="evenodd"
        d="M5.364 8.363a.9.9 0 0 1 1.273 0l5.364 5.364 5.363-5.364a.9.9 0 0 1 1.273 1.273l-6 6a.9.9 0 0 1-1.273 0l-6-6a.9.9 0 0 1 0-1.273Z"
        clip-rule="evenodd"
      />
    </symbol>
    <symbol viewBox="0 0 24 24" id="lp-icon-chevron-left">
      <path
        fill-rule="evenodd"
        d="M15.637 5.363a.9.9 0 0 1 0 1.273L10.273 12l5.364 5.363a.9.9 0 1 1-1.273 1.273l-6-6a.9.9 0 0 1 0-1.272l6-6a.9.9 0 0 1 1.273 0Z"
        clip-rule="evenodd"
      />
    </symbol>
    <symbol viewBox="0 0 24 24" id="lp-icon-chevron-right">
      <path
        fill-rule="evenodd"
        d="M8.364 5.363a.9.9 0 0 1 1.273 0l6 6a.9.9 0 0 1 0 1.273l-6 6a.9.9 0 1 1-1.273-1.273L13.728 12 8.364 6.636a.9.9 0 0 1 0-1.273Z"
        clip-rule="evenodd"
      />
    </symbol>
    <symbol viewBox="0 0 24 24" id="lp-icon-chevron-up">
      <path
        fill-rule="evenodd"
        d="M11.364 8.363a.9.9 0 0 1 1.273 0l6 6a.9.9 0 1 1-1.273 1.273l-5.363-5.363-5.364 5.363a.9.9 0 1 1-1.273-1.272l6-6Z"
        clip-rule="evenodd"
      />
    </symbol>
    <symbol viewBox="0 0 24 24" id="lp-icon-circle">
      <path
        fill-rule="evenodd"
        d="M8.212 2.853a9.9 9.9 0 1 1 7.577 18.293A9.9 9.9 0 0 1 8.212 2.853Z"
        clip-rule="evenodd"
      />
    </symbol>
    <symbol viewBox="0 0 24 24" id="lp-icon-circle-dashed">
      <path
        fill-rule="evenodd"
        d="M11.1 2.998a.9.9 0 0 1 .902-.898 9.9 9.9 0 0 1 3.784.759.9.9 0 0 1-.691 1.662 8.1 8.1 0 0 0-3.096-.621.9.9 0 0 1-.898-.902Zm-1.708.348a.9.9 0 0 1-.488 1.175 8.1 8.1 0 0 0-2.628 1.755.9.9 0 0 1-1.272-1.273 9.9 9.9 0 0 1 3.212-2.145.9.9 0 0 1 1.176.488Zm8.333 1.657a.9.9 0 0 1 1.272 0 9.9 9.9 0 0 1 2.145 3.213.9.9 0 0 1-1.663.688 8.101 8.101 0 0 0-1.755-2.628.9.9 0 0 1 0-1.273ZM4.036 7.73a.9.9 0 0 1 .486 1.177A8.1 8.1 0 0 0 3.9 12a.9.9 0 1 1-1.8-.003 9.9 9.9 0 0 1 .759-3.784.9.9 0 0 1 1.176-.485Zm16.966 3.37a.9.9 0 0 1 .898.902 9.904 9.904 0 0 1-.759 3.785.9.9 0 0 1-1.662-.692 8.1 8.1 0 0 0 .621-3.096.9.9 0 0 1 .902-.898ZM3.347 14.61a.9.9 0 0 1 1.176.487 8.1 8.1 0 0 0 1.755 2.628.9.9 0 1 1-1.274 1.272 9.9 9.9 0 0 1-2.145-3.212.9.9 0 0 1 .488-1.176Zm15.65 3.115a.9.9 0 0 1 0 1.273 9.899 9.899 0 0 1-3.212 2.145.9.9 0 0 1-.688-1.664 8.1 8.1 0 0 0 2.628-1.755.9.9 0 0 1 1.273 0ZM7.73 19.964a.9.9 0 0 1 1.177-.485 8.1 8.1 0 0 0 3.096.62.9.9 0 0 1-.003 1.8 9.9 9.9 0 0 1-3.784-.758.9.9 0 0 1-.486-1.177Z"
        clip-rule="evenodd"
      />
    </symbol>
    <symbol viewBox="0 0 24 24" id="lp-icon-circle-outline">
      <path
        fill-rule="evenodd"
        d="M8.212 2.853a9.9 9.9 0 1 1 7.577 18.293A9.9 9.9 0 0 1 8.212 2.853ZM12.001 3.9a8.1 8.1 0 1 0 0 16.2 8.1 8.1 0 0 0 0-16.2Z"
        clip-rule="evenodd"
      />
    </symbol>
    <symbol viewBox="0 0 24 24" id="lp-icon-click">
      <path
        fill-rule="evenodd"
        d="M12 2.1a.9.9 0 0 1 .9.9v3a.9.9 0 0 1-1.8 0V3a.9.9 0 0 1 .9-.9ZM4.965 4.964a.9.9 0 0 1 1.273 0l2.2 2.2a.9.9 0 0 1-1.273 1.272l-2.2-2.2a.9.9 0 0 1 0-1.272Zm14.073 0a.9.9 0 0 1 0 1.272l-2.2 2.2a.9.9 0 0 1-1.273-1.272l2.2-2.2a.9.9 0 0 1 1.273 0ZM2.101 12a.9.9 0 0 1 .9-.9h3a.9.9 0 1 1 0 1.8H3a.9.9 0 0 1-.9-.9Zm6.336 3.563a.9.9 0 0 1 0 1.273l-2.2 2.2a.9.9 0 1 1-1.273-1.273l2.2-2.2a.9.9 0 0 1 1.273 0Z"
        clip-rule="evenodd"
      />
      <path
        d="M12.285 11.146a.9.9 0 0 0-1.138 1.138l3 9a.9.9 0 0 0 1.659.118l1.441-2.883 3.117 3.117a.9.9 0 0 0 1.273-1.273l-2.6-3.375 2.366-1.183a.9.9 0 0 0-.118-1.659l-9-3Z"
      />
    </symbol>
    <symbol viewBox="0 0 24 24" id="lp-icon-clipboard-edit">
      <path
        fill-rule="evenodd"
        d="M11 3.9a1.1 1.1 0 0 0 0 2.2h2a1.1 1.1 0 0 0 0-2.2h-2Zm-2.051-.95a2.9 2.9 0 0 1 2.05-.85h2a2.9 2.9 0 0 1 2.757 2H17A2.9 2.9 0 0 1 19.9 7v4a.9.9 0 1 1-1.8 0V7A1.1 1.1 0 0 0 17 5.9h-1.244A2.9 2.9 0 0 1 13 7.9h-2a2.9 2.9 0 0 1-2.757-2H7A1.1 1.1 0 0 0 5.9 7v12A1.1 1.1 0 0 0 7 20.1h2a.9.9 0 1 1 0 1.8H7A2.9 2.9 0 0 1 4.1 19V7A2.9 2.9 0 0 1 7 4.1h1.243a2.9 2.9 0 0 1 .706-1.15Zm8.956 12.945a1.2 1.2 0 0 0-.849.352l-.003.002-3.153 3.126V21.1h1.724l3.126-3.154.003-.002a1.2 1.2 0 0 0-.848-2.049Zm-1.149-1.572a3.001 3.001 0 0 1 3.271 4.892l-.001.002-3.387 3.417a.9.9 0 0 1-.64.266h-3a.9.9 0 0 1-.9-.9v-3a.9.9 0 0 1 .267-.64l3.417-3.386.002-.002a3 3 0 0 1 .971-.649Z"
        clip-rule="evenodd"
      />
    </symbol>
    <symbol viewBox="0 0 24 24" id="lp-icon-clock">
      <path
        fill-rule="evenodd"
        d="M5 5a9.9 9.9 0 1 1 14.001 14 9.9 9.9 0 0 1-14-14Zm7-1.1a8.1 8.1 0 1 0 0 16.2 8.1 8.1 0 0 0 0-16.2Zm0 2.2a.9.9 0 0 1 .9.9v4.627l2.737 2.736a.9.9 0 1 1-1.273 1.273l-3-3a.9.9 0 0 1-.263-.636V7a.9.9 0 0 1 .9-.9Z"
        clip-rule="evenodd"
      />
    </symbol>
    <symbol viewBox="0 0 24 24" id="lp-icon-clock-alert">
      <path
        fill-rule="evenodd"
        d="M9.174 2.514a9.9 9.9 0 0 1 12.711 10.038.9.9 0 0 1-1.797-.1 8.1 8.1 0 1 0-5.376 7.182.9.9 0 0 1 .603 1.696A9.9 9.9 0 1 1 9.174 2.514ZM12 6.1a.9.9 0 0 1 .9.9v4.627l2.736 2.736a.9.9 0 1 1-1.273 1.273l-3-3A.9.9 0 0 1 11.1 12V7a.9.9 0 0 1 .9-.9Zm7 9a.9.9 0 0 1 .9.9v3a.9.9 0 0 1-1.8 0v-3a.9.9 0 0 1 .9-.9Zm0 5.85c.58 0 1.05.47 1.05 1.05v.01a1.05 1.05 0 1 1-2.1 0V22c0-.58.47-1.05 1.05-1.05Z"
        clip-rule="evenodd"
      />
    </symbol>
    <symbol viewBox="0 0 24 24" id="lp-icon-code-circle">
      <path
        fill-rule="evenodd"
        d="M8.212 2.853a9.9 9.9 0 1 1 7.577 18.293A9.9 9.9 0 0 1 8.212 2.853Zm2.425 6.51a.9.9 0 0 1 0 1.273L9.273 12l1.364 1.364a.9.9 0 1 1-1.273 1.272l-2-2a.9.9 0 0 1 0-1.272l2-2a.9.9 0 0 1 1.273 0Zm2.727 0a.9.9 0 0 1 1.273 0l2 2a.9.9 0 0 1 0 1.273l-2 2a.9.9 0 1 1-1.273-1.272L14.728 12l-1.364-1.364a.9.9 0 0 1 0-1.273Z"
        clip-rule="evenodd"
      />
    </symbol>
    <symbol viewBox="0 0 24 24" id="lp-icon-code-circle-outline">
      <path
        fill-rule="evenodd"
        d="M8.212 2.853a9.9 9.9 0 1 1 7.577 18.293A9.9 9.9 0 0 1 8.212 2.853ZM12.001 3.9a8.1 8.1 0 1 0 0 16.2 8.1 8.1 0 0 0 0-16.2Zm-1.364 5.463a.9.9 0 0 1 0 1.273L9.273 12l1.364 1.364a.9.9 0 1 1-1.273 1.272l-2-2a.9.9 0 0 1 0-1.272l2-2a.9.9 0 0 1 1.273 0Zm2.727 0a.9.9 0 0 1 1.273 0l2 2a.9.9 0 0 1 0 1.273l-2 2a.9.9 0 1 1-1.273-1.272L14.728 12l-1.364-1.364a.9.9 0 0 1 0-1.273Z"
        clip-rule="evenodd"
      />
    </symbol>
    <symbol viewBox="0 0 24 24" id="lp-icon-connect">
      <path
        fill-rule="evenodd"
        d="M19 2.1a2.9 2.9 0 0 0-2.756 2H7.5a4.4 4.4 0 1 0 0 8.8h1.743a2.9 2.9 0 0 0 5.513 0H16.5a2.6 2.6 0 0 1 0 5.2H7.757a2.9 2.9 0 1 0 0 1.8h8.744a4.4 4.4 0 0 0 0-8.8h-1.744a2.9 2.9 0 0 0-5.513 0H7.5a2.6 2.6 0 0 1 0-5.2h8.743A2.9 2.9 0 1 0 19 2.1Zm0 1.8a1.1 1.1 0 1 0 0 2.2 1.1 1.1 0 0 0 0-2.2Zm-14 14a1.1 1.1 0 1 0 0 2.2 1.1 1.1 0 0 0 0-2.2Z"
        clip-rule="evenodd"
      />
    </symbol>
    <symbol viewBox="0 0 24 24" id="lp-icon-copy-clipboard">
      <path
        fill-rule="evenodd"
        d="M11 3.9a1.1 1.1 0 0 0 0 2.2h2a1.1 1.1 0 0 0 0-2.2h-2Zm-2.051-.95a2.9 2.9 0 0 1 2.05-.85h2a2.9 2.9 0 0 1 2.757 2H17A2.9 2.9 0 0 1 19.9 7v3a.9.9 0 1 1-1.8 0V7A1.1 1.1 0 0 0 17 5.9h-1.244A2.9 2.9 0 0 1 13 7.9h-2a2.9 2.9 0 0 1-2.757-2H7A1.1 1.1 0 0 0 5.9 7v12A1.1 1.1 0 0 0 7 20.1h10a1.1 1.1 0 0 0 1.1-1.1v-1a.9.9 0 0 1 1.8 0v1a2.9 2.9 0 0 1-2.9 2.9H7A2.9 2.9 0 0 1 4.1 19V7A2.9 2.9 0 0 1 7 4.1h1.243a2.9 2.9 0 0 1 .706-1.15Zm4.687 7.414a.9.9 0 0 1 0 1.272L12.172 13.1H19a.9.9 0 1 1 0 1.8h-6.828l1.464 1.463a.9.9 0 1 1-1.273 1.273l-3-3a.9.9 0 0 1 0-1.272l3-3a.9.9 0 0 1 1.273 0Z"
        clip-rule="evenodd"
      />
    </symbol>
    <symbol viewBox="0 0 24 24" id="lp-icon-copy-code">
      <path
        fill-rule="evenodd"
        d="M11 3.9a1.1 1.1 0 0 0 0 2.2h2a1.1 1.1 0 0 0 0-2.2h-2Zm-2.051-.95a2.9 2.9 0 0 1 2.05-.85h2a2.9 2.9 0 0 1 2.757 2H17A2.9 2.9 0 0 1 19.9 7v5a.9.9 0 1 1-1.8 0V7A1.1 1.1 0 0 0 17 5.9h-1.244A2.9 2.9 0 0 1 13 7.9h-2a2.9 2.9 0 0 1-2.757-2H7A1.1 1.1 0 0 0 5.9 7v12A1.1 1.1 0 0 0 7 20.1h3a.9.9 0 1 1 0 1.8H7A2.9 2.9 0 0 1 4.1 19V7A2.9 2.9 0 0 1 7 4.1h1.243a2.9 2.9 0 0 1 .706-1.15Zm7.267 12.423a.9.9 0 0 1-.018 1.272L14.291 18.5l1.907 1.855a.9.9 0 0 1-1.254 1.29l-2.572-2.5a.9.9 0 0 1 0-1.29l2.572-2.5a.9.9 0 0 1 1.272.018Zm2.567 0a.9.9 0 0 1 1.273-.018l2.571 2.5a.9.9 0 0 1 0 1.29l-2.571 2.5a.9.9 0 1 1-1.255-1.29l1.908-1.855-1.908-1.855a.9.9 0 0 1-.018-1.272Z"
        clip-rule="evenodd"
      />
    </symbol>
    <symbol viewBox="0 0 24 24" id="lp-icon-copy-content">
      <path
        fill-rule="evenodd"
        d="M3.949 3.95a2.9 2.9 0 0 1 2.05-.85h8A2.9 2.9 0 0 1 16.9 6v1.1H18a2.9 2.9 0 0 1 2.9 2.9v8a2.9 2.9 0 0 1-2.9 2.9h-8A2.9 2.9 0 0 1 7.1 18v-1.1H6A2.9 2.9 0 0 1 3.1 14V6a2.9 2.9 0 0 1 .85-2.05ZM8.899 18a1.1 1.1 0 0 0 1.1 1.1h8a1.1 1.1 0 0 0 1.1-1.1v-8A1.1 1.1 0 0 0 18 8.9h-8A1.1 1.1 0 0 0 8.9 10v8Zm6.2-10.9H10A2.9 2.9 0 0 0 7.1 10v5.1H6A1.1 1.1 0 0 1 4.9 14V6A1.1 1.1 0 0 1 6 4.9h8A1.1 1.1 0 0 1 15.1 6v1.1Z"
        clip-rule="evenodd"
      />
    </symbol>
    <symbol viewBox="0 0 24 24" id="lp-icon-credit-card">
      <path
        fill-rule="evenodd"
        d="M6 5.9A2.1 2.1 0 0 0 3.9 8v1.1h16.2V8A2.1 2.1 0 0 0 18 5.9H6ZM21.9 8A3.9 3.9 0 0 0 18 4.1H6A3.9 3.9 0 0 0 2.1 8v8A3.9 3.9 0 0 0 6 19.9h12a3.9 3.9 0 0 0 3.9-3.9V8Zm-1.8 2.9H3.9V16A2.1 2.1 0 0 0 6 18.1h12a2.1 2.1 0 0 0 2.1-2.1v-5.1ZM6.1 15a.9.9 0 0 1 .9-.9h.01a.9.9 0 1 1 0 1.8H7a.9.9 0 0 1-.9-.9Zm4 0a.9.9 0 0 1 .9-.9h2a.9.9 0 0 1 0 1.8h-2a.9.9 0 0 1-.9-.9Z"
        clip-rule="evenodd"
      />
    </symbol>
    <symbol viewBox="0 0 24 24" id="lp-icon-delete">
      <path
        fill-rule="evenodd"
        d="M10 3.9a.1.1 0 0 0-.1.1v2.1h4.2V4a.1.1 0 0 0-.1-.1h-4Zm5.9 2.2V4A1.9 1.9 0 0 0 14 2.1h-4A1.9 1.9 0 0 0 8.1 4v2.1H4a.9.9 0 0 0 0 1.8h.171L5.1 19.04A2.9 2.9 0 0 0 8 21.9h8a2.9 2.9 0 0 0 2.9-2.86l.928-11.14H20a.9.9 0 1 0 0-1.8h-4.101ZM5.978 7.9l.918 11.025c.003.025.004.05.004.075A1.1 1.1 0 0 0 8 20.1h8a1.1 1.1 0 0 0 1.1-1.1c0-.025 0-.05.003-.075L18.02 7.9H5.979ZM10 10.1a.9.9 0 0 1 .9.9v6a.9.9 0 0 1-1.8 0v-6a.9.9 0 0 1 .9-.9Zm4 0a.9.9 0 0 1 .9.9v6a.9.9 0 0 1-1.8 0v-6a.9.9 0 0 1 .9-.9Z"
        clip-rule="evenodd"
      />
    </symbol>
    <symbol viewBox="0 0 24 24" id="lp-icon-dependency">
      <path
        fill-rule="evenodd"
        d="M20.051 4.95a2.9 2.9 0 1 1-4.807 2.95H14A1.1 1.1 0 0 0 12.9 9v6a1.1 1.1 0 0 0 1.1 1.1h1.244a2.9 2.9 0 1 1 0 1.8H14a2.9 2.9 0 0 1-2.9-2.9v-2.1H8.757a2.9 2.9 0 1 1 0-1.8H11.1V9A2.9 2.9 0 0 1 14 6.1h1.244a2.9 2.9 0 0 1 4.807-1.15ZM19.101 7a1.1 1.1 0 1 0-2.2 0 1.1 1.1 0 0 0 2.2 0Zm0 10a1.1 1.1 0 1 0-2.2 0 1.1 1.1 0 0 0 2.2 0Zm-12-5a1.1 1.1 0 1 0-2.2 0 1.1 1.1 0 0 0 2.2 0Z"
        clip-rule="evenodd"
      />
    </symbol>
    <symbol viewBox="0 0 24 24" id="lp-icon-device-desktop">
      <path
        fill-rule="evenodd"
        d="M4 3.9a.1.1 0 0 0-.1.1v10.1h16.2V4a.1.1 0 0 0-.1-.1H4Zm17.9.1A1.9 1.9 0 0 0 20 2.1H4A1.9 1.9 0 0 0 2.1 4v12A1.9 1.9 0 0 0 4 17.9h4.981l-.275 2.2h-.705a.9.9 0 1 0 0 1.8h8a.9.9 0 0 0 0-1.8h-.706l-.275-2.2H20a1.9 1.9 0 0 0 1.9-1.9V4Z"
        clip-rule="evenodd"
      />
    </symbol>
    <symbol viewBox="0 0 24 24" id="lp-icon-device-mobile">
      <path
        fill-rule="evenodd"
        d="M8 3.9A1.1 1.1 0 0 0 6.9 5v14A1.1 1.1 0 0 0 8 20.1h8a1.1 1.1 0 0 0 1.1-1.1V5A1.1 1.1 0 0 0 16 3.9h-2.105a.9.9 0 0 1-.894 1h-2a.9.9 0 0 1-.895-1H8.001Zm-2.05-.95A2.9 2.9 0 0 1 8 2.1h8A2.9 2.9 0 0 1 18.9 5v14a2.9 2.9 0 0 1-2.9 2.9H8A2.9 2.9 0 0 1 5.1 19V5a2.9 2.9 0 0 1 .85-2.05ZM12 16.1a.9.9 0 0 1 .9.9v.01a.9.9 0 0 1-1.8 0V17a.9.9 0 0 1 .9-.9Z"
        clip-rule="evenodd"
      />
    </symbol>
    <symbol viewBox="0 0 24 24" id="lp-icon-device-server">
      <path
        fill-rule="evenodd"
        d="M6 4.9A2.1 2.1 0 0 0 3.9 7v2A2.1 2.1 0 0 0 6 11.1h12A2.1 2.1 0 0 0 20.1 9V7A2.1 2.1 0 0 0 18 4.9H6ZM20.494 12A3.9 3.9 0 0 0 21.9 9V7A3.9 3.9 0 0 0 18 3.1H6A3.9 3.9 0 0 0 2.1 7v2a3.9 3.9 0 0 0 1.408 3A3.9 3.9 0 0 0 2.1 15v2A3.9 3.9 0 0 0 6 20.9h12a3.9 3.9 0 0 0 3.9-3.9v-2a3.9 3.9 0 0 0-1.408-3ZM6 12.9A2.1 2.1 0 0 0 3.9 15v2A2.1 2.1 0 0 0 6 19.1h12a2.1 2.1 0 0 0 2.1-2.1v-2a2.1 2.1 0 0 0-2.1-2.1H6Zm1-5.8a.9.9 0 0 1 .9.9v.01a.9.9 0 0 1-1.8 0V8a.9.9 0 0 1 .9-.9Zm3.1.9a.9.9 0 0 1 .9-.9h6a.9.9 0 0 1 0 1.8h-6a.9.9 0 0 1-.9-.9ZM7 15.1a.9.9 0 0 1 .9.9v.01a.9.9 0 1 1-1.8 0V16a.9.9 0 0 1 .9-.9Zm3.1.9a.9.9 0 0 1 .9-.9h6a.9.9 0 0 1 0 1.8h-6a.9.9 0 0 1-.9-.9Z"
        clip-rule="evenodd"
      />
    </symbol>
    <symbol viewBox="0 0 24 24" id="lp-icon-devices">
      <path
        fill-rule="evenodd"
        d="M4.156 3.657A1.9 1.9 0 0 1 5.5 3.1h13A1.9 1.9 0 0 1 20.4 5v2.1h.1A1.9 1.9 0 0 1 22.4 9v10a1.9 1.9 0 0 1-1.9 1.9h-6a1.9 1.9 0 0 1-1.9-1.9v-.1H2.5a.9.9 0 1 1 0-1.8h1.102A1.901 1.901 0 0 1 3.6 17V5c0-.504.2-.987.556-1.343ZM5.5 17.1h7.1V9a1.9 1.9 0 0 1 1.9-1.9h4.1V5a.1.1 0 0 0-.1-.1h-13a.1.1 0 0 0-.1.1v12a.1.1 0 0 0 .1.1Zm10.105-8.2H14.5a.1.1 0 0 0-.1.1v10a.1.1 0 0 0 .1.1h6a.1.1 0 0 0 .1-.1V9a.1.1 0 0 0-.1-.1h-1.106a.9.9 0 0 1-.895 1h-2a.9.9 0 0 1-.894-1Z"
        clip-rule="evenodd"
      />
      <path d="M17.5 16.73a.9.9 0 0 1 .9.9v.01a.9.9 0 1 1-1.8 0v-.01a.9.9 0 0 1 .9-.9Z" />
    </symbol>
    <symbol viewBox="0 0 24 24" id="lp-icon-document-question">
      <path
        fill-rule="evenodd"
        d="M7 3.9A1.1 1.1 0 0 0 5.9 5v14A1.1 1.1 0 0 0 7 20.1h4.5a.9.9 0 1 1 0 1.8H7A2.9 2.9 0 0 1 4.1 19V5A2.9 2.9 0 0 1 7 2.1h7a.9.9 0 0 1 .636.264l5 5A.9.9 0 0 1 19.9 8v5a.9.9 0 1 1-1.8 0V8.9H15A1.9 1.9 0 0 1 13.1 7V3.9H7Zm8.446 10.256a2.88 2.88 0 0 1 1.878.261l.003.002a2.903 2.903 0 0 1-1.325 5.481.9.9 0 0 1-.005-1.8 1.103 1.103 0 0 0 .505-2.082 1.08 1.08 0 0 0-1.315.265.9.9 0 0 1-1.374-1.163 2.88 2.88 0 0 1 1.633-.964ZM16 20.95c.58 0 1.05.47 1.05 1.05v.01a1.05 1.05 0 1 1-2.1 0V22c0-.58.47-1.05 1.05-1.05Z"
        clip-rule="evenodd"
      />
    </symbol>
    <symbol viewBox="0 0 24 24" id="lp-icon-double-arrow-left">
      <path
        fill-rule="evenodd"
        d="M11.637 6.364a.9.9 0 0 1 0 1.272L7.273 12l4.364 4.364a.9.9 0 1 1-1.273 1.273l-5-5a.9.9 0 0 1 0-1.273l5-5a.9.9 0 0 1 1.273 0Zm6 0a.9.9 0 0 1 0 1.272L13.273 12l4.364 4.364a.9.9 0 1 1-1.273 1.273l-5-5a.9.9 0 0 1 0-1.273l5-5a.9.9 0 0 1 1.273 0Z"
        clip-rule="evenodd"
      />
    </symbol>
    <symbol viewBox="0 0 24 24" id="lp-icon-double-arrow-right">
      <path
        fill-rule="evenodd"
        d="M6.363 6.364a.9.9 0 0 1 1.273 0l5 5a.9.9 0 0 1 0 1.272l-5 5a.9.9 0 1 1-1.273-1.272L10.727 12 6.363 7.636a.9.9 0 0 1 0-1.272Zm6 0a.9.9 0 0 1 1.273 0l5 5a.9.9 0 0 1 0 1.272l-5 5a.9.9 0 1 1-1.273-1.272L16.727 12l-4.364-4.364a.9.9 0 0 1 0-1.272Z"
        clip-rule="evenodd"
      />
    </symbol>
    <symbol viewBox="0 0 24 24" id="lp-icon-download">
      <path
        fill-rule="evenodd"
        d="M12 3.1a.9.9 0 0 1 .9.9v9.827l3.463-3.463a.9.9 0 1 1 1.273 1.272l-5 5a.9.9 0 0 1-1.273 0l-5-5a.9.9 0 0 1 1.273-1.272l3.464 3.463V4a.9.9 0 0 1 .9-.9Zm-8 13a.9.9 0 0 1 .9.9v2A1.1 1.1 0 0 0 6 20.1h12a1.1 1.1 0 0 0 1.1-1.1v-2a.9.9 0 0 1 1.8 0v2a2.9 2.9 0 0 1-2.9 2.9H6A2.9 2.9 0 0 1 3.1 19v-2a.9.9 0 0 1 .9-.9Z"
        clip-rule="evenodd"
      />
    </symbol>
    <symbol viewBox="0 0 24 24" id="lp-icon-edit">
      <path
        fill-rule="evenodd"
        d="M15.073 4.055a3.729 3.729 0 0 1 4.063 6.081l-10.5 10.5A.9.9 0 0 1 8 20.9H4a.9.9 0 0 1-.9-.9v-4a.9.9 0 0 1 .263-.636l9.494-9.494.006-.007.006-.006.994-.993a3.72 3.72 0 0 1 1.21-.809ZM13.5 7.773l-8.6 8.6V19.1h2.727l8.6-8.6L13.5 7.773Z"
        clip-rule="evenodd"
      />
    </symbol>
    <symbol viewBox="0 0 24 24" id="lp-icon-edit-circle">
      <path
        fill-rule="evenodd"
        d="M12 2.1a9.9 9.9 0 1 0 0 19.8 9.9 9.9 0 0 0 0-19.8Zm1.643 5.557a2.066 2.066 0 0 1 2.252 3.37l-5.284 5.285a.643.643 0 0 1-.455.188H8.143a.643.643 0 0 1-.643-.643v-2.013c0-.17.068-.334.188-.454l5.285-5.285c.191-.192.42-.344.67-.448Z"
        clip-rule="evenodd"
      />
    </symbol>
    <symbol viewBox="0 0 24 24" id="lp-icon-equal-circle">
      <path
        fill-rule="evenodd"
        d="M12 2.1a9.9 9.9 0 1 0 0 19.8 9.9 9.9 0 0 0 0-19.8ZM8.4 9a.9.9 0 1 0 0 1.8h7.2a.9.9 0 1 0 0-1.8H8.4Zm-.9 5.1a.9.9 0 0 1 .9-.9h7.2a.9.9 0 1 1 0 1.8H8.4a.9.9 0 0 1-.9-.9Z"
        clip-rule="evenodd"
      />
    </symbol>
    <symbol viewBox="0 0 24 24" id="lp-icon-extension">
      <path
        fill-rule="evenodd"
        d="M7.95 2.95A2.9 2.9 0 0 1 12.9 5v1a.1.1 0 0 0 .1.1h3A1.9 1.9 0 0 1 17.9 8v3a.1.1 0 0 0 .1.1h1a2.9 2.9 0 0 1 0 5.8h-1a.1.1 0 0 0-.1.1v3a1.9 1.9 0 0 1-1.9 1.9h-3a1.9 1.9 0 0 1-1.9-1.9v-1a1.1 1.1 0 1 0-2.2 0v1A1.9 1.9 0 0 1 7 21.9H4A1.9 1.9 0 0 1 2.1 20v-3A1.9 1.9 0 0 1 4 15.1h1a1.1 1.1 0 0 0 0-2.2H4A1.9 1.9 0 0 1 2.1 11V8A1.9 1.9 0 0 1 4 6.1h3a.1.1 0 0 0 .1-.1V5a2.9 2.9 0 0 1 .85-2.05Z"
        clip-rule="evenodd"
      />
    </symbol>
    <symbol viewBox="0 0 24 24" id="lp-icon-experiment">
      <path
        d="M9.33333 11.31C10.1933 8.1 11.5 5.33333 13 5.33333C14.5 5.33333 15.8067 8.1 16.6667 11.31C17.6267 14.92 18.1 18.6667 22 18.6667V17C19.8 17 19 14.54 17.97 10.8C17.08 7.46 16.15 4 13 4C9.85 4 8.92 7.46 8.03 10.8C7.03 14.54 5.53333 17 3.33333 17V2H2V22H22V20.6667H3.33333V18.6667C7.23333 18.6667 8.37333 14.92 9.33333 11.31Z"
      />
    </symbol>
    <symbol viewBox="0 0 24 24" id="lp-icon-filter">
      <path
        fill-rule="evenodd"
        d="M3.18 4.627A.9.9 0 0 1 4 4.1h16a.9.9 0 0 1 .679 1.49l-6.18 7.104V19a.9.9 0 0 1-1.293.81l-3.2-1.556a.9.9 0 0 1-.506-.81v-4.75L3.32 5.591a.9.9 0 0 1-.14-.964Z"
        clip-rule="evenodd"
      />
    </symbol>
    <symbol viewBox="0 0 24 24" id="lp-icon-filter-list">
      <path
        fill-rule="evenodd"
        d="M3 8a.9.9 0 0 1 .9-.9h16.2a.9.9 0 1 1 0 1.8H3.9A.9.9 0 0 1 3 8Z"
        clip-rule="evenodd"
      />
      <path
        d="M9 16a.9.9 0 0 1 .9-.9h4.2a.9.9 0 1 1 0 1.8H9.9A.9.9 0 0 1 9 16Zm-3-4a.9.9 0 0 1 .9-.9h10.35a.9.9 0 0 1 0 1.8H6.9A.9.9 0 0 1 6 12Z"
      />
    </symbol>
    <symbol viewBox="0 0 24 24" id="lp-icon-filter-tune">
      <path
        fill-rule="evenodd"
        d="M20.9 6a.9.9 0 0 1-.9.9h-3.1V8a.9.9 0 0 1-.9.9h-4a.9.9 0 0 1-.9-.9V6.9H4a.9.9 0 0 1 0-1.8h7.1V4a.9.9 0 0 1 .9-.9h4a.9.9 0 0 1 .9.9v1.1H20a.9.9 0 0 1 .9.9Zm-5.8-1.1h-2.2v2.2h2.2V4.9Zm5.8 7.1a.9.9 0 0 1-.9.9h-9.1V14a.9.9 0 0 1-.9.9H6a.9.9 0 0 1-.9-.9v-1.1H4a.9.9 0 1 1 0-1.8h1.1V10a.9.9 0 0 1 .9-.9h4a.9.9 0 0 1 .9.9v1.1H20a.9.9 0 0 1 .9.9Zm0 6a.9.9 0 0 1-.9.9h-.1V20a.9.9 0 0 1-.9.9h-4a.9.9 0 0 1-.9-.9v-1.1H4a.9.9 0 1 1 0-1.8h10.1V16a.9.9 0 0 1 .9-.9h4a.9.9 0 0 1 .9.9v1.1h.1a.9.9 0 0 1 .9.9Zm-2.8-1.1h-2.2v2.2h2.2v-2.2Z"
        clip-rule="evenodd"
      />
    </symbol>
    <symbol viewBox="0 0 24 24" id="lp-icon-fingerprint">
      <path
        fill-rule="evenodd"
        d="M18.436 6.229a.9.9 0 0 1 1.235.306 8.9 8.9 0 0 1 1.229 5.512V13a5.104 5.104 0 0 0 .68 2.55.9.9 0 1 1-1.56.899 6.901 6.901 0 0 1-.92-3.45v-1a.89.89 0 0 1 .005-.097 7.1 7.1 0 0 0-.976-4.438.9.9 0 0 1 .307-1.235ZM12 7.9A3.1 3.1 0 0 0 8.9 11a.9.9 0 1 1-1.8 0 4.9 4.9 0 1 1 9.8 0v1a9.1 9.1 0 0 0 1.82 5.46.9.9 0 1 1-1.44 1.08A10.9 10.9 0 0 1 15.1 12v-1A3.1 3.1 0 0 0 12 7.9Z"
        clip-rule="evenodd"
      />
      <path
        fill-rule="evenodd"
        d="M12 10.1a.9.9 0 0 1 .9.9v2a13.1 13.1 0 0 0 2.34 7.486.9.9 0 1 1-1.48 1.027 14.9 14.9 0 0 1-2.66-8.514v-2a.9.9 0 0 1 .9-.9Zm-4.105 4.006a.9.9 0 0 1 .999.789 17.1 17.1 0 0 0 1.71 5.7.9.9 0 1 1-1.608.81 18.9 18.9 0 0 1-1.89-6.3.9.9 0 0 1 .79-1Z"
        clip-rule="evenodd"
      />
      <path
        fill-rule="evenodd"
        d="M15.55 4.83A7.1 7.1 0 0 0 4.9 10.996v1.033a21.1 21.1 0 0 0 .863 6.713.9.9 0 0 1-1.726.513 22.9 22.9 0 0 1-.937-7.271V11a8.9 8.9 0 0 1 13.35-7.73.9.9 0 1 1-.9 1.558Z"
        clip-rule="evenodd"
      />
    </symbol>
    <symbol viewBox="0 0 24 24" id="lp-icon-flag">
      <path
        fill-rule="evenodd"
        d="M5.9 14.4a4.1 4.1 0 0 1 5.47.243 5.9 5.9 0 0 0 8.26 0A.9.9 0 0 0 19.9 14V5a.9.9 0 0 0-1.53-.643 4.1 4.1 0 0 1-5.74 0 5.9 5.9 0 0 0-8.26 0A.9.9 0 0 0 4.1 5v16a.9.9 0 1 0 1.8 0v-6.6Z"
        clip-rule="evenodd"
      />
    </symbol>
    <symbol viewBox="0 0 24 24" id="lp-icon-flag-outline">
      <path
        fill-rule="evenodd"
        d="M5.9 5.4v6.875a5.899 5.899 0 0 1 6.73 1.082 4.1 4.1 0 0 0 5.47.243V6.726a5.9 5.9 0 0 1-6.73-1.083A4.1 4.1 0 0 0 5.9 5.4Zm0 9a4.1 4.1 0 0 1 5.47.243 5.9 5.9 0 0 0 8.26 0A.9.9 0 0 0 19.9 14V5a.9.9 0 0 0-1.53-.643 4.1 4.1 0 0 1-5.74 0 5.9 5.9 0 0 0-8.26 0A.9.9 0 0 0 4.1 5v16a.9.9 0 1 0 1.8 0v-6.6Z"
        clip-rule="evenodd"
      />
    </symbol>
    <symbol viewBox="0 0 24 24" id="lp-icon-flask">
      <path
        fill-rule="evenodd"
        d="M8.1 3a.9.9 0 0 1 .9-.9h6a.9.9 0 1 1 0 1.8h-.1v4.942l3.932 10.813a1.601 1.601 0 0 1-1.168 2.23.901.901 0 0 1-.164.015h-11a.9.9 0 0 1-.163-.015 1.601 1.601 0 0 1-1.169-2.23L9.1 8.842V3.9H9a.9.9 0 0 1-.9-.9Zm2.8.9V9a.898.898 0 0 1-.055.308l-1.88 5.172c.785-.118 1.76-.349 2.633-.785a10.812 10.812 0 0 1 2.803-.954h.001l-1.248-3.433A.9.9 0 0 1 13.1 9V3.9h-2.2Z"
        clip-rule="evenodd"
      />
    </symbol>
    <symbol viewBox="0 0 24 24" id="lp-icon-forward">
      <path
        fill-rule="evenodd"
        d="M13.302 5.03a1.569 1.569 0 0 0-1.874 1.537v2.716h-6.86A1.569 1.569 0 0 0 3 10.85v2.3c0 .35.165.814.46 1.108.293.294.692.46 1.108.46h6.86v2.715a1.567 1.567 0 0 0 2.677 1.108l5.436-5.433a1.567 1.567 0 0 0 0-2.216l-5.436-5.433a1.568 1.568 0 0 0-.803-.429Z"
        clip-rule="evenodd"
      />
    </symbol>
    <symbol viewBox="0 0 24 24" id="lp-icon-gear">
      <path
        d="M14.62 4.16a.716.716 0 0 0 1.07.444c2.414-1.47 5.177 1.292 3.707 3.706a.717.717 0 0 0 .442 1.07c2.747.666 2.747 4.573 0 5.24a.716.716 0 0 0-.443 1.07c1.47 2.414-1.292 5.177-3.707 3.707a.717.717 0 0 0-1.069.443c-.666 2.747-4.574 2.747-5.24 0a.716.716 0 0 0-1.07-.444c-2.415 1.47-5.178-1.292-3.707-3.707a.717.717 0 0 0-.443-1.069c-2.747-.666-2.747-4.573 0-5.24a.717.717 0 0 0 .444-1.07C3.134 5.896 5.895 3.133 8.31 4.603a.715.715 0 0 0 1.07-.443c.665-2.747 4.573-2.747 5.24 0ZM12 9.03a2.97 2.97 0 1 0 0 5.94 2.97 2.97 0 0 0 0-5.94Z"
      />
    </symbol>
    <symbol viewBox="0 0 24 24" id="lp-icon-group">
      <path
        fill-rule="evenodd"
        d="M15.1 5a.9.9 0 0 1 .9-.9 4.9 4.9 0 0 1 3.068 8.72A6.894 6.894 0 0 1 22.9 19a.9.9 0 1 1-1.8 0 5.1 5.1 0 0 0-5.1-5.1.9.9 0 0 1 0-1.8 3.1 3.1 0 1 0 0-6.2.9.9 0 0 1-.9-.9Zm-.2 14a6.9 6.9 0 0 0-3.831-6.18 4.9 4.9 0 1 0-6.138 0A6.898 6.898 0 0 0 1.1 19a.9.9 0 1 0 1.8 0 5.1 5.1 0 1 1 10.2 0 .9.9 0 0 0 1.8 0ZM8 5.9a3.1 3.1 0 1 0 0 6.2 3.1 3.1 0 0 0 0-6.2Z"
        clip-rule="evenodd"
      />
    </symbol>
    <symbol viewBox="0 0 24 24" id="lp-icon-half-circle">
      <path
        fill-rule="evenodd"
        d="M12 2.1a9.9 9.9 0 1 0 0 19.8 9.9 9.9 0 0 0 0-19.8Zm0 1.8A8.1 8.1 0 0 0 3.9 12h16.2A8.1 8.1 0 0 0 12 3.9Z"
        clip-rule="evenodd"
      />
    </symbol>
    <symbol viewBox="0 0 24 24" id="lp-icon-help">
      <path
        fill-rule="evenodd"
        d="M11.5 5.9c-.73 0-1.409.25-1.89.662-.476.408-.71.93-.71 1.438a.9.9 0 0 1-1.8 0c0-1.083.503-2.088 1.339-2.805.832-.713 1.935-1.095 3.06-1.095h1c1.127 0 2.23.382 3.061 1.095.83.712 1.332 1.706 1.34 2.78a3.9 3.9 0 0 1-2.552 3.856c-.385.192-.764.567-1.044 1.126a4.141 4.141 0 0 0-.405 2.005.9.9 0 1 1-1.799.076c-.042-1.006.16-2.018.594-2.886.433-.866 1.093-1.578 1.924-1.967a.865.865 0 0 1 .083-.034 2.1 2.1 0 0 0 1.399-2.15c0-.51-.235-1.03-.711-1.439-.48-.412-1.159-.662-1.89-.662h-1Zm.5 12.05c.58 0 1.05.47 1.05 1.05v.01a1.05 1.05 0 1 1-2.1 0V19c0-.58.47-1.05 1.05-1.05Z"
        clip-rule="evenodd"
      />
    </symbol>
    <symbol viewBox="0 0 24 24" id="lp-icon-help-circle">
      <path
        fill-rule="evenodd"
        d="M12 2.1a9.9 9.9 0 1 0 0 19.8 9.9 9.9 0 0 0 0-19.8Zm.082 3.971a3.5 3.5 0 0 0-2.798 1.385.9.9 0 0 0 1.434 1.088 1.7 1.7 0 1 1 1.97 2.612 2.4 2.4 0 0 0-1.586 2.395.9.9 0 1 0 1.797-.102.6.6 0 0 1 .4-.6l.009-.003.014-.006a3.501 3.501 0 0 0-1.24-6.769ZM12 15.95c.58 0 1.05.47 1.05 1.05v.01a1.05 1.05 0 1 1-2.1 0V17c0-.58.47-1.05 1.05-1.05Z"
        clip-rule="evenodd"
      />
    </symbol>
    <symbol viewBox="0 0 24 24" id="lp-icon-help-circle-outline">
      <path
        fill-rule="evenodd"
        d="M8.211 2.854a9.9 9.9 0 1 1 7.577 18.292A9.9 9.9 0 0 1 8.211 2.854ZM12 3.9a8.1 8.1 0 1 0 0 16.2 8.1 8.1 0 0 0 0-16.2Zm-1.481 2.535a3.5 3.5 0 1 1 2.802 6.406l-.014.005-.009.003a.6.6 0 0 0-.4.6.9.9 0 0 1-1.797.102 2.4 2.4 0 0 1 1.586-2.395 1.701 1.701 0 1 0-1.37-3.108 1.7 1.7 0 0 0-.6.496.9.9 0 1 1-1.434-1.088 3.5 3.5 0 0 1 1.236-1.021Z"
        clip-rule="evenodd"
      />
      <path
        fill-rule="evenodd"
        d="M12 15.95c.58 0 1.05.47 1.05 1.05v.01a1.05 1.05 0 1 1-2.1 0V17c0-.58.47-1.05 1.05-1.05Z"
        clip-rule="evenodd"
      />
    </symbol>
    <symbol viewBox="0 0 24 24" id="lp-icon-hub">
      <path
        fill-rule="evenodd"
        d="M5.949 2.95a2.9 2.9 0 0 1 4.14 4.061l1.42 2.13a2.9 2.9 0 0 1 .981 0l1.42-2.13a2.9 2.9 0 1 1 1.6.847l-1.421 2.13a2.9 2.9 0 0 1 .667 1.112h2.487a2.9 2.9 0 1 1 0 1.8h-2.487a2.899 2.899 0 0 1-.667 1.111l1.42 2.13A2.902 2.902 0 0 1 18.9 19a2.9 2.9 0 1 1-4.989-2.011l-1.42-2.13a2.902 2.902 0 0 1-.98 0l-1.421 2.13a2.9 2.9 0 1 1-1.599-.847l1.42-2.13a2.9 2.9 0 0 1-.667-1.112H6.756a2.9 2.9 0 1 1 0-1.8h2.487a2.9 2.9 0 0 1 .667-1.111l-1.42-2.13a2.9 2.9 0 0 1-2.541-4.91Zm2.05.95a1.1 1.1 0 1 0 0 2.2 1.1 1.1 0 0 0 0-2.2Zm8 0a1.1 1.1 0 1 0 0 2.2 1.1 1.1 0 0 0 0-2.2Zm-12 7a1.1 1.1 0 1 0 0 2.2 1.1 1.1 0 0 0 0-2.2Zm16 0a1.1 1.1 0 1 0 0 2.2 1.1 1.1 0 0 0 0-2.2Zm-12 7a1.1 1.1 0 1 0 0 2.2 1.1 1.1 0 0 0 0-2.2Zm8 0a1.1 1.1 0 1 0 0 2.2 1.1 1.1 0 0 0 0-2.2Z"
        clip-rule="evenodd"
      />
    </symbol>
    <symbol viewBox="0 0 24 24" id="lp-icon-inbox">
      <path
        fill-rule="evenodd"
        d="M6 4.9A1.1 1.1 0 0 0 4.9 6v6.1H7a.9.9 0 0 1 .636.264l2.736 2.736h3.255l2.736-2.736A.9.9 0 0 1 17 12.1h2.1V6A1.1 1.1 0 0 0 18 4.9H6ZM20.9 6A2.9 2.9 0 0 0 18 3.1H6A2.9 2.9 0 0 0 3.1 6v12A2.9 2.9 0 0 0 6 20.9h12a2.9 2.9 0 0 0 2.9-2.9V6Z"
        clip-rule="evenodd"
      />
    </symbol>
    <symbol viewBox="0 0 24 24" id="lp-icon-inbox-outline">
      <path
        fill-rule="evenodd"
        d="M6 4.9A1.1 1.1 0 0 0 4.9 6v6.1H7a.9.9 0 0 1 .636.264l2.736 2.736h3.255l2.736-2.736A.9.9 0 0 1 17 12.1h2.1V6A1.1 1.1 0 0 0 18 4.9H6ZM20.9 6A2.9 2.9 0 0 0 18 3.1H6A2.9 2.9 0 0 0 3.1 6v12A2.9 2.9 0 0 0 6 20.9h12a2.9 2.9 0 0 0 2.9-2.9V6Zm-1.8 7.9h-1.728l-2.736 2.737A.9.9 0 0 1 14 16.9h-4a.9.9 0 0 1-.637-.263L6.627 13.9H4.9V18A1.1 1.1 0 0 0 6 19.1h12a1.1 1.1 0 0 0 1.1-1.1v-4.1Z"
        clip-rule="evenodd"
      />
    </symbol>
    <symbol viewBox="0 0 24 24" id="lp-icon-individual-target">
      <path d="M17.833 12a6 6 0 1 1-12 0 6 6 0 0 1 12 0Z" />
    </symbol>
    <symbol viewBox="0 0 24 24" id="lp-icon-info">
      <path
        fill-rule="evenodd"
        d="M9.1 11a.9.9 0 0 1 .9-.9h2a.9.9 0 0 1 .9.9v5.1H14a.9.9 0 1 1 0 1.8h-2a.9.9 0 0 1-.9-.9v-5.1H10a.9.9 0 0 1-.9-.9Zm1.4-4A1.5 1.5 0 0 1 12 5.5h.01a1.5 1.5 0 0 1 0 3H12A1.5 1.5 0 0 1 10.5 7Z"
        clip-rule="evenodd"
      />
    </symbol>
    <symbol viewBox="0 0 24 24" id="lp-icon-info-circle">
      <path
        fill-rule="evenodd"
        d="M5 5a9.9 9.9 0 1 1 14.001 14 9.9 9.9 0 0 1-14-14Zm6.1 4a.9.9 0 0 1 .9-.9h.01a.9.9 0 0 1 0 1.8H12a.9.9 0 0 1-.9-.9Zm-1 3a.9.9 0 0 1 .9-.9h1a.9.9 0 0 1 .9.9v3.1h.1a.9.9 0 0 1 0 1.8h-1a.9.9 0 0 1-.9-.9v-3.1H11a.9.9 0 0 1-.9-.9Z"
        clip-rule="evenodd"
      />
    </symbol>
    <symbol viewBox="0 0 24 24" id="lp-icon-info-circle-outline">
      <path
        fill-rule="evenodd"
        d="M5 5a9.9 9.9 0 1 1 14.001 14 9.9 9.9 0 0 1-14-14Zm7-1.1a8.1 8.1 0 1 0 0 16.2 8.1 8.1 0 0 0 0-16.2ZM11.1 9a.9.9 0 0 1 .9-.9h.01a.9.9 0 0 1 0 1.8H12a.9.9 0 0 1-.9-.9Zm-1 3a.9.9 0 0 1 .9-.9h1a.9.9 0 0 1 .9.9v3.1h.1a.9.9 0 0 1 0 1.8h-1a.9.9 0 0 1-.9-.9v-3.1H11a.9.9 0 0 1-.9-.9Z"
        clip-rule="evenodd"
      />
    </symbol>
    <symbol viewBox="0 0 24 24" id="lp-icon-language">
      <path
        fill-rule="evenodd"
        d="M12.714 2.126a.902.902 0 0 0-.33-.019 9.906 9.906 0 0 0-.767 0 .902.902 0 0 0-.33.019 9.9 9.9 0 0 0 0 19.748c.107.027.22.033.33.019a9.99 9.99 0 0 0 .767 0 .901.901 0 0 0 .33-.019A9.901 9.901 0 0 0 19.001 5a9.9 9.9 0 0 0-6.287-2.874ZM9.81 4.202A8.1 8.1 0 0 0 4.901 8.1h3.551A17.9 17.9 0 0 1 9.81 4.202Zm.492 3.898A16.1 16.1 0 0 1 12 3.914 16.1 16.1 0 0 1 13.7 8.1h-3.397ZM8.146 9.9H4.178a8.098 8.098 0 0 0 0 4.2h3.968a17.9 17.9 0 0 1 0-4.2Zm1.814 4.2a16.1 16.1 0 0 1 0-4.2h4.08a16.096 16.096 0 0 1 0 4.2H9.96Zm-1.508 1.8h-3.55a8.1 8.1 0 0 0 4.908 3.898A17.903 17.903 0 0 1 8.452 15.9ZM12 20.086a16.1 16.1 0 0 1-1.698-4.186h3.397A16.1 16.1 0 0 1 12 20.086Zm2.19-.288A8.101 8.101 0 0 0 19.1 15.9h-3.552a17.902 17.902 0 0 1-1.358 3.898Zm1.665-5.698h3.969a8.098 8.098 0 0 0 0-4.2h-3.97a17.914 17.914 0 0 1 0 4.2Zm-.307-6H19.1a8.097 8.097 0 0 0-4.91-3.898A17.902 17.902 0 0 1 15.548 8.1Z"
        clip-rule="evenodd"
      />
    </symbol>
    <symbol viewBox="0 0 24 24" id="lp-icon-link">
      <path
        fill-rule="evenodd"
        d="m12.121 6.078-.44.51a.9.9 0 1 1-1.362-1.176l.463-.536a5.9 5.9 0 1 1 8.342 8.34l-.534.463a.9.9 0 0 1-1.18-1.358l.509-.443a4.1 4.1 0 0 0-5.798-5.8Zm3.515 2.286a.9.9 0 0 1 0 1.272l-6 6a.9.9 0 1 1-1.273-1.272l6-6a.9.9 0 0 1 1.273 0Zm-8.962 2.04a.9.9 0 0 1-.078 1.27l-.504.446a4.073 4.073 0 0 0 .017 5.774 4.168 4.168 0 0 0 5.814.045l.354-.476a.9.9 0 0 1 1.445 1.074l-.397.534a.902.902 0 0 1-.09.103 5.968 5.968 0 0 1-8.392 0 5.873 5.873 0 0 1 .037-8.385l.524-.463a.9.9 0 0 1 1.27.078Z"
        clip-rule="evenodd"
      />
    </symbol>
    <symbol viewBox="0 0 24 24" id="lp-icon-link-external">
      <path
        fill-rule="evenodd"
        d="M15 4.9a.9.9 0 0 1 0-1.8h5a.9.9 0 0 1 .9.9v5a.9.9 0 1 1-1.8 0V6.173l-7.464 7.463a.9.9 0 1 1-1.273-1.272L17.827 4.9H15ZM3.949 5.95a2.9 2.9 0 0 1 2.05-.85h6a.9.9 0 1 1 0 1.8H6A1.1 1.1 0 0 0 4.9 8v10A1.1 1.1 0 0 0 6 19.1h10a1.1 1.1 0 0 0 1.1-1.1v-6a.9.9 0 0 1 1.8 0v6a2.9 2.9 0 0 1-2.9 2.9H6A2.9 2.9 0 0 1 3.1 18V8a2.9 2.9 0 0 1 .85-2.05Z"
        clip-rule="evenodd"
      />
    </symbol>
    <symbol viewBox="0 0 24 24" id="lp-icon-list">
      <path
        fill-rule="evenodd"
        d="M8.101 6a.9.9 0 0 1 .9-.9h11a.9.9 0 0 1 0 1.8h-11a.9.9 0 0 1-.9-.9Zm0 6a.9.9 0 0 1 .9-.9h11a.9.9 0 0 1 0 1.8h-11a.9.9 0 0 1-.9-.9Zm0 6a.9.9 0 0 1 .9-.9h11a.9.9 0 0 1 0 1.8h-11a.9.9 0 0 1-.9-.9Zm-3.1-13.05c.58 0 1.05.47 1.05 1.05v.01a1.05 1.05 0 0 1-2.1 0V6c0-.58.47-1.05 1.05-1.05Zm0 6c.58 0 1.05.47 1.05 1.05v.01a1.05 1.05 0 1 1-2.1 0V12c0-.58.47-1.05 1.05-1.05Zm0 6c.58 0 1.05.47 1.05 1.05v.01a1.05 1.05 0 1 1-2.1 0V18c0-.58.47-1.05 1.05-1.05Z"
        clip-rule="evenodd"
      />
    </symbol>
    <symbol viewBox="0 0 24 24" id="lp-icon-lock">
      <path
        fill-rule="evenodd"
        d="M12 3.9A3.1 3.1 0 0 0 8.9 7v3.1h6.2V7A3.1 3.1 0 0 0 12 3.9Zm4.9 6.2V7a4.9 4.9 0 1 0-9.8 0v3.1H7A2.9 2.9 0 0 0 4.1 13v6A2.9 2.9 0 0 0 7 21.9h10a2.9 2.9 0 0 0 2.9-2.9v-6a2.9 2.9 0 0 0-2.9-2.9h-.1ZM7 11.9A1.1 1.1 0 0 0 5.9 13v6A1.1 1.1 0 0 0 7 20.1h10a1.1 1.1 0 0 0 1.1-1.1v-6a1.1 1.1 0 0 0-1.1-1.1H7Zm3.656 2.756a1.9 1.9 0 1 1 2.687 2.687 1.9 1.9 0 0 1-2.687-2.687Z"
        clip-rule="evenodd"
      />
    </symbol>
    <symbol viewBox="0 0 24 24" id="lp-icon-minus">
      <path
        fill-rule="evenodd"
        d="M4.1 12a.9.9 0 0 1 .9-.9h14a.9.9 0 1 1 0 1.8H5a.9.9 0 0 1-.9-.9Z"
        clip-rule="evenodd"
      />
    </symbol>
    <symbol viewBox="0 0 24 24" id="lp-icon-minus-circle">
      <path
        fill-rule="evenodd"
        d="M8.212 2.853a9.9 9.9 0 1 1 7.577 18.293A9.9 9.9 0 0 1 8.212 2.853ZM8.101 12a.9.9 0 0 1 .9-.9h6a.9.9 0 0 1 0 1.8H9a.9.9 0 0 1-.9-.9Z"
        clip-rule="evenodd"
      />
    </symbol>
    <symbol viewBox="0 0 24 24" id="lp-icon-minus-circle-outline">
      <path
        fill-rule="evenodd"
        d="M8.211 2.854a9.9 9.9 0 1 1 7.577 18.292A9.9 9.9 0 0 1 8.211 2.854ZM12 3.9a8.1 8.1 0 1 0 0 16.2 8.1 8.1 0 0 0 0-16.2ZM8.1 12a.9.9 0 0 1 .9-.9h6a.9.9 0 1 1 0 1.8H9a.9.9 0 0 1-.9-.9Z"
        clip-rule="evenodd"
      />
    </symbol>
    <symbol viewBox="0 0 24 24" id="lp-icon-money">
      <path
        fill-rule="evenodd"
        d="M12 2.1a.9.9 0 0 1 .9.9v2.1h1.138a3.9 3.9 0 0 1 3.51 2.6.9.9 0 1 1-1.697.599 2.1 2.1 0 0 0-1.873-1.4H10a2.1 2.1 0 1 0 0 4.2h4a3.9 3.9 0 1 1 0 7.8h-1.1V21a.9.9 0 0 1-1.8 0v-2.1H9.96a3.9 3.9 0 0 1-3.51-2.6.9.9 0 0 1 1.698-.598 2.1 2.1 0 0 0 1.873 1.399H14a2.1 2.1 0 0 0 0-4.2h-4a3.9 3.9 0 0 1 0-7.8h1.1V3a.9.9 0 0 1 .9-.9Z"
        clip-rule="evenodd"
      />
    </symbol>
    <symbol viewBox="0 0 24 24" id="lp-icon-more-horiz">
      <path
        fill-rule="evenodd"
        d="M3.656 10.657a1.9 1.9 0 1 1 2.687 2.687 1.9 1.9 0 0 1-2.687-2.687Zm7 0a1.9 1.9 0 1 1 2.687 2.687 1.9 1.9 0 0 1-2.687-2.687Zm7 0a1.9 1.9 0 1 1 2.687 2.687 1.9 1.9 0 0 1-2.687-2.687Z"
        clip-rule="evenodd"
      />
    </symbol>
    <symbol viewBox="0 0 24 24" id="lp-icon-more-vert">
      <path
        fill-rule="evenodd"
        d="M10.656 3.657a1.9 1.9 0 1 1 2.687 2.687 1.9 1.9 0 0 1-2.687-2.687Zm0 7a1.9 1.9 0 1 1 2.687 2.687 1.9 1.9 0 0 1-2.687-2.687Zm0 7a1.9 1.9 0 1 1 2.687 2.687 1.9 1.9 0 0 1-2.687-2.687Z"
        clip-rule="evenodd"
      />
    </symbol>
    <symbol viewBox="0 0 24 24" id="lp-icon-notifications">
      <path
        fill-rule="evenodd"
        d="M16.35 3.631a2.9 2.9 0 0 1 4.02 4.019 7.9 7.9 0 0 1-1.783 7.523l-2.08 2.08a3.1 3.1 0 0 0-.517 2.7.9.9 0 0 1-1.504.876L3.172 9.516a.9.9 0 0 1 .876-1.504 3.1 3.1 0 0 0 2.7-.516l2.08-2.082A7.9 7.9 0 0 1 16.35 3.63ZM5.496 13.994a.9.9 0 0 1 .925.216l3.37 3.37a.9.9 0 0 1-.518 1.529A3.898 3.898 0 0 1 6 18a3.9 3.9 0 0 1-1.108-3.272.9.9 0 0 1 .603-.734Z"
        clip-rule="evenodd"
      />
    </symbol>
    <symbol viewBox="0 0 24 24" id="lp-icon-pause">
      <path
        fill-rule="evenodd"
        d="M6.656 4.657A1.9 1.9 0 0 1 8 4.1h1A1.9 1.9 0 0 1 10.9 6v12A1.9 1.9 0 0 1 9 19.9H8A1.9 1.9 0 0 1 6.1 18V6c0-.504.2-.987.556-1.343Zm7 0A1.9 1.9 0 0 1 15 4.1h1A1.9 1.9 0 0 1 17.9 6v12a1.9 1.9 0 0 1-1.9 1.9h-1a1.9 1.9 0 0 1-1.9-1.9V6c0-.504.2-.987.556-1.343Z"
        clip-rule="evenodd"
      />
    </symbol>
    <symbol viewBox="0 0 24 24" id="lp-icon-person">
      <path
        fill-rule="evenodd"
        d="M12 4.1a4.9 4.9 0 0 0-3.068 8.72A6.898 6.898 0 0 0 5.1 19a.9.9 0 1 0 1.8 0 5.1 5.1 0 1 1 10.2 0 .9.9 0 1 0 1.8 0 6.9 6.9 0 0 0-3.831-6.18A4.9 4.9 0 0 0 12 4.1Zm0 1.8a3.1 3.1 0 1 0 0 6.2 3.1 3.1 0 0 0 0-6.2Z"
        clip-rule="evenodd"
      />
    </symbol>
    <symbol viewBox="0 0 24 24" id="lp-icon-person-add">
      <path
        d="M19.9 8a.9.9 0 1 0-1.8 0v2.1H16a.9.9 0 0 0 0 1.8h2.1V14a.9.9 0 0 0 1.8 0v-2.1H22a.9.9 0 1 0 0-1.8h-2.1V8Z"
      />
      <path
        fill-rule="evenodd"
        d="M14.9 19a6.9 6.9 0 0 0-3.831-6.18 4.9 4.9 0 1 0-6.138 0A6.898 6.898 0 0 0 1.1 19a.9.9 0 1 0 1.8 0 5.1 5.1 0 1 1 10.2 0 .9.9 0 0 0 1.8 0ZM8 5.9a3.1 3.1 0 1 0 0 6.2 3.1 3.1 0 0 0 0-6.2Z"
        clip-rule="evenodd"
      />
    </symbol>
    <symbol viewBox="0 0 24 24" id="lp-icon-person-off">
      <path
        fill-rule="evenodd"
        d="M2.364 2.363a.9.9 0 0 1 1.273 0l18 18a.9.9 0 1 1-1.273 1.273l-7.692-7.692A5.101 5.101 0 0 0 6.901 19a.9.9 0 0 1-1.8 0 6.9 6.9 0 0 1 3.83-6.18 4.89 4.89 0 0 1-1.795-4.412L2.364 3.636a.9.9 0 0 1 0-1.273ZM12.001 5.9c-.513 0-.993.123-1.417.341a.9.9 0 0 1-.824-1.6 4.9 4.9 0 0 1 6.6 6.6.9.9 0 0 1-1.601-.825A3.1 3.1 0 0 0 12.001 5.9Z"
        clip-rule="evenodd"
      />
    </symbol>
    <symbol viewBox="0 0 24 24" id="lp-icon-person-remove">
      <path
        fill-rule="evenodd"
        d="M2.364 2.363a.9.9 0 0 1 1.273 0l18 18a.9.9 0 1 1-1.273 1.273l-7.692-7.692A5.101 5.101 0 0 0 6.901 19a.9.9 0 0 1-1.8 0 6.9 6.9 0 0 1 3.83-6.18 4.89 4.89 0 0 1-1.795-4.412L2.364 3.636a.9.9 0 0 1 0-1.273ZM12.001 5.9c-.513 0-.993.123-1.417.341a.9.9 0 0 1-.824-1.6 4.9 4.9 0 0 1 6.6 6.6.9.9 0 0 1-1.601-.825A3.1 3.1 0 0 0 12.001 5.9Z"
        clip-rule="evenodd"
      />
    </symbol>
    <symbol viewBox="0 0 24 24" id="lp-icon-play">
      <path
        fill-rule="evenodd"
        d="M6.56 3.214a.9.9 0 0 1 .911.02l13 8a.9.9 0 0 1 0 1.533l-13 8A.9.9 0 0 1 6.1 20V4a.9.9 0 0 1 .46-.786Z"
        clip-rule="evenodd"
      />
    </symbol>
    <symbol viewBox="0 0 24 24" id="lp-icon-play-circle">
      <path
        fill-rule="evenodd"
        d="M12 2a10 10 0 1 0 0 20 10 10 0 0 0 0-20ZM9.234 7.558a.457.457 0 0 1 .462.01l6.587 4.045a.455.455 0 0 1 0 .775l-6.587 4.045A.457.457 0 0 1 9 16.045v-8.09c0-.165.09-.317.234-.397Z"
        clip-rule="evenodd"
      />
    </symbol>
    <symbol viewBox="0 0 24 24" id="lp-icon-play-circle-outline">
      <path
        fill-rule="evenodd"
        d="M8.211 2.854a9.9 9.9 0 1 1 7.577 18.292A9.9 9.9 0 0 1 8.211 2.854ZM12 3.9a8.1 8.1 0 1 0 0 16.2 8.1 8.1 0 0 0 0-16.2Z"
        clip-rule="evenodd"
      />
      <path
        fill-rule="evenodd"
        d="M9.233 7.558a.457.457 0 0 1 .462.01l6.588 4.045a.455.455 0 0 1 0 .775l-6.588 4.045A.457.457 0 0 1 9 16.045v-8.09c0-.165.089-.317.233-.397Z"
        clip-rule="evenodd"
      />
    </symbol>
    <symbol viewBox="0 0 24 24" id="lp-icon-power">
      <path
        d="M10.315 5.47a.75.75 0 0 0-1.06 0l-2.05 2.049a6.56 6.56 0 0 0-.679 8.682l-.432.431-2.73 2.732a.9.9 0 0 0 1.272 1.273l2.687-2.688.476-.476a6.56 6.56 0 0 0 8.682-.679l2.049-2.049a.75.75 0 0 0 0-1.06l-.971-.971 3.077-3.078a.9.9 0 1 0-1.273-1.272l-3.077 3.077-3.727-3.727.195-.195 2.882-2.883a.9.9 0 1 0-1.273-1.272L11.5 6.227l-.214.214-.971-.971Z"
      />
    </symbol>
    <symbol viewBox="0 0 24 24" id="lp-icon-preview">
      <path
        fill-rule="evenodd"
        d="M5 4.9a.1.1 0 0 0-.1.1v2.1h2.2V4.9H5Zm0-1.8A1.9 1.9 0 0 0 3.1 5v14A1.9 1.9 0 0 0 5 20.9h4a.9.9 0 1 0 0-1.8H5a.1.1 0 0 1-.1-.1V8.9h14.2v2.6a.9.9 0 0 0 1.8 0V5A1.9 1.9 0 0 0 19 3.1H5Zm3.9 1.8v2.2h10.2V5a.1.1 0 0 0-.1-.1H8.9Z"
        clip-rule="evenodd"
      />
      <path
        fill-rule="evenodd"
        d="M12.99 16.9c1.077 1.432 2.52 2.1 3.91 2.1 1.39 0 2.832-.668 3.91-2.1-1.078-1.432-2.52-2.1-3.91-2.1-1.39 0-2.833.668-3.91 2.1ZM16.9 13c2.213 0 4.364 1.185 5.763 3.423a.9.9 0 0 1 0 .954c-1.4 2.239-3.55 3.423-5.763 3.423-2.214 0-4.365-1.184-5.764-3.423a.9.9 0 0 1 0-.954C12.536 14.185 14.686 13 16.9 13Z"
        clip-rule="evenodd"
      />
      <path
        fill-rule="evenodd"
        d="M15.49 16.9a1.4 1.4 0 0 1 1.4-1.4h.01a1.4 1.4 0 1 1 0 2.8h-.01a1.4 1.4 0 0 1-1.4-1.4Z"
        clip-rule="evenodd"
      />
    </symbol>
    <symbol viewBox="0 0 24 24" id="lp-icon-progress-check">
      <path
        d="M16.576 8.308a.9.9 0 0 1 .116 1.268l-5 6a.9.9 0 0 1-1.328.06l-3-3a.9.9 0 0 1 1.272-1.273l2.304 2.303 4.369-5.242a.9.9 0 0 1 1.267-.116Z"
      />
      <path
        fill-rule="evenodd"
        d="M13.122 3.023a.9.9 0 0 1 1.078-.677 9.903 9.903 0 0 1 0 19.308.9.9 0 0 1-.4-1.755 8.102 8.102 0 0 0 0-15.799.9.9 0 0 1-.678-1.077Zm-2.244 0a.9.9 0 0 1-.679 1.078 8.04 8.04 0 0 0-2.782 1.22.9.9 0 0 1-1.02-1.483A9.854 9.854 0 0 1 9.8 2.345a.9.9 0 0 1 1.077.679Zm-6.249 3.71a.9.9 0 0 1 .351 1.223l-.164.296a8.075 8.075 0 0 0-.805 2.397.9.9 0 0 1-1.775-.298 9.876 9.876 0 0 1 .99-2.943l.01-.02.17-.304a.9.9 0 0 1 1.223-.351Zm-1.528 6.903a.9.9 0 0 1 1.115.615 8.06 8.06 0 0 0 1.104 2.332.9.9 0 0 1-1.483 1.02 9.86 9.86 0 0 1-1.35-2.852.9.9 0 0 1 .614-1.115ZM6.74 19.36a.9.9 0 0 1 1.229-.332c.696.4 1.448.694 2.23.872a.9.9 0 1 1-.398 1.755 9.84 9.84 0 0 1-2.73-1.067.9.9 0 0 1-.33-1.229Z"
        clip-rule="evenodd"
      />
    </symbol>
    <symbol viewBox="0 0 24 24" id="lp-icon-pulse">
      <path
        fill-rule="evenodd"
        d="M8.966 5.1a.9.9 0 0 1 .888.615l2.973 8.918 1.295-5.828a.9.9 0 0 1 1.684-.208l1.25 2.503h3.945a.9.9 0 0 1 0 1.8h-4.5a.9.9 0 0 1-.805-.498l-.367-.732-1.45 6.525a.9.9 0 0 1-1.732.09L9.124 9.217l-.75 3.001a.9.9 0 0 1-.873.682H3a.9.9 0 0 1 0-1.8h3.797l1.33-5.318a.9.9 0 0 1 .838-.681Z"
        clip-rule="evenodd"
      />
    </symbol>
    <symbol viewBox="0 0 24 24" id="lp-icon-pulse-active">
      <path
        d="M12 2.1a9.9 9.9 0 0 0-9.858 9h4.156l.83-3.318a.9.9 0 0 1 1.726-.067l1.64 4.918.628-2.828a.9.9 0 0 1 1.684-.208l.75 1.503h8.304a9.897 9.897 0 0 0-9.86-9Z"
      />
      <path
        d="M19.001 19a9.9 9.9 0 0 0 2.859-6.1H13a.9.9 0 0 1-.658-.287l-.796 3.582a.9.9 0 0 1-1.733.09l-1.689-5.069-.25 1.002A.9.9 0 0 1 7 12.9H2.14A9.9 9.9 0 0 0 19 19Z"
      />
    </symbol>
    <symbol viewBox="0 0 24 24" id="lp-icon-quick-start">
      <path
        fill-rule="evenodd"
        d="M12 3.1a.9.9 0 0 1 .9.9v2.1H18a.9.9 0 0 1 .593.223l4 3.5a.9.9 0 0 1 0 1.354l-4 3.5a.9.9 0 0 1-.592.223h-5.1V20a.9.9 0 0 1-1.8 0v-5.1H5A2.9 2.9 0 0 1 2.1 12V9A2.9 2.9 0 0 1 5 6.1h6.1V4a.9.9 0 0 1 .9-.9ZM5 7.9A1.1 1.1 0 0 0 3.9 9v3A1.1 1.1 0 0 0 5 13.1h12.662l2.972-2.6-2.972-2.6H5.001Z"
        clip-rule="evenodd"
      />
    </symbol>
    <symbol viewBox="0 0 24 24" id="lp-icon-release-pipeline">
      <path
        fill-rule="evenodd"
        d="M17.364 8.363a.9.9 0 0 1 1.272 0l3 3a.9.9 0 0 1 0 1.273l-3 3a.9.9 0 1 1-1.272-1.272l1.463-1.464H16.5a.9.9 0 0 1 0-1.8h2.327l-1.463-1.464a.9.9 0 0 1 0-1.273ZM9.449 9.95a2.9 2.9 0 1 1 4.102 4.102A2.9 2.9 0 0 1 9.449 9.95Zm2.051.95a1.1 1.1 0 1 0 0 2.2 1.1 1.1 0 0 0 0-2.2ZM2.1 12a.9.9 0 0 1 .9-.9h3.5a.9.9 0 1 1 0 1.8H3a.9.9 0 0 1-.9-.9Z"
        clip-rule="evenodd"
      />
    </symbol>
    <symbol viewBox="0 0 24 24" id="lp-icon-robot">
      <path
        fill-rule="evenodd"
        d="M7.781 2.877a.9.9 0 0 1 1.092.655l.83 3.318h4.594l.83-3.318a.9.9 0 1 1 1.746.437l-.72 2.881H17a2.9 2.9 0 0 1 2.9 2.9v.627l.736.737a.9.9 0 0 1 .264.636v3a.9.9 0 0 1-.264.637l-.736.736v1.127a2.9 2.9 0 0 1-2.9 2.9H7a2.9 2.9 0 0 1-2.9-2.9v-1.127l-.737-.736a.9.9 0 0 1-.263-.637v-3a.9.9 0 0 1 .263-.636l.737-.737V9.75A2.9 2.9 0 0 1 7 6.85h.847l-.72-2.881a.9.9 0 0 1 .654-1.092ZM8.98 8.65H7a1.1 1.1 0 0 0-1.1 1.1v1a.9.9 0 0 1-.263.637l-.736.736v2.255l.736.736a.9.9 0 0 1 .264.636v1.5a1.1 1.1 0 0 0 1.1 1.1h10a1.1 1.1 0 0 0 1.1-1.1v-1.5a.9.9 0 0 1 .263-.636l.737-.737v-2.254l-.737-.736a.9.9 0 0 1-.263-.637v-1a1.1 1.1 0 0 0-1.1-1.1H8.979Z"
        clip-rule="evenodd"
      />
      <path
        d="M9.9 15.555a.9.9 0 0 1-.9-.9v-2.5a.9.9 0 0 1 1.8 0v2.5a.9.9 0 0 1-.9.9Zm4.2 0a.9.9 0 0 1-.9-.9v-2.5a.9.9 0 0 1 1.8 0v2.5a.9.9 0 0 1-.9.9Z"
      />
    </symbol>
    <symbol viewBox="0 0 24 24" id="lp-icon-ruler">
      <path
        fill-rule="evenodd"
        d="M16.363 2.363a.9.9 0 0 1 1.273 0l4 4a.9.9 0 0 1 0 1.273l-14 14a.9.9 0 0 1-1.273 0l-4-4a.9.9 0 0 1 0-1.273l14-14ZM14.5 6.773l1.5 1.5L17.272 7l-1.5-1.5L17 4.273 19.727 7 7 19.727 4.272 17 5.5 15.773l1.5 1.5L8.272 16l-1.5-1.5L8.5 12.773l1.5 1.5L11.272 13l-1.5-1.5L11.5 9.773l1.5 1.5L14.272 10l-1.5-1.5L14.5 6.773Z"
        clip-rule="evenodd"
      />
    </symbol>
    <symbol viewBox="0 0 24 24" id="lp-icon-search">
      <path
        fill-rule="evenodd"
        d="M6.977 2.701a7.9 7.9 0 0 1 9.21 12.212l5.45 5.45a.9.9 0 1 1-1.273 1.273l-5.45-5.45a7.901 7.901 0 0 1-12.212-9.21 7.9 7.9 0 0 1 4.275-4.275ZM10.001 3.9a6.1 6.1 0 1 0 0 12.2 6.1 6.1 0 0 0 0-12.2Z"
        clip-rule="evenodd"
      />
    </symbol>
    <symbol viewBox="0 0 24 24" id="lp-icon-segment">
      <path
        d="M21.5 5.5687C21.5 7.81578 19.6694 9.6374 17.4113 9.6374C15.1532 9.6374 13.3226 7.81578 13.3226 5.5687C13.3226 3.32162 15.1532 1.5 17.4113 1.5C19.6694 1.5 21.5 3.32162 21.5 5.5687Z"
      />
      <path d="M2 7.13359H10.1774V15.271H2V7.13359Z" />
      <path d="M14.5806 12.1412L20.573 22H8.58831L14.5806 12.1412Z" />
    </symbol>
    <symbol viewBox="0 0 24 24" id="lp-icon-shield-account">
      <path
        d="m12 1-9 4v6c0 5.55 3.84 10.74 9 12 5.16-1.26 9-6.45 9-12v-6zm0 4c.7956 0 1.5587.31607 2.1213.87868s.8787 1.32567.8787 2.12132-.3161 1.55871-.8787 2.1213c-.5626.5626-1.3257.8787-2.1213.8787s-1.5587-.3161-2.12132-.8787c-.56261-.56259-.87868-1.32565-.87868-2.1213s.31607-1.55871.87868-2.12132c.56262-.56261 1.32572-.87868 2.12132-.87868zm5.13 12c-1.21 1.85-3.02 3.24-5.13 3.92-2.11-.68-3.92-2.07-5.13-3.92-.34-.5-.63-1-.87-1.53 0-1.65 2.71-3 6-3s6 1.32 6 3c-.24.53-.53 1.03-.87 1.53z"
      />
    </symbol>
    <symbol viewBox="0 0 24 24" id="lp-icon-shield-alert">
      <path
        fill-rule="evenodd"
        d="M11.403 2.326a.9.9 0 0 1 1.193 0A11.1 11.1 0 0 0 20.458 5.1a.9.9 0 0 1 .905.645 12.9 12.9 0 0 1-9.138 16.125.898.898 0 0 1-.451 0A12.899 12.899 0 0 1 2.636 5.746a.9.9 0 0 1 .905-.645 11.1 11.1 0 0 0 7.862-2.775ZM12.9 9a.9.9 0 1 0-1.8 0v4a.9.9 0 0 0 1.8 0V9Zm-1.95 8c0-.58.47-1.05 1.05-1.05h.01a1.05 1.05 0 1 1 0 2.1H12c-.58 0-1.05-.47-1.05-1.05Z"
        clip-rule="evenodd"
      />
    </symbol>
    <symbol viewBox="0 0 24 24" id="lp-icon-shield-heart">
      <path
        fill-rule="evenodd"
        d="M11.403 2.326a.9.9 0 0 1 1.193 0A11.1 11.1 0 0 0 20.458 5.1a.9.9 0 0 1 .905.645 12.9 12.9 0 0 1-9.138 16.125.898.898 0 0 1-.451 0A12.899 12.899 0 0 1 2.636 5.746a.9.9 0 0 1 .905-.645 11.1 11.1 0 0 0 7.862-2.775Zm-3.076 7.4A2.9 2.9 0 0 1 10.264 9c.63 0 1.736.75 1.736 1.5 0-.75 1.106-1.5 1.736-1.5a2.9 2.9 0 0 1 1.937.726c.523.47.827 1.12.827 1.809 0 1.097-.801 1.872-1.366 2.37l-2.697 2.429a.656.656 0 0 1-.874 0l-2.696-2.427c-.573-.5-1.367-1.273-1.367-2.372 0-.689.304-1.338.827-1.81Z"
        clip-rule="evenodd"
      />
    </symbol>
    <symbol viewBox="0 0 24 24" id="lp-icon-shield-key">
      <path
        d="M12 8C12.2652 8 12.5196 8.10536 12.7071 8.29289C12.8946 8.48043 13 8.73478 13 9C13 9.26522 12.8946 9.51957 12.7071 9.70711C12.5196 9.89464 12.2652 10 12 10C11.7348 10 11.4804 9.89464 11.2929 9.70711C11.1054 9.51957 11 9.26522 11 9C11 8.73478 11.1054 8.48043 11.2929 8.29289C11.4804 8.10536 11.7348 8 12 8V8ZM21 11C21 16.55 17.16 21.74 12 23C6.84 21.74 3 16.55 3 11V5L12 1L21 5V11ZM12 6C11.2044 6 10.4413 6.31607 9.87868 6.87868C9.31607 7.44129 9 8.20435 9 9C9 10.31 9.83 11.42 11 11.83V18H13V16H15V14H13V11.83C14.17 11.42 15 10.31 15 9C15 8.20435 14.6839 7.44129 14.1213 6.87868C13.5587 6.31607 12.7956 6 12 6Z"
      />
    </symbol>
    <symbol viewBox="0 0 24 24" id="lp-icon-sidebar-left-collapse">
      <path
        fill-rule="evenodd"
        d="M6 3.1A2.9 2.9 0 0 0 3.1 6v12A2.9 2.9 0 0 0 6 20.9h12a2.9 2.9 0 0 0 2.9-2.9V6A2.9 2.9 0 0 0 18 3.1H6Zm3.9 1.8v14.2H18a1.1 1.1 0 0 0 1.1-1.1V6A1.1 1.1 0 0 0 18 4.9H9.9Zm5.736 4.464a.9.9 0 0 1 0 1.272L14.272 12l1.364 1.364a.9.9 0 1 1-1.273 1.272l-2-2a.9.9 0 0 1 0-1.272l2-2a.9.9 0 0 1 1.273 0Z"
        clip-rule="evenodd"
      />
    </symbol>
    <symbol viewBox="0 0 24 24" id="lp-icon-sidebar-left-expand">
      <path
        fill-rule="evenodd"
        d="M6 3.1A2.9 2.9 0 0 0 3.1 6v12A2.9 2.9 0 0 0 6 20.9h12a2.9 2.9 0 0 0 2.9-2.9V6A2.9 2.9 0 0 0 18 3.1H6Zm3.9 1.8v14.2H18a1.1 1.1 0 0 0 1.1-1.1V6A1.1 1.1 0 0 0 18 4.9H9.9Zm3.463 4.464a.9.9 0 0 1 1.273 0l2 2a.9.9 0 0 1 0 1.272l-2 2a.9.9 0 1 1-1.273-1.272L14.727 12l-1.364-1.364a.9.9 0 0 1 0-1.272Z"
        clip-rule="evenodd"
      />
    </symbol>
    <symbol viewBox="0 0 24 24" id="lp-icon-star-outline">
      <path
        d="m22 9.24-7.19-.62L12 2 9.19 8.63 2 9.24l5.46 4.73L5.82 21 12 17.27 18.18 21l-1.63-7.03L22 9.24zM12 15.4l-3.76 2.27 1-4.28-3.32-2.88 4.38-.38L12 6.1l1.71 4.04 4.38.38-3.32 2.88 1 4.28L12 15.4z"
      />
    </symbol>
    <symbol viewBox="0 0 24 24" id="lp-icon-star">
      <path d="M0 0h24v24H0z" fill="none" />
      <path d="M0 0h24v24H0z" fill="none" />
      <path
        d="M12 17.27 18.18 21l-1.64-7.03L22 9.24l-7.19-.61L12 2 9.19 8.63 2 9.24l5.46 4.73L5.82 21z"
      />
    </symbol>
    <symbol viewBox="0 0 17 16" id="lp-icon-status-active">
      <path
        fill-rule="evenodd"
        clip-rule="evenodd"
        d="M5.9515 0.927734L10.0532 10.1566L11.382 7.49907H15.5V9.49907H12.618L9.94679 14.8416L6.0485 6.07041L4.67703 9.49907H0.5V7.49907H3.32297L5.9515 0.927734Z"
      />
    </symbol>
    <symbol viewBox="0 0 17 16" id="lp-icon-status-inactive">
      <path
        fill-rule="evenodd"
        clip-rule="evenodd"
        d="M2.66699 7.83398H13.3337V9.16732H2.66699V7.83398Z"
      />
    </symbol>
    <symbol viewBox="0 0 17 16" id="lp-icon-status-launched">
      <path
        d="M12 8.5C12 10.7091 10.2091 12.5 8 12.5C5.79086 12.5 4 10.7091 4 8.5C4 6.29086 5.79086 4.5 8 4.5C10.2091 4.5 12 6.29086 12 8.5Z"
      />
    </symbol>
    <symbol viewBox="0 0 17 16" id="lp-icon-status-new">
      <path
        d="M12.6663 9.16732H8.66634V13.1673H7.33301V9.16732H3.33301V7.83398H7.33301V3.83398H8.66634V7.83398H12.6663V9.16732Z"
      />
    </symbol>
    <symbol viewBox="0 0 24 24" id="lp-icon-step-in-progress">
      <path
        fill-rule="evenodd"
        d="M13.122 3.023a.9.9 0 0 1 1.078-.677 9.903 9.903 0 0 1 0 19.308.9.9 0 0 1-.4-1.755 8.102 8.102 0 0 0 0-15.799.9.9 0 0 1-.678-1.077Zm-2.244 0a.9.9 0 0 1-.679 1.078 8.04 8.04 0 0 0-2.782 1.22.9.9 0 0 1-1.02-1.483A9.854 9.854 0 0 1 9.8 2.345a.9.9 0 0 1 1.077.679Zm-6.249 3.71a.9.9 0 0 1 .351 1.223l-.164.296a8.075 8.075 0 0 0-.805 2.397.9.9 0 0 1-1.775-.298 9.876 9.876 0 0 1 .99-2.943l.01-.02.17-.304a.9.9 0 0 1 1.223-.351Zm-1.528 6.903a.9.9 0 0 1 1.115.615 8.04 8.04 0 0 0 1.104 2.332.9.9 0 1 1-1.483 1.02 9.86 9.86 0 0 1-1.35-2.852.9.9 0 0 1 .614-1.115ZM6.74 19.36a.9.9 0 0 1 1.229-.332c.696.4 1.448.694 2.23.872a.9.9 0 1 1-.398 1.755 9.84 9.84 0 0 1-2.73-1.067.9.9 0 0 1-.33-1.229Z"
        clip-rule="evenodd"
      />
    </symbol>
    <symbol viewBox="0 0 24 24" id="lp-icon-stop">
      <path d="M6 6h12v12H6V6Z" />
    </symbol>
    <symbol viewBox="0 0 24 24" id="lp-icon-support-agent">
      <path
        d="M21 12.22C21 6.73 16.74 3 12 3C7.31 3 3 6.65 3 12.28C2.4 12.62 2 13.26 2 14V16C2 17.1 2.9 18 4 18H5V11.9C5 8.03 8.13 4.9 12 4.9C15.87 4.9 19 8.03 19 11.9V19H11V21H19C20.1 21 21 20.1 21 19V17.78C21.59 17.47 22 16.86 22 16.14V13.84C22 13.14 21.59 12.53 21 12.22Z"
      />
      <path
        d="M9 14C9.55228 14 10 13.5523 10 13C10 12.4477 9.55228 12 9 12C8.44772 12 8 12.4477 8 13C8 13.5523 8.44772 14 9 14Z"
      />
      <path
        d="M15 14C15.5523 14 16 13.5523 16 13C16 12.4477 15.5523 12 15 12C14.4477 12 14 12.4477 14 13C14 13.5523 14.4477 14 15 14Z"
      />
      <path
        d="M18 11.03C17.52 8.18 15.04 6 12.05 6C9.01997 6 5.75997 8.51 6.01997 12.45C8.48997 11.44 10.35 9.24 10.88 6.56C12.19 9.19 14.88 11 18 11.03Z"
      />
    </symbol>
    <symbol viewBox="0 0 24 24" id="lp-icon-swap-horiz">
      <path d="M0 0h24v24H0z" fill="none" />
      <path d="M6.99 11 3 15l3.99 4v-3H14v-2H6.99v-3zM21 9l-3.99-4v3H10v2h7.01v3L21 9z" />
    </symbol>
    <symbol viewBox="0 0 24 24" id="lp-icon-swap-vertical">
      <path
        d="M16 17.01V10h-2v7.01h-3L15 21l4-3.99h-3ZM9 3 5 6.99h3V14h2V6.99h3L9 3Zm7 14.01V10h-2v7.01h-3L15 21l4-3.99h-3ZM9 3 5 6.99h3V14h2V6.99h3L9 3Z"
      />
    </symbol>
    <symbol viewBox="0 0 24 24" id="lp-icon-sync">
      <path
        fill-rule="evenodd"
        d="M7.475 4.322a9 9 0 0 1 13.416 6.554.9.9 0 0 1-1.783.248A7.2 7.2 0 0 0 6 8.1h2a.9.9 0 1 1 0 1.8H3.999a.9.9 0 0 1-.9-.9V5a.9.9 0 1 1 1.8 0v1.555a9 9 0 0 1 2.576-2.233Zm-3.6 7.787a.9.9 0 0 1 1.016.767A7.2 7.2 0 0 0 18 15.9h-2a.9.9 0 0 1 0-1.8h4a.9.9 0 0 1 .9.9v4a.9.9 0 1 1-1.8 0v-1.555a9 9 0 0 1-15.992-4.321.9.9 0 0 1 .768-1.015Z"
        clip-rule="evenodd"
      />
    </symbol>
    <symbol viewBox="0 0 64 64" id="lp-icon-templates-circle">
      <circle cx="31.5" cy="31.5" r="31.5" />
      <path d="M31.5 10.5833L21.6458 26.7083H41.3542L31.5 10.5833Z" fill="#EFFF63" />
      <path
        d="M41.3542 46.4166C45.807 46.4166 49.4167 42.8069 49.4167 38.3541C49.4167 33.9013 45.807 30.2916 41.3542 30.2916C36.9014 30.2916 33.2917 33.9013 33.2917 38.3541C33.2917 42.8069 36.9014 46.4166 41.3542 46.4166Z"
        fill="#EFFF63"
      />
      <path d="M15.375 31.1874H29.7083V45.5208H15.375V31.1874Z" fill="#EFFF63" />
    </symbol>
    <symbol viewBox="0 0 24 24" id="lp-icon-theme-dark">
      <path
        fill-rule="evenodd"
        d="M10.364 4.06a8.1 8.1 0 1 0 8.13 12.775 8.398 8.398 0 0 1-8.13-12.776ZM12.12 2.1h.272a.9.9 0 0 1 .613 1.56 6.6 6.6 0 0 0 6.97 10.952.9.9 0 0 1 1.168 1.18A9.9 9.9 0 1 1 12 2.091a.91.91 0 0 1 .12.008Z"
        clip-rule="evenodd"
      />
    </symbol>
    <symbol viewBox="0 0 24 24" id="lp-icon-theme-light">
      <path
        fill-rule="evenodd"
        d="M12 2.1a.9.9 0 0 1 .9.9v1a.9.9 0 1 1-1.8 0V3a.9.9 0 0 1 .9-.9ZM4.963 4.964a.9.9 0 0 1 1.273 0l.7.7a.9.9 0 1 1-1.273 1.272l-.7-.7a.9.9 0 0 1 0-1.272Zm14.073 0a.9.9 0 0 1 0 1.272l-.7.7a.9.9 0 1 1-1.273-1.272l.7-.7a.9.9 0 0 1 1.273 0ZM8.535 8.535a4.9 4.9 0 1 1 6.93 6.93 4.9 4.9 0 0 1-6.93-6.93ZM12 8.9a3.1 3.1 0 1 0 0 6.2 3.1 3.1 0 0 0 0-6.2ZM2.1 12a.9.9 0 0 1 .9-.9h1a.9.9 0 1 1 0 1.8H3a.9.9 0 0 1-.9-.9Zm17 0a.9.9 0 0 1 .9-.9h1a.9.9 0 1 1 0 1.8h-1a.9.9 0 0 1-.9-.9Zm-2.037 5.064a.9.9 0 0 1 1.273 0l.7.7a.9.9 0 1 1-1.273 1.273l-.7-.7a.9.9 0 0 1 0-1.273Zm-10.127 0a.9.9 0 0 1 0 1.273l-.7.7a.9.9 0 1 1-1.273-1.273l.7-.7a.9.9 0 0 1 1.273 0ZM12 19.1a.9.9 0 0 1 .9.9v1a.9.9 0 1 1-1.8 0v-1a.9.9 0 0 1 .9-.9Z"
        clip-rule="evenodd"
      />
    </symbol>
    <symbol viewBox="0 0 24 24" id="lp-icon-thumb-up">
      <path d="M0 0h24v24H0V0z" fill="none" />
      <path
        d="M1 21h4V9H1v12zm22-11c0-1.1-.9-2-2-2h-6.31l.95-4.57.03-.32c0-.41-.17-.79-.44-1.06L14.17 1 7.59 7.59C7.22 7.95 7 8.45 7 9v10c0 1.1.9 2 2 2h9c.83 0 1.54-.5 1.84-1.22l3.02-7.05c.09-.23.14-.47.14-.73v-2z"
      />
    </symbol>
    <symbol viewBox="0 0 24 24" id="lp-icon-toggles">
      <path d="M8 8.5c-.83 0-1.5-.67-1.5-1.5S7.17 5.5 8 5.5s1.5.67 1.5 1.5S8.83 8.5 8 8.5z" />
      <path
        fill-rule="evenodd"
        d="M7.75 3h7.5C17.32 3 19 4.792 19 7s-1.68 4-3.75 4h-7.5C5.68 11 4 9.208 4 7s1.68-4 3.75-4zm7.5 1h-7.5C6.292 4 5 5.283 5 7s1.292 3 2.75 3h7.5C16.708 10 18 8.717 18 7s-1.292-3-2.75-3zm0 9h-7.5C5.68 13 4 14.792 4 17s1.68 4 3.75 4h7.5c2.07 0 3.75-1.792 3.75-4s-1.68-4-3.75-4zM15 19a2 2 0 100-4 2 2 0 000 4z"
        clip-rule="evenodd"
      />
      <path d="M10 7a2 2 0 11-4 0 2 2 0 014 0z" />
    </symbol>
    <symbol viewBox="0 0 64 64" id="lp-icon-trending-up-circle">
      <circle cx="32" cy="32" r="31" />
      <path
        d="m40 20 4.58 4.58-9.76 9.76-8-8L12 41.18 14.82 44l12-12 8 8 12.6-12.58L52 32V20H40z"
        fill="#EBFF38"
      />
    </symbol>
    <symbol viewBox="0 0 24 24" id="lp-icon-undo">
      <path d="M0 0h24v24H0V0z" fill="none" />
      <path
        d="M12.5 8c-2.65 0-5.05.99-6.9 2.6L2 7v9h9l-3.62-3.62c1.39-1.16 3.16-1.88 5.12-1.88 3.54 0 6.55 2.31 7.6 5.5l2.37-.78C21.08 11.03 17.15 8 12.5 8z"
      />
    </symbol>
    <symbol viewBox="0 0 24 24" id="lp-icon-unfold-less">
      <path
        d="M7.41 18.59 8.83 20 12 16.83 15.17 20l1.41-1.41L12 14l-4.59 4.59Zm9.18-13.18L15.17 4 12 7.17 8.83 4 7.41 5.41 12 10l4.59-4.59Z"
      />
    </symbol>
    <symbol viewBox="0 0 24 24" id="lp-icon-unfold-more">
      <path
        d="M12 5.83 15.17 9l1.41-1.41L12 3 7.41 7.59 8.83 9 12 5.83zm0 12.34L8.83 15l-1.41 1.41L12 21l4.59-4.59L15.17 15 12 18.17z"
      />
    </symbol>
    <symbol viewBox="0 0 24 24" id="lp-icon-verified">
      <path
        d="M23 12L20.56 9.22004L20.9 5.54004L17.29 4.72004L15.4 1.54004L12 3.00004L8.6 1.54004L6.71 4.72004L3.1 5.53004L3.44 9.21004L1 12L3.44 14.78L3.1 18.47L6.71 19.29L8.6 22.47L12 21L15.4 22.46L17.29 19.28L20.9 18.46L20.56 14.78L23 12ZM10 17L6 13L7.41 11.59L10 14.17L16.59 7.58004L18 9.00004L10 17Z"
      />
    </symbol>
    <symbol viewBox="0 0 24 24" id="lp-icon-visibility-off">
      <path
        d="M12 7c2.76 0 5 2.24 5 5 0 .65-.13 1.26-.36 1.83l2.92 2.92c1.51-1.26 2.7-2.89 3.43-4.75-1.73-4.39-6-7.5-11-7.5-1.4 0-2.74.25-3.98.7l2.16 2.16C10.74 7.13 11.35 7 12 7zM2 4.27l2.28 2.28.46.46A11.804 11.804 0 0 0 1 12c1.73 4.39 6 7.5 11 7.5 1.55 0 3.03-.3 4.38-.84l.42.42L19.73 22 21 20.73 3.27 3 2 4.27zM7.53 9.8l1.55 1.55c-.05.21-.08.43-.08.65 0 1.66 1.34 3 3 3 .22 0 .44-.03.65-.08l1.55 1.55c-.67.33-1.41.53-2.2.53-2.76 0-5-2.24-5-5 0-.79.2-1.53.53-2.2zm4.31-.78 3.15 3.15.02-.16c0-1.66-1.34-3-3-3l-.17.01z"
      />
    </symbol>
    <symbol viewBox="0 0 24 24" id="lp-icon-visibility">
      <path
        d="M12 4C7 4 2.73 7.11 1 11.5 2.73 15.89 7 19 12 19s9.27-3.11 11-7.5C21.27 7.11 17 4 12 4Zm0 12.5c-2.76 0-5-2.24-5-5s2.24-5 5-5 5 2.24 5 5-2.24 5-5 5Zm0-8c-1.66 0-3 1.34-3 3s1.34 3 3 3 3-1.34 3-3-1.34-3-3-3Z"
      />
    </symbol>
    <symbol viewBox="0 0 24 24" id="lp-icon-warning">
      <path
        fill-rule="evenodd"
        clip-rule="evenodd"
        d="M10.29 3.599l-8.47 14.14a2 2 0 001.71 3h16.94a2 2 0 001.71-3l-8.47-14.14a2 2 0 00-3.42 0zm3.362 13.537a1.5 1.5 0 11-3 0 1.5 1.5 0 013 0zm-1.51-11a1.19 1.19 0 00-1.186 1.287l.49 6.07a.7.7 0 001.394 0l.49-6.07a1.19 1.19 0 00-1.187-1.287z"
      />
    </symbol>
    <symbol viewBox="0 0 121 121" id="lp-icon-workflow-builder">
      <path d="m60.5 0 52.395 30.25v60.5L60.5 121 8.105 90.75v-60.5L60.5 0z" />
      <g clip-path="url(#a)" fill="#EBFF38">
        <path
          d="M70.09 51.178H50v15.61h20.09v-15.61zM71 38.22H50L60.72 22 71 38.22zM60.5 99c-5.297 0-9.596-4.33-9.596-9.678 0-5.343 4.293-9.678 9.596-9.678 5.298 0 9.596 4.329 9.596 9.678C70.09 94.665 65.798 99 60.5 99zM61.904 41.176H59.09v6.566h2.813v-6.566zM61.904 69.935H59.09v6.566h2.813v-6.566z"
        />
      </g>
      <defs>
        <clipPath id="a">
          <path fill="#fff" transform="translate(50 22)" d="M0 0h21v77H0z" />
        </clipPath>
      </defs>
    </symbol>
  </defs>
</svg>
