<svg xmlns="http://www.w3.org/2000/svg" xmlns:xlink="http://www.w3.org/1999/xlink">
  <defs>
    <symbol viewBox="0 0 24 24" id="lp-icon-add">
      <path
        fill-rule="evenodd"
        d="M12 4.1a.9.9 0 0 1 .9.9v6.1H19a.9.9 0 1 1 0 1.8h-6.1V19a.9.9 0 1 1-1.8 0v-6.1H5a.9.9 0 1 1 0-1.8h6.1V5a.9.9 0 0 1 .9-.9Z"
        clip-rule="evenodd"
      />
    </symbol>
    <symbol viewBox="0 0 24 24" id="lp-icon-add-circle">
      <path
        fill-rule="evenodd"
        d="M5 5a9.9 9.9 0 1 1 14.001 14 9.9 9.9 0 0 1-14-14Zm7 3.1a.9.9 0 0 1 .9.9v2.1H15a.9.9 0 0 1 0 1.8h-2.1V15a.9.9 0 0 1-1.8 0v-2.1H9a.9.9 0 0 1 0-1.8h2.1V9a.9.9 0 0 1 .9-.9Z"
        clip-rule="evenodd"
      />
    </symbol>
    <symbol viewBox="0 0 24 24" id="lp-icon-add-circle-outline">
      <path
        fill-rule="evenodd"
        d="M5 5a9.9 9.9 0 1 1 14.001 14 9.9 9.9 0 0 1-14-14Zm7-1.1a8.1 8.1 0 1 0 0 16.2 8.1 8.1 0 0 0 0-16.2Zm0 4.2a.9.9 0 0 1 .9.9v2.1H15a.9.9 0 0 1 0 1.8h-2.1V15a.9.9 0 0 1-1.8 0v-2.1H9a.9.9 0 0 1 0-1.8h2.1V9a.9.9 0 0 1 .9-.9Z"
        clip-rule="evenodd"
      />
    </symbol>
    <symbol viewBox="0 0 24 24" id="lp-icon-alert-rhombus">
      <path
        fill-rule="evenodd"
        d="M12 1.65c.682 0 1.336.272 1.818.754l7.778 7.778a2.571 2.571 0 0 1 0 3.636l-7.778 7.778a2.571 2.571 0 0 1-3.637 0l-7.777-7.778a2.572 2.572 0 0 1 0-3.636l7.777-7.778A2.571 2.571 0 0 1 12 1.651ZM13 9a1 1 0 1 0-2 0v4a1 1 0 0 0 2 0V9Zm-1 5.9a1.1 1.1 0 0 1 1.1 1.1v.01a1.1 1.1 0 1 1-2.2 0V16a1.1 1.1 0 0 1 1.1-1.1Z"
        clip-rule="evenodd"
      />
    </symbol>
    <symbol viewBox="0 0 24 24" id="lp-icon-analyze">
      <path
        fill-rule="evenodd"
        d="M8.02 4.028a8.995 8.995 0 0 1 5.11-.838 9 9 0 0 1 7.761 7.686.9.9 0 0 1-1.783.248 7.2 7.2 0 0 0-6.21-6.15 7.198 7.198 0 0 0-6.18 2.216A1.9 1.9 0 1 1 5.26 6.118a8.995 8.995 0 0 1 2.76-2.09Zm1.222 5.214a3.9 3.9 0 1 1 5.515 5.516 3.9 3.9 0 0 1-5.515-5.516ZM3.876 12.11a.9.9 0 0 1 1.015.767 7.2 7.2 0 0 0 12.388 3.93 1.9 1.9 0 1 1 1.455 1.075 9.001 9.001 0 0 1-15.626-4.757.9.9 0 0 1 .768-1.015Z"
        clip-rule="evenodd"
      />
    </symbol>
    <symbol viewBox="0 0 24 24" id="lp-icon-application">
      <path
        fill-rule="evenodd"
        d="M3.758 3.756a1.9 1.9 0 1 1 2.687 2.687 1.9 1.9 0 0 1-2.687-2.687Zm7 0a1.9 1.9 0 1 1 2.687 2.687 1.9 1.9 0 0 1-2.687-2.687Zm7 0a1.9 1.9 0 1 1 2.687 2.687 1.9 1.9 0 0 1-2.687-2.687Zm-14 7a1.9 1.9 0 1 1 2.686 2.688 1.9 1.9 0 0 1-2.686-2.688Zm7 0a1.9 1.9 0 1 1 2.686 2.688 1.9 1.9 0 0 1-2.686-2.688Zm7 0a1.9 1.9 0 1 1 2.686 2.688 1.9 1.9 0 0 1-2.686-2.688Zm-14 7a1.9 1.9 0 1 1 2.686 2.688 1.9 1.9 0 0 1-2.686-2.688Zm7 0a1.9 1.9 0 1 1 2.686 2.688 1.9 1.9 0 0 1-2.686-2.688Zm7 0a1.9 1.9 0 1 1 2.686 2.688 1.9 1.9 0 0 1-2.686-2.688Z"
        clip-rule="evenodd"
      />
    </symbol>
    <symbol viewBox="0 0 24 24" id="lp-icon-approval-applied">
      <path
        fill-rule="evenodd"
        d="M4.949 3.95a2.9 2.9 0 1 1 3.037 4.777A3.1 3.1 0 0 0 11 11.1h3.243a2.9 2.9 0 1 1 0 1.8H11a4.9 4.9 0 0 1-3.1-1.105v3.448a2.9 2.9 0 1 1-1.8 0V8.757a2.9 2.9 0 0 1-1.151-4.808Zm2.05.95a1.1 1.1 0 1 0 0 2.2 1.1 1.1 0 0 0 0-2.2Zm10 6a1.1 1.1 0 1 0 0 2.2 1.1 1.1 0 0 0 0-2.2Zm-10 6a1.1 1.1 0 1 0 0 2.2 1.1 1.1 0 0 0 0-2.2Z"
        clip-rule="evenodd"
      />
    </symbol>
    <symbol viewBox="0 0 24 24" id="lp-icon-approval-approved">
      <path
        fill-rule="evenodd"
        d="M4.949 3.95a2.9 2.9 0 1 1 2.95 4.807v6.486A2.9 2.9 0 0 1 9.757 17.1H15a1.1 1.1 0 0 0 1.1-1.1v-2.827l-1.464 1.463a.9.9 0 1 1-1.273-1.272l3-3a.9.9 0 0 1 1.273 0l3 3a.9.9 0 1 1-1.273 1.272L17.9 13.174V16a2.9 2.9 0 0 1-2.9 2.9H9.756A2.9 2.9 0 1 1 6.1 15.243V8.757a2.9 2.9 0 0 1-1.151-4.808Zm2.05.95a1.1 1.1 0 1 0 0 2.2 1.1 1.1 0 0 0 0-2.2Zm11.364-1.536a.9.9 0 0 1 1.273 1.272l-3 3a.9.9 0 0 1-1.273 0l-1.5-1.5a.9.9 0 1 1 1.273-1.272l.864.863 2.363-2.363ZM7 16.9a1.1 1.1 0 1 0 0 2.2 1.1 1.1 0 0 0 0-2.2Z"
        clip-rule="evenodd"
      />
    </symbol>
    <symbol viewBox="0 0 24 24" id="lp-icon-approval-denied">
      <path
        fill-rule="evenodd"
        d="M4.949 3.95a2.9 2.9 0 1 1 2.95 4.807v6.486A2.9 2.9 0 0 1 9.757 17.1H15a1.1 1.1 0 0 0 1.1-1.1v-2.827l-1.464 1.463a.9.9 0 1 1-1.273-1.272l3-3a.9.9 0 0 1 1.273 0l3 3a.9.9 0 1 1-1.273 1.272L17.9 13.174V16a2.9 2.9 0 0 1-2.9 2.9H9.756A2.9 2.9 0 1 1 6.1 15.243V8.757a2.9 2.9 0 0 1-1.151-4.808Zm2.05.95a1.1 1.1 0 1 0 0 2.2 1.1 1.1 0 0 0 0-2.2Zm7.364-1.536a.9.9 0 0 1 1.273 0L17 4.727l1.363-1.363a.9.9 0 0 1 1.273 1.272L18.272 6l1.364 1.364a.9.9 0 1 1-1.273 1.272L17 7.273l-1.364 1.363a.9.9 0 1 1-1.273-1.272L15.727 6l-1.364-1.364a.9.9 0 0 1 0-1.272ZM7 16.9a1.1 1.1 0 1 0 0 2.2 1.1 1.1 0 0 0 0-2.2Z"
        clip-rule="evenodd"
      />
    </symbol>
    <symbol viewBox="0 0 24 24" id="lp-icon-approval-pending">
      <path
        fill-rule="evenodd"
        d="M4.949 3.95a2.9 2.9 0 1 1 2.95 4.807v6.486A2.9 2.9 0 0 1 9.757 17.1H15a1.1 1.1 0 0 0 1.1-1.1v-2.827l-1.464 1.463a.9.9 0 1 1-1.273-1.272l3-3a.9.9 0 0 1 1.273 0l3 3a.9.9 0 1 1-1.273 1.272L17.9 13.174V16a2.9 2.9 0 0 1-2.9 2.9H9.756A2.9 2.9 0 1 1 6.1 15.243V8.757a2.9 2.9 0 0 1-1.151-4.808Zm2.05.95a1.1 1.1 0 1 0 0 2.2 1.1 1.1 0 0 0 0-2.2Zm7.95-.95a2.9 2.9 0 1 1 4.101 4.1 2.9 2.9 0 0 1-4.101-4.1Zm2.05.95a1.1 1.1 0 1 0 0 2.2 1.1 1.1 0 0 0 0-2.2Zm-10 12a1.1 1.1 0 1 0 0 2.2 1.1 1.1 0 0 0 0-2.2Z"
        clip-rule="evenodd"
      />
    </symbol>
    <symbol viewBox="0 0 24 24" id="lp-icon-approvals">
      <path
        fill-rule="evenodd"
        d="M10.82 2.349a3.1 3.1 0 0 1 3.387.676l.698.697a1.3 1.3 0 0 0 .915.378h1a3.1 3.1 0 0 1 3.1 3.1v1c0 .342.136.671.377.915l.698.697v.001a3.101 3.101 0 0 1 0 4.394v.001l-.697.697a1.303 1.303 0 0 0-.378.916v1a3.1 3.1 0 0 1-3.1 3.1h-1a1.3 1.3 0 0 0-.915.376l-.697.698a3.099 3.099 0 0 1-4.395 0h-.001l-.697-.697a1.303 1.303 0 0 0-.915-.378h-1a3.1 3.1 0 0 1-3.1-3.1v-1a1.3 1.3 0 0 0-.377-.915l-.698-.697a3.107 3.107 0 0 1-.914-2.198 3.1 3.1 0 0 1 .913-2.197l.698-.698c.241-.243.378-.572.378-.915v-1a3.1 3.1 0 0 1 3.1-3.1h1a1.3 1.3 0 0 0 .915-.377l.697-.698c.288-.289.63-.52 1.008-.676Zm4.816 7.015a.9.9 0 0 1 0 1.272l-4 4a.9.9 0 0 1-1.272 0l-2-2a.9.9 0 0 1 1.272-1.272L11 12.727l3.364-3.363a.9.9 0 0 1 1.272 0Z"
        clip-rule="evenodd"
      />
    </symbol>
    <symbol viewBox="0 0 24 24" id="lp-icon-arrow-down-thin">
      <path
        fill-rule="evenodd"
        d="M12 4.1a.9.9 0 0 1 .9.9v11.827l2.463-2.463a.9.9 0 1 1 1.273 1.272l-4 4a.9.9 0 0 1-1.273 0l-4-4a.9.9 0 0 1 1.273-1.272l2.464 2.463V5a.9.9 0 0 1 .9-.9Z"
        clip-rule="evenodd"
      />
    </symbol>
    <symbol viewBox="0 0 24 24" id="lp-icon-arrow-left-thin">
      <path
        fill-rule="evenodd"
        d="M9.636 7.364a.9.9 0 0 1 0 1.272L7.172 11.1H19a.9.9 0 1 1 0 1.8H7.172l2.464 2.464a.9.9 0 0 1-1.273 1.273l-4-4a.9.9 0 0 1 0-1.273l4-4a.9.9 0 0 1 1.273 0Z"
        clip-rule="evenodd"
      />
    </symbol>
    <symbol viewBox="0 0 24 24" id="lp-icon-arrow-right-thin">
      <path
        fill-rule="evenodd"
        d="M14.363 7.364a.9.9 0 0 1 1.273 0l4 4a.9.9 0 0 1 0 1.272l-4 4a.9.9 0 1 1-1.273-1.272l2.464-2.464H5a.9.9 0 1 1 0-1.8h11.827l-2.464-2.464a.9.9 0 0 1 0-1.272Z"
        clip-rule="evenodd"
      />
    </symbol>
    <symbol viewBox="0 0 24 24" id="lp-icon-arrow-up-thin">
      <path
        fill-rule="evenodd"
        d="M11.363 4.364a.9.9 0 0 1 1.273 0l4 4a.9.9 0 1 1-1.273 1.272L12.9 7.173V19a.9.9 0 1 1-1.8 0V7.173L8.636 9.636a.9.9 0 1 1-1.273-1.272l4-4Z"
        clip-rule="evenodd"
      />
    </symbol>
    <symbol viewBox="0 0 24 24" id="lp-icon-article">
      <path
        fill-rule="evenodd"
        d="M2.95 3.95A2.9 2.9 0 0 1 5 3.1h14A2.9 2.9 0 0 1 21.9 6v12a2.9 2.9 0 0 1-2.9 2.9H5A2.9 2.9 0 0 1 2.1 18V6a2.9 2.9 0 0 1 .85-2.05ZM6.1 8a.9.9 0 0 1 .9-.9h10a.9.9 0 0 1 0 1.8H7a.9.9 0 0 1-.9-.9Zm0 4a.9.9 0 0 1 .9-.9h10a.9.9 0 0 1 0 1.8H7a.9.9 0 0 1-.9-.9Zm0 4a.9.9 0 0 1 .9-.9h5.5a.9.9 0 0 1 0 1.8H7a.9.9 0 0 1-.9-.9Z"
        clip-rule="evenodd"
      />
    </symbol>
    <symbol viewBox="0 0 24 24" id="lp-icon-border-all">
      <path
        fill-rule="evenodd"
        d="M6 4.9A1.1 1.1 0 0 0 4.9 6v5.1h6.2V4.9H6Zm0-1.8A2.9 2.9 0 0 0 3.1 6v12A2.9 2.9 0 0 0 6 20.9h12a2.9 2.9 0 0 0 2.9-2.9V6A2.9 2.9 0 0 0 18 3.1H6Zm6.9 1.8v6.2h6.2V6A1.1 1.1 0 0 0 18 4.9h-5.1Zm6.2 8h-6.2v6.2H18a1.1 1.1 0 0 0 1.1-1.1v-5.1Zm-8 6.2v-6.2H4.9V18A1.1 1.1 0 0 0 6 19.1h5.1Z"
        clip-rule="evenodd"
      />
    </symbol>
    <symbol viewBox="0 0 24 24" id="lp-icon-brain">
      <path
        fill-rule="evenodd"
        d="M9.75 3.9a1.349 1.349 0 0 0-1.328 1.102.9.9 0 0 1-.718.719 1.349 1.349 0 0 0-1.07 1.62.9.9 0 0 1-.72 1.082 1.349 1.349 0 0 0-.713 2.291.9.9 0 0 1-.255 1.457 1.8 1.8 0 0 0 .204 3.35.9.9 0 0 1 .594 1.087 1.352 1.352 0 0 0 1.598 1.664.9.9 0 0 1 1.081.718 1.351 1.351 0 0 0 2.322.672 1.35 1.35 0 0 0 .356-.91v-2.37l-.203-.19c-.295-.271-.7-.632-1.147-.99a11.12 11.12 0 0 0-1.361-.952c-.468-.268-.763-.35-.89-.35a.9.9 0 0 1 0-1.8c.624 0 1.267.292 1.783.587.55.314 1.106.72 1.592 1.11.077.061.152.122.226.183V5.25A1.35 1.35 0 0 0 9.75 3.9ZM12 3.045a3.149 3.149 0 0 0-4.262-.22 3.15 3.15 0 0 0-.926 1.286 3.149 3.149 0 0 0-2.006 2.792 3.149 3.149 0 0 0-1.497 4.212 3.6 3.6 0 0 0 .59 5.81A3.151 3.151 0 0 0 6.907 20.1a3.15 3.15 0 0 0 5.095.853 3.15 3.15 0 0 0 5.094-.853 3.146 3.146 0 0 0 2.906-2.358 3.11 3.11 0 0 0 .1-.819 3.6 3.6 0 0 0 .591-5.81 3.148 3.148 0 0 0-.758-3.725 3.147 3.147 0 0 0-.739-.486 3.138 3.138 0 0 0-.517-1.59 3.15 3.15 0 0 0-1.49-1.202 3.15 3.15 0 0 0-5.187-1.066Zm.9 2.205v8.485c.07-.06.14-.118.212-.177.86-.698 2.065-1.439 3.375-1.458a.9.9 0 1 1 .027 1.8c-.69.01-1.497.43-2.268 1.056a9.469 9.469 0 0 0-1.345 1.346v2.45a1.351 1.351 0 0 0 2.167 1.071 1.35 1.35 0 0 0 .51-.833.9.9 0 0 1 1.081-.718 1.347 1.347 0 0 0 1.6-.98c.058-.225.057-.46-.002-.684a.9.9 0 0 1 .594-1.087 1.8 1.8 0 0 0 .995-2.639 1.8 1.8 0 0 0-.79-.71.9.9 0 0 1-.256-1.458 1.35 1.35 0 0 0-.712-2.29.9.9 0 0 1-.722-1.082 1.353 1.353 0 0 0-1.068-1.621.9.9 0 0 1-.72-.72 1.35 1.35 0 0 0-2.677.25Z"
        clip-rule="evenodd"
      />
    </symbol>
    <symbol viewBox="0 0 24 24" id="lp-icon-bullhorn">
      <path
        fill-rule="evenodd"
        d="M16.87 3.136a1.8 1.8 0 0 1 2.03 1.786v2.283a3.9 3.9 0 0 1 0 7.59v2.283a1.801 1.801 0 0 1-2.951 1.384L11.675 14.9H10.9V19A1.9 1.9 0 0 1 9 20.9H8A1.9 1.9 0 0 1 6.1 19v-4.1H4A1.9 1.9 0 0 1 2.1 13V9A1.9 1.9 0 0 1 4 7.1h7.674l4.273-3.561a1.8 1.8 0 0 1 .923-.403ZM7.9 14.9V19a.1.1 0 0 0 .1.1h1a.1.1 0 0 0 .1-.1v-4.1H7.9Zm1.2-1.8H4a.1.1 0 0 1-.1-.1V9a.1.1 0 0 1 .1-.1h5.1v4.2Zm1.8 0H12a.9.9 0 0 1 .577.209l4.524 3.77V4.921l-4.524 3.77A.9.9 0 0 1 12 8.9h-1.1v4.2Zm8-.203a2.099 2.099 0 0 0 0-3.794v3.794Z"
        clip-rule="evenodd"
      />
    </symbol>
    <symbol viewBox="0 0 24 24" id="lp-icon-bullseye">
      <path
        fill-rule="evenodd"
        d="M8.212 2.853a9.9 9.9 0 1 1 7.577 18.293A9.9 9.9 0 0 1 8.212 2.853ZM12.001 3.9a8.1 8.1 0 1 0 0 16.2 8.1 8.1 0 0 0 0-16.2ZM7.829 7.828a5.9 5.9 0 1 1 8.344 8.344 5.9 5.9 0 0 1-8.344-8.344ZM12 7.9a4.1 4.1 0 1 0 0 8.2 4.1 4.1 0 0 0 0-8.2Zm-1.344 2.756a1.9 1.9 0 1 1 2.687 2.687 1.9 1.9 0 0 1-2.687-2.687Z"
        clip-rule="evenodd"
      />
    </symbol>
    <symbol viewBox="0 0 24 24" id="lp-icon-bullseye-arrow">
      <path
        fill-rule="evenodd"
        d="M7.206 3.335a9.9 9.9 0 0 1 5.895-1.175.9.9 0 1 1-.2 1.79 8.1 8.1 0 1 0 7.147 7.15.9.9 0 0 1 1.789-.2 9.9 9.9 0 1 1-14.63-7.565Zm11.139-1.167a.9.9 0 0 1 .556.832v2.1H21a.9.9 0 0 1 .636 1.536l-3 3A.9.9 0 0 1 18 9.9h-2.628l-1.553 1.553a1.9 1.9 0 1 1-1.273-1.273L14.1 8.627V6a.9.9 0 0 1 .263-.637l3-3a.9.9 0 0 1 .981-.195ZM8.723 7.094A5.9 5.9 0 0 1 12 6.1a.9.9 0 0 1 0 1.8 4.1 4.1 0 1 0 4.1 4.1.9.9 0 1 1 1.8 0 5.9 5.9 0 1 1-9.178-4.906Z"
        clip-rule="evenodd"
      />
    </symbol>
    <symbol viewBox="0 0 24 24" id="lp-icon-calendar">
      <path
        d="M10.1 13.5a.9.9 0 0 1 .9-.9h1a.9.9 0 0 1 .9.9v3a.9.9 0 0 1-1.8 0v-2.1H11a.9.9 0 0 1-.9-.9Z"
      />
      <path
        fill-rule="evenodd"
        d="M8.9 3a.9.9 0 0 0-1.8 0v1.1H6A2.9 2.9 0 0 0 3.1 7v12A2.9 2.9 0 0 0 6 21.9h12a2.9 2.9 0 0 0 2.9-2.9V7A2.9 2.9 0 0 0 18 4.1h-1.1V3a.9.9 0 1 0-1.8 0v1.1H8.9V3Zm10.2 9v-1.9H4.9V19A1.1 1.1 0 0 0 6 20.1h12a1.1 1.1 0 0 0 1.1-1.1v-7Z"
        clip-rule="evenodd"
      />
    </symbol>
    <symbol viewBox="0 0 24 24" id="lp-icon-calendar-cancel">
      <path
        d="M19 20H5V9h14m0-5h-1V2h-2v2H8V2H6v2H5a2 2 0 0 0-2 2v14a2 2 0 0 0 2 2h14a2 2 0 0 0 2-2V6a2 2 0 0 0-2-2ZM9.31 18l2.44-2.44L14.19 18l1.06-1.06-2.44-2.44 2.44-2.44L14.19 11l-2.44 2.44L9.31 11l-1.06 1.06 2.44 2.44-2.44 2.44L9.31 18Z"
      />
    </symbol>
    <symbol viewBox="0 0 24 24" id="lp-icon-cancel">
      <path d="M0 0h24v24H0z" fill="none" />
      <path
        d="M12 2C6.47 2 2 6.47 2 12s4.47 10 10 10 10-4.47 10-10S17.53 2 12 2zm5 13.59L15.59 17 12 13.41 8.41 17 7 15.59 10.59 12 7 8.41 8.41 7 12 10.59 15.59 7 17 8.41 13.41 12 17 15.59z"
      />
    </symbol>
    <symbol viewBox="0 0 24 24" id="lp-icon-caret-down">
      <path
        fill-rule="evenodd"
        d="M5.168 9.656A.9.9 0 0 1 6 9.1h12a.9.9 0 0 1 .636 1.537l-6 6a.9.9 0 0 1-1.273 0l-6-6a.9.9 0 0 1-.195-.981Z"
        clip-rule="evenodd"
      />
    </symbol>
    <symbol viewBox="0 0 24 24" id="lp-icon-caret-right">
      <path
        fill-rule="evenodd"
        d="M9.655 5.168a.9.9 0 0 1 .981.195l6 6a.9.9 0 0 1 0 1.273l-6 6A.9.9 0 0 1 9.1 18V6a.9.9 0 0 1 .555-.832Z"
        clip-rule="evenodd"
      />
    </symbol>
    <symbol viewBox="0 0 24 24" id="lp-icon-change-history">
      <path d="M12 7.77 18.39 18H5.61L12 7.77ZM12 4 2 20h20L12 4Z" />
    </symbol>
    <symbol viewBox="0 0 24 24" id="lp-icon-chart-area">
      <path
        fill-rule="evenodd"
        d="M15.959 3.101a.9.9 0 0 1 .677.263l4 4a.9.9 0 0 1-1.273 1.272L16.06 5.333l-4.369 5.243a.9.9 0 0 1-1.094.23L7.27 9.14l-2.55 3.4a.9.9 0 0 1-1.44-1.08l3-4a.9.9 0 0 1 1.123-.266l3.363 1.681 4.543-5.452a.9.9 0 0 1 .65-.323Zm-.01 6a.9.9 0 0 1 .687.263l4 4A.9.9 0 0 1 20.9 14v5a.9.9 0 0 1-.9.9H4a.9.9 0 0 1-.75-1.4l4-6a.9.9 0 0 1 1.152-.305l3.35 1.675 3.545-4.432a.9.9 0 0 1 .653-.337Z"
        clip-rule="evenodd"
      />
    </symbol>
    <symbol viewBox="0 0 24 24" id="lp-icon-chat-bubble-circle">
      <path
        fill-rule="evenodd"
        clip-rule="evenodd"
        d="M2 12C2 6.47 6.47 2 12 2s10 4.47 10 10-4.47 10-10 10S2 17.53 2 12Zm5.293-4.707A1 1 0 0 1 8 7h8a1 1 0 0 1 1 1v6a1 1 0 0 1-1 1H9l-2 2V8a1 1 0 0 1 .293-.707Z"
      />
    </symbol>
    <symbol viewBox="0 0 24 24" id="lp-icon-check-circle-outline">
      <path d="M0 0h24v24H0V0zm0 0h24v24H0V0z" fill="none" />
      <path
        d="M16.59 7.58 10 14.17l-3.59-3.58L5 12l5 5 8-8zM12 2C6.48 2 2 6.48 2 12s4.48 10 10 10 10-4.48 10-10S17.52 2 12 2zm0 18c-4.42 0-8-3.58-8-8s3.58-8 8-8 8 3.58 8 8-3.58 8-8 8z"
      />
    </symbol>
    <symbol viewBox="0 0 24 24" id="lp-icon-check-circle">
      <path d="M0 0h24v24H0z" fill="none" />
      <path
        d="M12 2C6.48 2 2 6.48 2 12s4.48 10 10 10 10-4.48 10-10S17.52 2 12 2zm-2 15-5-5 1.41-1.41L10 14.17l7.59-7.59L19 8l-9 9z"
      />
    </symbol>
    <symbol viewBox="0 0 24 24" id="lp-icon-check">
      <path d="M9 16.17 4.83 12l-1.42 1.41L9 19 21 7l-1.41-1.41z" />
    </symbol>
    <symbol viewBox="0 0 24 24" id="lp-icon-chevron-left">
      <path d="M0 0h24v24H0z" fill="none" />
      <path d="M15.41 7.41 14 6l-6 6 6 6 1.41-1.41L10.83 12z" />
    </symbol>
    <symbol viewBox="0 0 24 24" id="lp-icon-chevron-right">
      <path d="M0 0h24v24H0z" fill="none" />
      <path d="M10 6 8.59 7.41 13.17 12l-4.58 4.59L10 18l6-6z" />
    </symbol>
    <symbol viewBox="0 0 24 24" id="lp-icon-circle-dashed">
      <path
        d="M8.9998 0C7.0398 0.18 5.18981 0.95 3.6698 2.2L5.0998 3.74C6.2198 2.84 7.5698 2.26 8.9998 2.06V0ZM2.2598 3.67C0.999805 5.19 0.239805 7.04 0.0498047 9H2.0498C2.2398 7.58 2.7998 6.23 3.6898 5.1L2.2598 3.67ZM0.0598047 11C0.259805 12.96 1.0298 14.81 2.2698 16.33L3.6898 14.9C2.8098 13.77 2.2398 12.42 2.0598 11H0.0598047ZM5.0598 16.37L3.6698 17.74C5.1798 19 7.0398 19.79 8.9998 20V18C7.5798 17.82 6.2298 17.25 5.0998 16.37H5.0598Z"
      />
      <path
        d="M11 0C12.96 0.18 14.81 0.95 16.33 2.2L14.9 3.74C13.78 2.84 12.43 2.26 11 2.06V0ZM17.74 3.67C19 5.19 19.76 7.04 19.95 9H17.95C17.76 7.58 17.2 6.23 16.31 5.1L17.74 3.67ZM19.94 11C19.74 12.96 18.97 14.81 17.73 16.33L16.31 14.9C17.19 13.77 17.76 12.42 17.94 11H19.94ZM14.94 16.37L16.33 17.74C14.82 19 12.96 19.79 11 20V18C12.42 17.82 13.77 17.25 14.9 16.37H14.94Z"
      />
    </symbol>
    <symbol viewBox="0 0 24 24" id="lp-icon-circle-outline">
      <path
        d="M12 2C6.47 2 2 6.47 2 12s4.47 10 10 10 10-4.47 10-10S17.53 2 12 2zm0 18c-4.42 0-8-3.58-8-8s3.58-8 8-8 8 3.58 8 8-3.58 8-8 8z"
      />
    </symbol>
    <symbol viewBox="0 0 24 24" id="lp-icon-circle">
      <path d="M0 0h24v24H0z" fill="none" />
      <path d="M12 2C6.47 2 2 6.47 2 12s4.47 10 10 10 10-4.47 10-10S17.53 2 12 2z" />
    </symbol>
    <symbol viewBox="0 0 24 24" id="lp-icon-click-metric">
      <path
        d="M5 3h14c1.1 0 2 .9 2 2v14c0 1.1-.9 2-2 2H5c-1.1 0-2-.9-2-2V5c0-1.1.9-2 2-2Zm3.2 5v7.1l2.1-2.1 3.8 3.9L17 14l-3.8-3.9L15.3 8H8.2Z"
      />
    </symbol>
    <symbol viewBox="0 0 12 12" id="lp-icon-clipboard-copy">
      <path
        fill-rule="evenodd"
        clip-rule="evenodd"
        d="M2.4375 1.875H3V2.0625C3 2.58027 3.41973 3 3.9375 3H8.0625C8.58027 3 9 2.58027 9 2.0625V1.875H9.5625C9.87316 1.875 10.125 2.12684 10.125 2.4375V4.6875C10.125 4.99816 10.3768 5.25 10.6875 5.25C10.9982 5.25 11.25 4.99816 11.25 4.6875V2.4375C11.25 1.50552 10.4945 0.75 9.5625 0.75H8.98125C8.89438 0.32208 8.51606 0 8.0625 0H3.9375C3.48395 0 3.10562 0.32208 3.01875 0.75H2.4375C1.50552 0.75 0.75 1.50552 0.75 2.4375V10.3125C0.75 11.2445 1.50552 12 2.4375 12H9.5625C10.4945 12 11.25 11.2445 11.25 10.3125V9.5625C11.25 9.25184 10.9982 9 10.6875 9C10.3768 9 10.125 9.25184 10.125 9.5625V10.3125C10.125 10.6232 9.87316 10.875 9.5625 10.875H2.4375C2.12684 10.875 1.875 10.6232 1.875 10.3125V2.4375C1.875 2.12684 2.12684 1.875 2.4375 1.875ZM4.125 1.125V1.875H7.875V1.125H4.125Z"
      />
      <path
        d="M3.5625 4.125C3.25184 4.125 3 4.37684 3 4.6875C3 4.99816 3.25184 5.25 3.5625 5.25H5.8125C6.12316 5.25 6.375 4.99816 6.375 4.6875C6.375 4.37684 6.12316 4.125 5.8125 4.125H3.5625Z"
      />
      <path
        d="M3 9.1875C3 8.87684 3.25184 8.625 3.5625 8.625H5.8125C6.12316 8.625 6.375 8.87684 6.375 9.1875C6.375 9.49816 6.12316 9.75 5.8125 9.75H3.5625C3.25184 9.75 3 9.49816 3 9.1875Z"
      />
      <path
        d="M3.5625 6.375C3.25184 6.375 3 6.62684 3 6.9375C3 7.24816 3.25184 7.5 3.5625 7.5H5.0625C5.37316 7.5 5.625 7.24816 5.625 6.9375C5.625 6.62684 5.37316 6.375 5.0625 6.375H3.5625Z"
      />
      <path
        d="M12 6.9375C12 7.24816 11.7482 7.5 11.4375 7.5H8.2955L9.21025 8.41475C9.42992 8.63442 9.42992 8.99058 9.21025 9.21025C8.99058 9.42992 8.63442 9.42992 8.41475 9.21025L6.5402 7.33569C6.43471 7.2302 6.375 7.08668 6.375 6.9375C6.375 6.78832 6.43426 6.64524 6.53975 6.53975L8.41475 4.66475C8.63442 4.44508 8.99058 4.44508 9.21025 4.66475C9.42992 4.88442 9.42992 5.24058 9.21025 5.46025L8.2955 6.375H11.4375C11.7482 6.375 12 6.62684 12 6.9375Z"
      />
    </symbol>
    <symbol viewBox="0 0 24 24" id="lp-icon-clipboard">
      <path
        d="M18.04 11.13c.14 0 .27.06.38.17l1.28 1.28c.22.21.22.56 0 .77l-1 1-2.05-2.05 1-1c.11-.11.25-.17.39-.17Zm-1.97 1.75 2.05 2.05L12.06 21H10v-2.06l6.07-6.06ZM8 18l-2 2H2c-1.1 0-2-.9-2-2V4c0-1.1.9-2 2-2h4.18C6.6.84 7.7 0 9 0c1.3 0 2.4.84 2.82 2H16c1.1 0 2 .9 2 2v4l-2 2V4h-2v2H4V4H2v14h6ZM9 2c-.55 0-1 .45-1 1s.45 1 1 1 1-.45 1-1-.45-1-1-1Z"
      />
    </symbol>
    <symbol viewBox="0 0 24 24" id="lp-icon-clock-alert-outline">
      <path
        d="M20 12h2v6h-2v-6Zm0 8h2v2h-2v-2ZM12 2C6.5 2 2 6.5 2 12s4.5 10 10 10c2.3 0 4.3-.8 6-2V10h3.8c-.9-4.6-5-8-9.8-8Zm4.2 14.2L11 13V7h1.5v5.2l4.5 2.7-.8 1.3Z"
      />
    </symbol>
    <symbol viewBox="0 0 24 24" id="lp-icon-close">
      <path d="M0 0h24v24H0V0z" fill="none" />
      <path
        d="M19 6.41 17.59 5 12 10.59 6.41 5 5 6.41 10.59 12 5 17.59 6.41 19 12 13.41 17.59 19 19 17.59 13.41 12 19 6.41z"
      />
    </symbol>
    <symbol viewBox="0 0 24 24" id="lp-icon-connection">
      <path
        d="M18 11h-3.18C14.4 9.84 13.3 9 12 9c-1.3 0-2.4.84-2.82 2H6c-.33 0-2-.1-2-2V8c0-1.83 1.54-2 2-2h10.18C16.6 7.16 17.7 8 19 8a3 3 0 0 0 0-6c-1.3 0-2.4.84-2.82 2H6C4.39 4 2 5.06 2 8v1c0 2.94 2.39 4 4 4h3.18c.42 1.16 1.52 2 2.82 2 1.3 0 2.4-.84 2.82-2H18c.33 0 2 .1 2 2v1c0 1.83-1.54 2-2 2H7.82C7.4 16.84 6.3 16 5 16a3 3 0 0 0 0 6c1.3 0 2.4-.84 2.82-2H18c1.61 0 4-1.07 4-4v-1c0-2.93-2.39-4-4-4Zm1-7a1 1 0 1 1 0 2 1 1 0 0 1 0-2ZM5 20a1 1 0 1 1 0-2 1 1 0 0 1 0 2Z"
      />
    </symbol>
    <symbol viewBox="0 0 24 24" id="lp-icon-contact-page">
      <path
        d="M14 2H6C4.9 2 4 2.9 4 4V20C4 21.1 4.9 22 6 22H18C19.1 22 20 21.1 20 20V8L14 2ZM12 10C13.1 10 14 10.9 14 12C14 13.1 13.1 14 12 14C10.9 14 10 13.1 10 12C10 10.9 10.9 10 12 10ZM16 18H8V17.43C8 16.62 8.48 15.9 9.22 15.58C10.07 15.21 11.01 15 12 15C12.99 15 13.93 15.21 14.78 15.58C15.52 15.9 16 16.62 16 17.43V18Z"
      />
    </symbol>
    <symbol viewBox="0 0 24 24" id="lp-icon-content-copy">
      <path d="M0 0h24v24H0z" fill="none" />
      <path
        d="M16 1H4c-1.1 0-2 .9-2 2v14h2V3h12V1zm3 4H8c-1.1 0-2 .9-2 2v14c0 1.1.9 2 2 2h11c1.1 0 2-.9 2-2V7c0-1.1-.9-2-2-2zm0 16H8V7h11v14z"
      />
    </symbol>
    <symbol viewBox="0 0 24 24" id="lp-icon-credit-card">
      <path
        d="M20 4H4c-1.11 0-1.99.89-1.99 2L2 18c0 1.11.89 2 2 2h16c1.11 0 2-.89 2-2V6c0-1.11-.89-2-2-2zm0 14H4v-6h16v6zm0-10H4V6h16v2z"
      />
    </symbol>
    <symbol viewBox="0 0 24 24" id="lp-icon-custom-metric">
      <path
        fill-rule="evenodd"
        d="M4 4a2 2 0 0 0-2 2v12a2 2 0 0 0 2 2h16a2 2 0 0 0 2-2V6a2 2 0 0 0-2-2H4Zm5.59 11.59L11 14.17 8.83 12 11 9.83 9.59 8.41 6 12l3.59 3.59ZM13 14.17l1.41 1.42L18 12l-3.59-3.59L13 9.83 15.17 12 13 14.17Z"
        clip-rule="evenodd"
      />
    </symbol>
    <symbol viewBox="0 0 24 24" id="lp-icon-dark-mode">
      <path
        d="M12 21Q8.25 21 5.625 18.375Q3 15.75 3 12Q3 8.25 5.625 5.625Q8.25 3 12 3Q12.35 3 12.688 3.025Q13.025 3.05 13.35 3.1Q12.325 3.825 11.713 4.987Q11.1 6.15 11.1 7.5Q11.1 9.75 12.675 11.325Q14.25 12.9 16.5 12.9Q17.875 12.9 19.025 12.287Q20.175 11.675 20.9 10.65Q20.95 10.975 20.975 11.312Q21 11.65 21 12Q21 15.75 18.375 18.375Q15.75 21 12 21ZM12 19Q14.2 19 15.95 17.788Q17.7 16.575 18.5 14.625Q18 14.75 17.5 14.825Q17 14.9 16.5 14.9Q13.425 14.9 11.262 12.738Q9.1 10.575 9.1 7.5Q9.1 7 9.175 6.5Q9.25 6 9.375 5.5Q7.425 6.3 6.213 8.05Q5 9.8 5 12Q5 14.9 7.05 16.95Q9.1 19 12 19ZM11.75 12.25Q11.75 12.25 11.75 12.25Q11.75 12.25 11.75 12.25Q11.75 12.25 11.75 12.25Q11.75 12.25 11.75 12.25Q11.75 12.25 11.75 12.25Q11.75 12.25 11.75 12.25Q11.75 12.25 11.75 12.25Q11.75 12.25 11.75 12.25Q11.75 12.25 11.75 12.25Q11.75 12.25 11.75 12.25Q11.75 12.25 11.75 12.25Q11.75 12.25 11.75 12.25Z"
      />
    </symbol>
    <symbol viewBox="0 0 24 24" id="lp-icon-delete">
      <path d="M0 0h24v24H0z" fill="none" />
      <path d="M6 19c0 1.1.9 2 2 2h8c1.1 0 2-.9 2-2V7H6v12zM19 4h-3.5l-1-1h-5l-1 1H5v2h14V4z" />
    </symbol>
    <symbol viewBox="0 0 24 24" id="lp-icon-device-desktop">
      <path
        fill-rule="evenodd"
        d="M4 3.9a.1.1 0 0 0-.1.1v10.1h16.2V4a.1.1 0 0 0-.1-.1H4Zm17.9.1A1.9 1.9 0 0 0 20 2.1H4A1.9 1.9 0 0 0 2.1 4v12A1.9 1.9 0 0 0 4 17.9h4.981l-.275 2.2h-.705a.9.9 0 1 0 0 1.8h8a.9.9 0 0 0 0-1.8h-.706l-.275-2.2H20a1.9 1.9 0 0 0 1.9-1.9V4Z"
        clip-rule="evenodd"
      />
    </symbol>
    <symbol viewBox="0 0 24 24" id="lp-icon-device-mobile">
      <path
        fill-rule="evenodd"
        d="M8 3.9A1.1 1.1 0 0 0 6.9 5v14A1.1 1.1 0 0 0 8 20.1h8a1.1 1.1 0 0 0 1.1-1.1V5A1.1 1.1 0 0 0 16 3.9h-2.105a.9.9 0 0 1-.894 1h-2a.9.9 0 0 1-.895-1H8.001Zm-2.05-.95A2.9 2.9 0 0 1 8 2.1h8A2.9 2.9 0 0 1 18.9 5v14a2.9 2.9 0 0 1-2.9 2.9H8A2.9 2.9 0 0 1 5.1 19V5a2.9 2.9 0 0 1 .85-2.05ZM12 16.1a.9.9 0 0 1 .9.9v.01a.9.9 0 0 1-1.8 0V17a.9.9 0 0 1 .9-.9Z"
        clip-rule="evenodd"
      />
    </symbol>
    <symbol viewBox="0 0 24 24" id="lp-icon-device-server">
      <path
        fill-rule="evenodd"
        d="M6 4.9A2.1 2.1 0 0 0 3.9 7v2A2.1 2.1 0 0 0 6 11.1h12A2.1 2.1 0 0 0 20.1 9V7A2.1 2.1 0 0 0 18 4.9H6ZM20.494 12A3.9 3.9 0 0 0 21.9 9V7A3.9 3.9 0 0 0 18 3.1H6A3.9 3.9 0 0 0 2.1 7v2a3.9 3.9 0 0 0 1.408 3A3.9 3.9 0 0 0 2.1 15v2A3.9 3.9 0 0 0 6 20.9h12a3.9 3.9 0 0 0 3.9-3.9v-2a3.9 3.9 0 0 0-1.408-3ZM6 12.9A2.1 2.1 0 0 0 3.9 15v2A2.1 2.1 0 0 0 6 19.1h12a2.1 2.1 0 0 0 2.1-2.1v-2a2.1 2.1 0 0 0-2.1-2.1H6Zm1-5.8a.9.9 0 0 1 .9.9v.01a.9.9 0 0 1-1.8 0V8a.9.9 0 0 1 .9-.9Zm3.1.9a.9.9 0 0 1 .9-.9h6a.9.9 0 0 1 0 1.8h-6a.9.9 0 0 1-.9-.9ZM7 15.1a.9.9 0 0 1 .9.9v.01a.9.9 0 1 1-1.8 0V16a.9.9 0 0 1 .9-.9Zm3.1.9a.9.9 0 0 1 .9-.9h6a.9.9 0 0 1 0 1.8h-6a.9.9 0 0 1-.9-.9Z"
        clip-rule="evenodd"
      />
    </symbol>
    <symbol viewBox="0 0 24 24" id="lp-icon-download">
      <path d="M5 20h14v-2H5v2zM19 9h-4V3H9v6H5l7 7 7-7z" />
    </symbol>
    <symbol viewBox="0 0 24 24" id="lp-icon-edit">
      <path
        d="M3 17.25V21h3.75L17.81 9.94l-3.75-3.75L3 17.25zM20.71 7.04a.996.996 0 0 0 0-1.41l-2.34-2.34a.996.996 0 0 0-1.41 0l-1.83 1.83 3.75 3.75 1.83-1.83z"
      />
    </symbol>
    <symbol viewBox="0 0 24 24" id="lp-icon-equal-circle">
      <path
        fill-rule="evenodd"
        clip-rule="evenodd"
        d="M2 12C2 6.47 6.47 2 12 2s10 4.47 10 10-4.47 10-10 10S2 17.53 2 12Zm5-3.5v2h10v-2H7Zm0 5v2h10v-2H7Z"
      />
    </symbol>
    <symbol viewBox="0 0 24 24" id="lp-icon-error-circle">
      <path
        d="M12 2C6.48 2 2 6.48 2 12C2 17.52 6.48 22 12 22C17.52 22 22 17.52 22 12C22 6.48 17.52 2 12 2ZM17 13.5H7V10.5H17V13.5Z"
      />
    </symbol>
    <symbol viewBox="0 0 24 24" id="lp-icon-expand-less">
      <path d="M0 0h24v24H0z" fill="none" />
      <path d="m12 8-6 6 1.41 1.41L12 10.83l4.59 4.58L18 14z" />
    </symbol>
    <symbol viewBox="0 0 24 24" id="lp-icon-expand-more">
      <path d="M0 0h24v24H0z" fill="none" />
      <path d="M16.59 8.59 12 13.17 7.41 8.59 6 10l6 6 6-6z" />
    </symbol>
    <symbol viewBox="0 0 24 24" id="lp-icon-experiment">
      <path
        d="M9.33333 11.31C10.1933 8.1 11.5 5.33333 13 5.33333C14.5 5.33333 15.8067 8.1 16.6667 11.31C17.6267 14.92 18.1 18.6667 22 18.6667V17C19.8 17 19 14.54 17.97 10.8C17.08 7.46 16.15 4 13 4C9.85 4 8.92 7.46 8.03 10.8C7.03 14.54 5.53333 17 3.33333 17V2H2V22H22V20.6667H3.33333V18.6667C7.23333 18.6667 8.37333 14.92 9.33333 11.31Z"
      />
    </symbol>
    <symbol viewBox="0 0 24 24" id="lp-icon-extension">
      <path d="M0 0h24v24H0z" fill="none" />
      <path
        d="M20.5 11H19V7c0-1.1-.9-2-2-2h-4V3.5a2.5 2.5 0 0 0-5 0V5H4c-1.1 0-1.99.9-1.99 2v3.8H3.5c1.49 0 2.7 1.21 2.7 2.7s-1.21 2.7-2.7 2.7H2V20c0 1.1.9 2 2 2h3.8v-1.5c0-1.49 1.21-2.7 2.7-2.7 1.49 0 2.7 1.21 2.7 2.7V22H17c1.1 0 2-.9 2-2v-4h1.5a2.5 2.5 0 0 0 0-5z"
      />
    </symbol>
    <symbol viewBox="0 0 24 24" id="lp-icon-file-document-edit-circle">
      <path
        fill-rule="evenodd"
        clip-rule="evenodd"
        d="M12 22a10 10 0 1 0 0-20 10 10 0 0 0 0 20ZM7.46 7.143C7.46 6.508 7.969 6 8.602 6h4.572l3.428 3.429v1.194l-1.09 1.09h-6.91v1.145h5.767L13.225 14H8.602v1.143h3.48l-1.193 1.194v1.092H8.602a1.142 1.142 0 0 1-1.142-1.143V7.142ZM15.745 10l-3.143-3.143V10h3.143Zm.717 2.379a.32.32 0 0 1 .226-.093c.082 0 .162.03.222.093l.742.742a.315.315 0 0 1 0 .448l-.583.581-1.19-1.19.583-.581Zm-4.43 4.43 3.51-3.513 1.19 1.19L13.223 18h-1.19v-1.191Z"
      />
    </symbol>
    <symbol viewBox="0 0 24 24" id="lp-icon-filter-alt">
      <path d="M0 0h24m0 24H0" fill="none" />
      <path
        d="M4.25 5.61C6.27 8.2 10 13 10 13v6c0 .55.45 1 1 1h2c.55 0 1-.45 1-1v-6s3.72-4.8 5.74-7.39A.998.998 0 0 0 18.95 4H5.04c-.83 0-1.3.95-.79 1.61z"
      />
      <path d="M0 0h24v24H0V0z" fill="none" />
    </symbol>
    <symbol viewBox="0 0 16 16" id="lp-icon-filter-list">
      <path
        d="M6.57499 12.1515V10.6348H9.42499V12.1515H6.57499ZM3.90833 8.75835V7.24169H12.0917V8.75835H3.90833ZM1.90833 5.36524V3.84857H14.0917V5.36524H1.90833Z"
      />
    </symbol>
    <symbol viewBox="0 0 24 24" id="lp-icon-filter-tune">
      <path
        d="M0 14V16H6V14H0ZM0 2V4H10V2H0ZM10 18V16H18V14H10V12H8V18H10ZM4 6V8H0V10H4V12H6V6H4ZM18 10V8H8V10H18ZM12 6H14V4H18V2H14V0H12V6Z"
      />
    </symbol>
    <symbol viewBox="0 0 24 24" id="lp-icon-flag-circle">
      <path
        fill-rule="evenodd"
        clip-rule="evenodd"
        d="M2 12C2 6.47 6.47 2 12 2s10 4.47 10 10-4.47 10-10 10S2 17.53 2 12Zm11.4-5 .24 1.294H17v6.47h-4.2l-.24-1.293H9.2V18H8V7h5.4Z"
      />
    </symbol>
    <symbol viewBox="0 0 24 24" id="lp-icon-flag">
      <path d="M0 0h24v24H0z" fill="none" />
      <path d="M14.4 6 14 4H5v17h2v-7h5.6l.4 2h7V6z" />
    </symbol>
    <symbol viewBox="0 0 24 24" id="lp-icon-forward">
      <path d="M0 0h24v24H0z" fill="none" />
      <path d="M12 8V4l8 8-8 8v-4H4V8z" />
    </symbol>
    <symbol viewBox="0 0 24 24" id="lp-icon-gear">
      <path
        d="M19.1401 12.9399C19.1801 12.6399 19.2001 12.3299 19.2001 11.9999C19.2001 11.6799 19.1801 11.3599 19.1301 11.0599L21.1601 9.4799C21.3401 9.3399 21.3901 9.0699 21.2801 8.8699L19.3601 5.5499C19.2401 5.3299 18.9901 5.2599 18.7701 5.3299L16.3801 6.2899C15.8801 5.9099 15.3501 5.5899 14.7601 5.3499L14.4001 2.8099C14.3601 2.5699 14.1601 2.3999 13.9201 2.3999H10.0801C9.84011 2.3999 9.65011 2.5699 9.61011 2.8099L9.25011 5.3499C8.66011 5.5899 8.12011 5.9199 7.63011 6.2899L5.24011 5.3299C5.02011 5.2499 4.77011 5.3299 4.65011 5.5499L2.74011 8.8699C2.62011 9.0799 2.66011 9.3399 2.86011 9.4799L4.89011 11.0599C4.84011 11.3599 4.80011 11.6899 4.80011 11.9999C4.80011 12.3099 4.82011 12.6399 4.87011 12.9399L2.84011 14.5199C2.66011 14.6599 2.61011 14.9299 2.72011 15.1299L4.64011 18.4499C4.76011 18.6699 5.01011 18.7399 5.23011 18.6699L7.62011 17.7099C8.12011 18.0899 8.65011 18.4099 9.24011 18.6499L9.60011 21.1899C9.65011 21.4299 9.84011 21.5999 10.0801 21.5999H13.9201C14.1601 21.5999 14.3601 21.4299 14.3901 21.1899L14.7501 18.6499C15.3401 18.4099 15.8801 18.0899 16.3701 17.7099L18.7601 18.6699C18.9801 18.7499 19.2301 18.6699 19.3501 18.4499L21.2701 15.1299C21.3901 14.9099 21.3401 14.6599 21.1501 14.5199L19.1401 12.9399ZM12.0001 15.5999C10.0201 15.5999 8.40011 13.9799 8.40011 11.9999C8.40011 10.0199 10.0201 8.3999 12.0001 8.3999C13.9801 8.3999 15.6001 10.0199 15.6001 11.9999C15.6001 13.9799 13.9801 15.5999 12.0001 15.5999Z"
      />
    </symbol>
    <symbol viewBox="0 0 16 16" id="lp-icon-grid-3x3">
      <path
        d="M0 4H4V0H0V4ZM6 16H10V12H6V16ZM0 16H4V12H0V16ZM0 10H4V6H0V10ZM6 10H10V6H6V10ZM12 0V4H16V0H12ZM6 4H10V0H6V4ZM12 10H16V6H12V10ZM12 16H16V12H12V16Z"
      />
    </symbol>
    <symbol viewBox="0 0 24 24" id="lp-icon-group">
      <path fill="none" d="M0 0h24v24H0z" />
      <path
        d="M16 11c1.66 0 2.99-1.34 2.99-3S17.66 5 16 5c-1.66 0-3 1.34-3 3s1.34 3 3 3zm-8 0c1.66 0 2.99-1.34 2.99-3S9.66 5 8 5C6.34 5 5 6.34 5 8s1.34 3 3 3zm0 2c-2.33 0-7 1.17-7 3.5V19h14v-2.5c0-2.33-4.67-3.5-7-3.5zm8 0c-.29 0-.62.02-.97.05 1.16.84 1.97 1.97 1.97 3.45V19h6v-2.5c0-2.33-4.67-3.5-7-3.5z"
      />
    </symbol>
    <symbol viewBox="0 0 24 24" id="lp-icon-half-circle">
      <path
        d="M2 12c0 5.5 4.5 10 10 10s10-4.5 10-10S17.5 2 12 2 2 6.5 2 12zm2 0c0-4.4 3.6-8 8-8s8 3.6 8 8H4z"
      />
    </symbol>
    <symbol viewBox="0 0 24 24" id="lp-icon-hamburger-menu">
      <path d="M0 0h24v24H0z" fill="none" />
      <path d="M3 18h18v-2H3v2zm0-5h18v-2H3v2zm0-7v2h18V6H3z" />
    </symbol>
    <symbol viewBox="0 0 24 24" id="lp-icon-help">
      <path d="M0 0h24v24H0z" fill="none" />
      <path
        d="M12 2C6.48 2 2 6.48 2 12s4.48 10 10 10 10-4.48 10-10S17.52 2 12 2zm1 17h-2v-2h2v2zm2.07-7.75-.9.92C13.45 12.9 13 13.5 13 15h-2v-.5c0-1.1.45-2.1 1.17-2.83l1.24-1.26c.37-.36.59-.86.59-1.41 0-1.1-.9-2-2-2s-2 .9-2 2H8c0-2.21 1.79-4 4-4s4 1.79 4 4c0 .88-.36 1.68-.93 2.25z"
      />
    </symbol>
    <symbol viewBox="0 96 960 960" id="lp-icon-home">
      <path
        d="M240 856h120V616h240v240h120V496L480 316 240 496v360Zm0 80q-33 0-56.5-23.5T160 856V496q0-19 8.5-36t23.5-28l240-180q11-8 23-12t25-4q13 0 25 4t23 12l240 180q15 11 23.5 28t8.5 36v360q0 33-23.5 56.5T720 936H520V696h-80v240H240Zm240-350Z"
      />
    </symbol>
    <symbol viewBox="0 0 24 24" id="lp-icon-horizontal-rule">
      <path fill-rule="evenodd" d="M4 11h16v2H4z" />
    </symbol>
    <symbol viewBox="0 0 16 16" id="lp-icon-hub">
      <g clip-path="url(#clip0_1410_2828)">
        <path
          d="M4.00489 15.15C3.50162 15.15 3.07221 14.9739 2.71665 14.6216C2.3611 14.2693 2.18332 13.8415 2.18332 13.3383C2.18332 12.835 2.35999 12.4056 2.71332 12.05C3.06666 11.6945 3.49572 11.5167 4.00049 11.5167C4.10191 11.5167 4.21607 11.5306 4.34297 11.5584C4.46987 11.5861 4.59443 11.6278 4.71665 11.6834L6.48332 9.50002C6.31665 9.28891 6.20832 9.08613 6.15832 8.89168C6.10832 8.69724 6.08332 8.46668 6.08332 8.20002L3.49999 7.35002C3.34443 7.59446 3.13173 7.78891 2.86189 7.93335C2.59205 8.07779 2.30475 8.15002 1.99999 8.15002C1.49535 8.15002 1.06642 7.97387 0.713186 7.62158C0.359941 7.26929 0.183319 6.84152 0.183319 6.33825C0.183319 5.83498 0.359747 5.40557 0.712602 5.05002C1.06547 4.69446 1.49394 4.51668 1.99802 4.51668C2.48822 4.51668 2.9111 4.68844 3.26665 5.03197C3.62221 5.37548 3.80554 5.79261 3.81665 6.28335C3.81665 6.32779 3.81387 6.35557 3.80832 6.36668C3.80276 6.37779 3.79999 6.38891 3.79999 6.40002L6.38332 7.31668C6.49443 7.13891 6.64443 6.97502 6.83332 6.82502C7.02221 6.67502 7.24999 6.55557 7.51665 6.46668V3.73335C7.09443 3.63335 6.76665 3.41724 6.53332 3.08502C6.29999 2.75279 6.18332 2.38883 6.18332 1.99313C6.18332 1.49494 6.35946 1.06877 6.71175 0.7146C7.06404 0.360433 7.49182 0.18335 7.99509 0.18335C8.49835 0.18335 8.92776 0.359972 9.28332 0.713216C9.63888 1.06645 9.81665 1.49538 9.81665 2.00002C9.81665 2.39113 9.70276 2.75279 9.47499 3.08502C9.24721 3.41724 8.91665 3.63335 8.48332 3.73335V6.46668C8.7611 6.55557 8.98888 6.66946 9.16665 6.80835C9.34443 6.94724 9.49443 7.11668 9.61665 7.31668L12.2 6.40002C12.1889 6.36668 12.1833 6.34909 12.1833 6.34723V6.28335C12.2055 5.79261 12.3905 5.37548 12.7382 5.03197C13.0859 4.68844 13.5082 4.51668 14.0049 4.51668C14.5016 4.51668 14.9278 4.69283 15.2833 5.04512C15.6389 5.39741 15.8167 5.82518 15.8167 6.32845C15.8167 6.83172 15.64 7.26113 15.2868 7.61668C14.9336 7.97224 14.5046 8.15002 14 8.15002C13.6988 8.15002 13.4152 8.07779 13.1491 7.93335C12.883 7.78891 12.6667 7.59446 12.5 7.35002L9.89999 8.20002C9.89999 8.46668 9.87776 8.70002 9.83332 8.90002C9.78888 9.10002 9.68332 9.29446 9.51665 9.48335L11.2833 11.6667C11.4055 11.6222 11.5301 11.5861 11.657 11.5584C11.7839 11.5306 11.8981 11.5167 11.9995 11.5167C12.5043 11.5167 12.9333 11.6928 13.2867 12.0451C13.64 12.3974 13.8167 12.8252 13.8167 13.3285C13.8167 13.8317 13.6405 14.2611 13.2882 14.6167C12.9359 14.9722 12.5082 15.15 12.0049 15.15C11.5016 15.15 11.0722 14.9734 10.7167 14.6202C10.3611 14.2669 10.1833 13.838 10.1833 13.3334C10.1833 13.1423 10.2055 12.964 10.25 12.7984C10.2944 12.6328 10.3889 12.4667 10.5333 12.3L8.79999 10.0834C8.58863 10.1945 8.32746 10.25 8.01647 10.25C7.70548 10.25 7.43888 10.1945 7.21665 10.0834L5.46665 12.3C5.59999 12.4667 5.69165 12.6328 5.74165 12.7984C5.79165 12.964 5.81665 13.1423 5.81665 13.3334C5.81665 13.838 5.64051 14.2669 5.28822 14.6202C4.93593 14.9734 4.50815 15.15 4.00489 15.15Z"
        />
      </g>
      <defs>
        <clipPath id="clip0_1410_2828">
          <rect width="16" height="16" />
        </clipPath>
      </defs>
    </symbol>
    <symbol viewBox="0 0 24 24" id="lp-icon-inbox">
      <path
        d="M5 21q-.825 0-1.413-.587Q3 19.825 3 19V5q0-.825.587-1.413Q4.175 3 5 3h14q.825 0 1.413.587Q21 4.175 21 5v14q0 .825-.587 1.413Q19.825 21 19 21Zm7-5q.95 0 1.725-.55Q14.5 14.9 14.8 14H19V5H5v9h4.2q.3.9 1.075 1.45Q11.05 16 12 16Z"
      />
    </symbol>
    <symbol viewBox="0 0 25 24" id="lp-icon-individual-target">
      <path
        d="M18.5833 12C18.5833 15.3137 15.897 18 12.5833 18C9.2696 18 6.58331 15.3137 6.58331 12C6.58331 8.68629 9.2696 6 12.5833 6C15.897 6 18.5833 8.68629 18.5833 12Z"
      />
    </symbol>
    <symbol viewBox="0 0 24 24" id="lp-icon-info">
      <path d="M13.5 9h-3V6h3v3Zm0 8.5h-3v-6h3v6ZM12 2a10 10 0 1 0 0 20 10 10 0 0 0 0-20Z" />
    </symbol>
    <symbol viewBox="0 0 24 24" id="lp-icon-keyboard-double-arrow-left">
      <path fill="none" d="M0 0h24v24H0z" />
      <path d="M17.59 18 19 16.59 14.42 12 19 7.41 17.59 6l-6 6z" />
      <path d="m11 18 1.41-1.41L7.83 12l4.58-4.59L11 6l-6 6z" />
    </symbol>
    <symbol viewBox="0 0 24 24" id="lp-icon-keyboard-double-arrow-right">
      <path fill="none" d="M0 0h24v24H0z" />
      <path d="M6.41 6 5 7.41 9.58 12 5 16.59 6.41 18l6-6z" />
      <path d="m13 6-1.41 1.41L16.17 12l-4.58 4.59L13 18l6-6z" />
    </symbol>
    <symbol viewBox="0 0 24 24" id="lp-icon-language">
      <path d="M0 0h24v24H0z" fill="none" />
      <path
        d="M11.99 2C6.47 2 2 6.48 2 12s4.47 10 9.99 10C17.52 22 22 17.52 22 12S17.52 2 11.99 2zm6.93 6h-2.95c-.32-1.25-.78-2.45-1.38-3.56 1.84.63 3.37 1.91 4.33 3.56zM12 4.04c.83 1.2 1.48 2.53 1.91 3.96h-3.82c.43-1.43 1.08-2.76 1.91-3.96zM4.26 14C4.1 13.36 4 12.69 4 12s.1-1.36.26-2h3.38c-.08.66-.14 1.32-.14 2 0 .68.06 1.34.14 2H4.26zm.82 2h2.95c.32 1.25.78 2.45 1.38 3.56-1.84-.63-3.37-1.9-4.33-3.56zm2.95-8H5.08c.96-1.66 2.49-2.93 4.33-3.56C8.81 5.55 8.35 6.75 8.03 8zM12 19.96c-.83-1.2-1.48-2.53-1.91-3.96h3.82c-.43 1.43-1.08 2.76-1.91 3.96zM14.34 14H9.66c-.09-.66-.16-1.32-.16-2 0-.68.07-1.35.16-2h4.68c.09.65.16 1.32.16 2 0 .68-.07 1.34-.16 2zm.25 5.56c.6-1.11 1.06-2.31 1.38-3.56h2.95c-.96 1.65-2.49 2.93-4.33 3.56zM16.36 14c.08-.66.14-1.32.14-2 0-.68-.06-1.34-.14-2h3.38c.16.64.26 1.31.26 2s-.1 1.36-.26 2h-3.38z"
      />
    </symbol>
    <symbol viewBox="0 96 960 960" id="lp-icon-left-panel-close">
      <path
        d="M660 688V464q0-14-12-19t-22 5l-98 98q-12 12-12 28t12 28l98 98q10 10 22 5t12-19ZM200 936q-33 0-56.5-23.5T120 856V296q0-33 23.5-56.5T200 216h560q33 0 56.5 23.5T840 296v560q0 33-23.5 56.5T760 936H200Zm120-80V296H200v560h120Zm80 0h360V296H400v560Zm-80 0H200h120Z"
      />
    </symbol>
    <symbol viewBox="0 96 960 960" id="lp-icon-left-panel-open">
      <path
        d="M500 464v224q0 14 12 19t22-5l98-98q12-12 12-28t-12-28l-98-98q-10-10-22-5t-12 19ZM200 936q-33 0-56.5-23.5T120 856V296q0-33 23.5-56.5T200 216h560q33 0 56.5 23.5T840 296v560q0 33-23.5 56.5T760 936H200Zm120-80V296H200v560h120Zm80 0h360V296H400v560Zm-80 0H200h120Z"
      />
    </symbol>
    <symbol viewBox="0 0 24 24" id="lp-icon-light-mode">
      <path
        d="M12 15Q13.25 15 14.125 14.125Q15 13.25 15 12Q15 10.75 14.125 9.875Q13.25 9 12 9Q10.75 9 9.875 9.875Q9 10.75 9 12Q9 13.25 9.875 14.125Q10.75 15 12 15ZM12 17Q9.925 17 8.463 15.537Q7 14.075 7 12Q7 9.925 8.463 8.462Q9.925 7 12 7Q14.075 7 15.538 8.462Q17 9.925 17 12Q17 14.075 15.538 15.537Q14.075 17 12 17ZM2 13Q1.575 13 1.288 12.712Q1 12.425 1 12Q1 11.575 1.288 11.287Q1.575 11 2 11H4Q4.425 11 4.713 11.287Q5 11.575 5 12Q5 12.425 4.713 12.712Q4.425 13 4 13ZM20 13Q19.575 13 19.288 12.712Q19 12.425 19 12Q19 11.575 19.288 11.287Q19.575 11 20 11H22Q22.425 11 22.712 11.287Q23 11.575 23 12Q23 12.425 22.712 12.712Q22.425 13 22 13ZM12 5Q11.575 5 11.288 4.712Q11 4.425 11 4V2Q11 1.575 11.288 1.287Q11.575 1 12 1Q12.425 1 12.713 1.287Q13 1.575 13 2V4Q13 4.425 12.713 4.712Q12.425 5 12 5ZM12 23Q11.575 23 11.288 22.712Q11 22.425 11 22V20Q11 19.575 11.288 19.288Q11.575 19 12 19Q12.425 19 12.713 19.288Q13 19.575 13 20V22Q13 22.425 12.713 22.712Q12.425 23 12 23ZM5.65 7.05 4.575 6Q4.275 5.725 4.287 5.3Q4.3 4.875 4.575 4.575Q4.875 4.275 5.3 4.275Q5.725 4.275 6 4.575L7.05 5.65Q7.325 5.95 7.325 6.35Q7.325 6.75 7.05 7.05Q6.775 7.35 6.363 7.337Q5.95 7.325 5.65 7.05ZM18 19.425 16.95 18.35Q16.675 18.05 16.675 17.638Q16.675 17.225 16.95 16.95Q17.225 16.65 17.638 16.663Q18.05 16.675 18.35 16.95L19.425 18Q19.725 18.275 19.713 18.7Q19.7 19.125 19.425 19.425Q19.125 19.725 18.7 19.725Q18.275 19.725 18 19.425ZM16.95 7.05Q16.65 6.775 16.663 6.362Q16.675 5.95 16.95 5.65L18 4.575Q18.275 4.275 18.7 4.287Q19.125 4.3 19.425 4.575Q19.725 4.875 19.725 5.3Q19.725 5.725 19.425 6L18.35 7.05Q18.05 7.325 17.65 7.325Q17.25 7.325 16.95 7.05ZM4.575 19.425Q4.275 19.125 4.275 18.7Q4.275 18.275 4.575 18L5.65 16.95Q5.95 16.675 6.363 16.675Q6.775 16.675 7.05 16.95Q7.35 17.225 7.338 17.638Q7.325 18.05 7.05 18.35L6 19.425Q5.725 19.725 5.3 19.712Q4.875 19.7 4.575 19.425ZM12 12Q12 12 12 12Q12 12 12 12Q12 12 12 12Q12 12 12 12Q12 12 12 12Q12 12 12 12Q12 12 12 12Q12 12 12 12Z"
      />
    </symbol>
    <symbol viewBox="0 0 24 24" id="lp-icon-link">
      <path d="M0 0h24v24H0z" fill="none" />
      <path
        d="M3.9 12c0-1.71 1.39-3.1 3.1-3.1h4V7H7c-2.76 0-5 2.24-5 5s2.24 5 5 5h4v-1.9H7c-1.71 0-3.1-1.39-3.1-3.1zM8 13h8v-2H8v2zm9-6h-4v1.9h4c1.71 0 3.1 1.39 3.1 3.1s-1.39 3.1-3.1 3.1h-4V17h4c2.76 0 5-2.24 5-5s-2.24-5-5-5z"
      />
    </symbol>
    <symbol viewBox="0 0 24 24" id="lp-icon-lock">
      <path d="M0 0h24v24H0z" fill="none" />
      <path
        d="M18 8h-1V6c0-2.76-2.24-5-5-5S7 3.24 7 6v2H6c-1.1 0-2 .9-2 2v10c0 1.1.9 2 2 2h12c1.1 0 2-.9 2-2V10c0-1.1-.9-2-2-2zm-6 9c-1.1 0-2-.9-2-2s.9-2 2-2 2 .9 2 2-.9 2-2 2zm3.1-9H8.9V6c0-1.71 1.39-3.1 3.1-3.1 1.71 0 3.1 1.39 3.1 3.1v2z"
      />
    </symbol>
    <symbol viewBox="0 0 24 24" id="lp-icon-merge">
      <path
        d="m8 17 4-4h3.2c.4 1.2 1.5 2 2.8 2 1.7 0 3-1.3 3-3s-1.3-3-3-3c-1.3 0-2.4.8-2.8 2H12L8 7V3H3v5h3l4.2 4L6 16H3v5h5v-4Z"
      />
    </symbol>
    <symbol viewBox="0 0 24 24" id="lp-icon-minus-circle">
      <path
        fill-rule="evenodd"
        clip-rule="evenodd"
        d="M2 12C2 6.47 6.47 2 12 2s10 4.47 10 10-4.47 10-10 10S2 17.53 2 12Zm5 1h10v-2H7v2Z"
      />
    </symbol>
    <symbol viewBox="0 0 16 16" id="lp-icon-money">
      <path
        d="M7.16667 14.3833V12.85C6.46667 12.6944 5.88889 12.3889 5.43334 11.9333C4.97778 11.4777 4.66112 10.8389 4.48334 10.0166L6.35 9.31664C6.49445 9.91664 6.725 10.3444 7.04167 10.6C7.35834 10.8555 7.74445 10.9833 8.2 10.9833C8.62223 10.9833 8.94445 10.9083 9.16667 10.7583C9.38889 10.6083 9.5 10.3833 9.5 10.0833C9.5 9.79442 9.36945 9.53886 9.10834 9.31664C8.84723 9.09442 8.31112 8.86664 7.5 8.6333C6.54445 8.35553 5.86945 7.96664 5.475 7.46664C5.08056 6.96664 4.88334 6.39442 4.88334 5.74997C4.88334 5.06108 5.09723 4.48608 5.525 4.02497C5.95278 3.56386 6.5 3.25553 7.16667 3.09997V1.61664H8.91667V3.09997C9.49445 3.2333 9.99445 3.49442 10.4167 3.8833C10.8389 4.27219 11.1444 4.75553 11.3333 5.3333L9.5 6.0833C9.37778 5.74997 9.19445 5.4833 8.95 5.2833C8.70556 5.0833 8.38889 4.9833 8 4.9833C7.6 4.9833 7.31667 5.05553 7.15 5.19997C6.98334 5.34442 6.9 5.50553 6.9 5.6833C6.9 5.94997 7.01112 6.16664 7.23334 6.3333C7.45556 6.49997 8.02223 6.72219 8.93334 6.99997C9.76667 7.25553 10.4056 7.64442 10.85 8.16664C11.2944 8.68886 11.5167 9.31664 11.5167 10.05C11.5056 10.9055 11.2583 11.5611 10.775 12.0166C10.2917 12.4722 9.67223 12.7666 8.91667 12.9V14.3833H7.16667Z"
      />
    </symbol>
    <symbol viewBox="0 0 24 24" id="lp-icon-more-horiz">
      <path
        d="M6 10c-1.1 0-2 .9-2 2s.9 2 2 2 2-.9 2-2-.9-2-2-2zm12 0c-1.1 0-2 .9-2 2s.9 2 2 2 2-.9 2-2-.9-2-2-2zm-6 0c-1.1 0-2 .9-2 2s.9 2 2 2 2-.9 2-2-.9-2-2-2z"
      />
    </symbol>
    <symbol viewBox="0 0 24 24" id="lp-icon-more-vert">
      <path d="M0 0h24v24H0z" fill="none" />
      <path
        d="M12 8c1.1 0 2-.9 2-2s-.9-2-2-2-2 .9-2 2 .9 2 2 2zm0 2c-1.1 0-2 .9-2 2s.9 2 2 2 2-.9 2-2-.9-2-2-2zm0 6c-1.1 0-2 .9-2 2s.9 2 2 2 2-.9 2-2-.9-2-2-2z"
      />
    </symbol>
    <symbol viewBox="0 0 24 24" id="lp-icon-notifications">
      <path
        d="M12 22c1.1 0 2-.9 2-2h-4a2 2 0 0 0 2 2zm6-6v-5c0-3.07-1.64-5.64-4.5-6.32V4c0-.83-.67-1.5-1.5-1.5s-1.5.67-1.5 1.5v.68C7.63 5.36 6 7.92 6 11v5l-2 2v1h16v-1l-2-2z"
      />
    </symbol>
    <symbol viewBox="0 0 24 24" id="lp-icon-open-in-new">
      <path d="M0 0h24v24H0z" fill="none" />
      <path
        d="M19 19H5V5h7V3H5a2 2 0 0 0-2 2v14a2 2 0 0 0 2 2h14c1.1 0 2-.9 2-2v-7h-2v7zM14 3v2h3.59l-9.83 9.83 1.41 1.41L19 6.41V10h2V3h-7z"
      />
    </symbol>
    <symbol viewBox="0 0 24 24" id="lp-icon-pause">
      <path d="M0 0h24v24H0z" fill="none" />
      <path d="M6 19h4V5H6v14zm8-14v14h4V5h-4z" />
    </symbol>
    <symbol viewBox="0 0 24 24" id="lp-icon-person-add">
      <path
        d="M15 12c2.21 0 4-1.79 4-4s-1.79-4-4-4-4 1.79-4 4 1.79 4 4 4Zm-9-2V7H4v3H1v2h3v3h2v-3h3v-2H6Zm9 4c-2.67 0-8 1.34-8 4v2h16v-2c0-2.66-5.33-4-8-4Z"
      />
    </symbol>
    <symbol viewBox="0 0 24 24" id="lp-icon-person-off">
      <path
        d="M8.65 5.82a3.999 3.999 0 1 1 5.53 5.53L8.65 5.82ZM20 17.17c-.02-1.1-.63-2.11-1.61-2.62-.54-.28-1.13-.54-1.77-.76L20 17.17Zm1.19 4.02L2.81 2.81 1.39 4.22l8.89 8.89c-1.81.23-3.39.79-4.67 1.45A2.97 2.97 0 0 0 4 17.22V20h13.17l2.61 2.61 1.41-1.42Z"
      />
    </symbol>
    <symbol viewBox="0 0 24 24" id="lp-icon-person-remove-alt">
      <path
        d="M15 14c-2.67 0-8 1.33-8 4v2h16v-2c0-2.67-5.33-4-8-4ZM1 10v2h7v-2H1Zm14 2a4 4 0 1 0 0-8 4 4 0 0 0 0 8Z"
      />
    </symbol>
    <symbol viewBox="0 0 24 24" id="lp-icon-person">
      <path d="M0 0h24v24H0z" fill="none" />
      <path
        d="M12 12c2.21 0 4-1.79 4-4s-1.79-4-4-4-4 1.79-4 4 1.79 4 4 4zm0 2c-2.67 0-8 1.34-8 4v2h16v-2c0-2.66-5.33-4-8-4z"
      />
    </symbol>
    <symbol viewBox="0 0 24 24" id="lp-icon-pie-chart">
      <path
        d="M11 2v20c-5.07-.5-9-4.79-9-10s3.93-9.5 9-10zm2.03 0v8.99H22c-.47-4.74-4.24-8.52-8.97-8.99zm0 11.01V22c4.74-.47 8.5-4.25 8.97-8.99h-8.97z"
      />
    </symbol>
    <symbol viewBox="0 0 24 24" id="lp-icon-play-arrow">
      <path d="M8 5v14l11-7L8 5Z" />
    </symbol>
    <symbol viewBox="0 0 24 24" id="lp-icon-play-circle">
      <path fill="none" d="M0 0h24v24H0z" />
      <path
        d="M12 2C6.48 2 2 6.48 2 12s4.48 10 10 10 10-4.48 10-10S17.52 2 12 2zM9.5 16.5v-9l7 4.5-7 4.5z"
      />
    </symbol>
    <symbol viewBox="0 0 24 24" id="lp-icon-power">
      <path fill="none" d="M0 0h24v24H0z" />
      <path
        d="M16.01 7 16 3h-2v4h-4V3H8v4h-.01C7 6.99 6 7.99 6 8.99v5.49L9.5 18v3h5v-3l3.5-3.51v-5.5c0-1-1-2-1.99-1.99z"
      />
    </symbol>
    <symbol viewBox="0 0 24 24" id="lp-icon-preview">
      <path fill="none" d="M0 0h24v24H0z" />
      <path
        d="M19 3H5a2 2 0 0 0-2 2v14a2 2 0 0 0 2 2h14c1.1 0 2-.9 2-2V5a2 2 0 0 0-2-2zm0 16H5V7h14v12zm-5.5-6c0 .83-.67 1.5-1.5 1.5s-1.5-.67-1.5-1.5.67-1.5 1.5-1.5 1.5.67 1.5 1.5zM12 9c-2.73 0-5.06 1.66-6 4 .94 2.34 3.27 4 6 4s5.06-1.66 6-4c-.94-2.34-3.27-4-6-4zm0 6.5a2.5 2.5 0 0 1 0-5 2.5 2.5 0 0 1 0 5z"
      />
    </symbol>
    <symbol viewBox="0 0 25 24" id="lp-icon-prerequisite">
      <path d="M13.825 15.2502V16.7502H22.825V15.2502H13.825Z" />
      <path d="M13.825 7.25024V8.75024H22.825V7.25024H13.825Z" />
      <path
        d="M2.75 15.1003L6.3 18.6503L11.825 13.1253L10.775 12.0503L6.3 16.5253L3.8 14.0503L2.75 15.1003Z"
      />
      <path
        d="M2.75 7.10029L6.3 10.6503L11.825 5.12529L10.775 4.05029L6.3 8.52529L3.8 6.05029L2.75 7.10029Z"
      />
    </symbol>
    <symbol viewBox="0 0 24 24" id="lp-icon-progress-check">
      <path
        d="M13 2.03v2.02c4.39.54 7.5 4.53 6.96 8.92-.46 3.64-3.32 6.53-6.96 6.96v2c5.5-.55 9.5-5.43 8.95-10.93-.45-4.75-4.22-8.5-8.95-8.97zm-2 .03c-1.95.19-3.81.94-5.33 2.2L7.1 5.74c1.12-.9 2.47-1.48 3.9-1.68v-2zM4.26 5.67A9.885 9.885 0 002.05 11h2c.19-1.42.75-2.77 1.64-3.9L4.26 5.67zM15.5 8.5l-4.88 4.88-2.12-2.12-1.06 1.06 3.18 3.18 5.94-5.94L15.5 8.5zM2.06 13c.2 1.96.97 3.81 2.21 5.33l1.42-1.43A8.002 8.002 0 014.06 13h-2zm5.04 5.37l-1.43 1.37A9.994 9.994 0 0011 22v-2a8.002 8.002 0 01-3.9-1.63z"
      />
    </symbol>
    <symbol viewBox="0 0 24 24" id="lp-icon-pulse-active">
      <path
        d="M2 11.7C2.1 6.3 6.6 2 12 2s9.8 4.3 10 9.7h-8.9c-.5 0-.9.3-1 .6l-.7 1.6-2.2-5.8c-.4-1-1.7-.9-2.1 0l-1.4 3.6H2zm11.5 1.7-1 2.5c-.4 1.1-1.7 1-2.1 0l-2.3-5.8L7 12.6c-.2.4-.5.7-1 .7H2.1C2.8 18.2 6.9 22 12 22c5.1 0 9.2-3.8 9.9-8.6h-8.4z"
      />
    </symbol>
    <symbol viewBox="0 0 24 24" id="lp-icon-quick-start">
      <path d="M13 2h-2v3H3l2.5 5L3 15h8v7h2v-7h5l3-5-3-5h-5V2z" />
    </symbol>
    <symbol viewBox="0 0 24 24" id="lp-icon-radio-button-checked">
      <path fill="none" d="M0 0h24v24H0z" />
      <path
        d="M12 7c-2.76 0-5 2.24-5 5s2.24 5 5 5 5-2.24 5-5-2.24-5-5-5zm0-5C6.48 2 2 6.48 2 12s4.48 10 10 10 10-4.48 10-10S17.52 2 12 2zm0 18c-4.42 0-8-3.58-8-8s3.58-8 8-8 8 3.58 8 8-3.58 8-8 8z"
      />
    </symbol>
    <symbol viewBox="0 -960 960 960" id="lp-icon-regression-mitigated">
      <path
        d="M480-320q17 0 28.5-11.5T520-360q0-17-11.5-28.5T480-400q-17 0-28.5 11.5T440-360q0 17 11.5 28.5T480-320Zm-40-160h80v-200h-80v200Zm40 400q-139-35-229.5-159.5T160-516v-244l320-120 320 120v244q0 152-90.5 276.5T480-80Z"
      />
    </symbol>
    <symbol viewBox="0 0 24 24" id="lp-icon-release">
      <path
        fill-rule="evenodd"
        clip-rule="evenodd"
        d="M4.44167 14.9183C4.44167 17.9887 6.93071 20.4777 10.0011 20.4777C13.0715 20.4777 15.5605 17.9887 15.5605 14.9183C15.5605 11.8479 13.0715 9.35885 10.0011 9.35885C6.93071 9.35885 4.44167 11.8479 4.44167 14.9183ZM2.5 14.9183C2.5 19.061 5.85836 22.4194 10.0011 22.4194C14.1438 22.4194 17.5022 19.061 17.5022 14.9183C17.5022 10.7755 14.1438 7.41718 10.0011 7.41718C5.85836 7.41718 2.5 10.7755 2.5 14.9183Z"
      />
      <path
        d="M14.9989 16.5522C10.8562 16.5522 7.4978 13.1938 7.4978 9.05109C7.4978 4.90834 10.8562 1.54999 14.9989 1.54999C19.1416 1.54999 22.5 4.90834 22.5 9.05109C22.5 13.1938 19.1416 16.5522 14.9989 16.5522Z"
      />
    </symbol>
    <symbol viewBox="0 0 16 16" id="lp-icon-release-impact">
      <path
        d="M8 14.67C6.46 14.28 5.18 13.39 4.17 12.01C3.17 10.62 2.67 9.09 2.67 7.4V3.33L8 1.33l5.33 2V7.4c0 1.69 -0.5 3.22 -1.51 4.61C10.82 13.39 9.54 14.28 8 14.67zM8 10.667C9.133 9.644 9.861 8.925 10.183 8.508c0.322 -0.417 0.483 -0.831 0.483 -1.242c0 -0.4 -0.144 -0.744 -0.433 -1.033S9.6 5.8 9.2 5.8C8.967 5.8 8.742 5.847 8.525 5.942S8.133 6.167 8 6.333C7.867 6.167 7.694 6.036 7.483 5.942S7.044 5.8 6.8 5.8C6.4 5.8 6.056 5.944 5.767 6.233S5.333 6.867 5.333 7.267c0 0.211 0.028 0.406 0.083 0.583s0.178 0.386 0.367 0.625C5.972 8.714 6.242 9.006 6.592 9.35S7.411 10.133 8 10.667z"
      />
    </symbol>
    <symbol viewBox="0 0 16 16" id="lp-icon-release-pipeline">
      <path
        d="M0.666992 7.33363H4.76359V8.66696H0.666992L0.666992 7.33363ZM14.1353 8.66696L10.0387 8.66696V7.33363L14.1353 7.33363V8.66696ZM7.40112 6.66696C8.14861 6.66696 8.74795 7.26029 8.74795 8.00029C8.74795 8.73363 8.14861 9.33363 7.40112 9.33363C6.66037 9.33363 6.0543 8.73363 6.0543 8.00029C6.0543 7.26029 6.66037 6.66696 7.40112 6.66696Z"
      />
      <path
        d="M12.062 4.66675L11.2932 5.45008L13.7905 8.00008L11.2932 10.5501L12.062 11.3334L15.3337 8.00008L12.062 4.66675Z"
      />
    </symbol>
    <symbol viewBox="0 0 24 24" id="lp-icon-remove">
      <path d="M19 13H5v-2h14v2Z" />
    </symbol>
    <symbol viewBox="0 0 24 24" id="lp-icon-rerun">
      <path
        d="M4 20.5V18.5H6.75L6.35 18.15C5.48333 17.3833 4.875 16.5083 4.525 15.525C4.175 14.5417 4 13.55 4 12.55C4 10.7 4.55417 9.05417 5.6625 7.6125C6.77083 6.17083 8.21667 5.21667 10 4.75V6.85C8.8 7.28333 7.83333 8.02083 7.1 9.0625C6.36667 10.1042 6 11.2667 6 12.55C6 13.3 6.14167 14.0292 6.425 14.7375C6.70833 15.4458 7.15 16.1 7.75 16.7L8 16.95V14.5H10V20.5H4ZM14 20.25V18.15C15.2 17.7167 16.1667 16.9792 16.9 15.9375C17.6333 14.8958 18 13.7333 18 12.45C18 11.7 17.8583 10.9708 17.575 10.2625C17.2917 9.55417 16.85 8.9 16.25 8.3L16 8.05V10.5H14V4.5H20V6.5H17.25L17.65 6.85C18.4667 7.66667 19.0625 8.55417 19.4375 9.5125C19.8125 10.4708 20 11.45 20 12.45C20 14.3 19.4458 15.9458 18.3375 17.3875C17.2292 18.8292 15.7833 19.7833 14 20.25Z"
      />
    </symbol>
    <symbol viewBox="0 0 24 24" id="lp-icon-robot">
      <path
        d="M12 2a2 2 0 011 3.73V7h1a7 7 0 017 7h1a1 1 0 011 1v3a1 1 0 01-1 1h-1v1a2 2 0 01-2 2H5a2 2 0 01-2-2v-1H2a1 1 0 01-1-1v-3a1 1 0 011-1h1a7 7 0 017-7h1V5.73A2 2 0 0112 2zM7.5 13a2.5 2.5 0 100 5 2.5 2.5 0 000-5zm9 0a2.5 2.5 0 100 5 2.5 2.5 0 000-5z"
      />
    </symbol>
    <symbol viewBox="0 0 24 24" id="lp-icon-schedule">
      <path d="M0 0h24v24H0z" fill="none" />
      <path
        d="M11.99 2C6.47 2 2 6.48 2 12s4.47 10 9.99 10C17.52 22 22 17.52 22 12S17.52 2 11.99 2zM12 20c-4.42 0-8-3.58-8-8s3.58-8 8-8 8 3.58 8 8-3.58 8-8 8z"
      />
      <path d="M12.5 7H11v6l5.25 3.15.75-1.23-4.5-2.67z" />
    </symbol>
    <symbol viewBox="0 96 960 960" id="lp-icon-science">
      <path
        d="M200 936q-51 0-72.5-45.5T138 806l222-270V296h-40q-17 0-28.5-11.5T280 256q0-17 11.5-28.5T320 216h320q17 0 28.5 11.5T680 256q0 17-11.5 28.5T640 296h-40v240l222 270q32 39 10.5 84.5T760 936H200Zm0-80h560L520 564V296h-80v268L200 856Zm280-280Z"
      />
    </symbol>
    <symbol viewBox="0 0 24 24" id="lp-icon-search">
      <path
        d="M15.5 14h-.79l-.28-.27A6.471 6.471 0 0016 9.5 6.5 6.5 0 109.5 16c1.61 0 3.09-.59 4.23-1.57l.27.28v.79l5 4.99L20.49 19l-4.99-5zm-6 0C7.01 14 5 11.99 5 9.5S7.01 5 9.5 5 14 7.01 14 9.5 11.99 14 9.5 14z"
      />
    </symbol>
    <symbol viewBox="0 0 24 24" id="lp-icon-segment">
      <path
        d="M21.5 5.5687C21.5 7.81578 19.6694 9.6374 17.4113 9.6374C15.1532 9.6374 13.3226 7.81578 13.3226 5.5687C13.3226 3.32162 15.1532 1.5 17.4113 1.5C19.6694 1.5 21.5 3.32162 21.5 5.5687Z"
      />
      <path d="M2 7.13359H10.1774V15.271H2V7.13359Z" />
      <path d="M14.5806 12.1412L20.573 22H8.58831L14.5806 12.1412Z" />
    </symbol>
    <symbol viewBox="0 0 24 24" id="lp-icon-shield-account">
      <path
        d="m12 1-9 4v6c0 5.55 3.84 10.74 9 12 5.16-1.26 9-6.45 9-12v-6zm0 4c.7956 0 1.5587.31607 2.1213.87868s.8787 1.32567.8787 2.12132-.3161 1.55871-.8787 2.1213c-.5626.5626-1.3257.8787-2.1213.8787s-1.5587-.3161-2.12132-.8787c-.56261-.56259-.87868-1.32565-.87868-2.1213s.31607-1.55871.87868-2.12132c.56262-.56261 1.32572-.87868 2.12132-.87868zm5.13 12c-1.21 1.85-3.02 3.24-5.13 3.92-2.11-.68-3.92-2.07-5.13-3.92-.34-.5-.63-1-.87-1.53 0-1.65 2.71-3 6-3s6 1.32 6 3c-.24.53-.53 1.03-.87 1.53z"
      />
    </symbol>
    <symbol viewBox="0 0 24 24" id="lp-icon-shield-key">
      <path
        d="M12 8C12.2652 8 12.5196 8.10536 12.7071 8.29289C12.8946 8.48043 13 8.73478 13 9C13 9.26522 12.8946 9.51957 12.7071 9.70711C12.5196 9.89464 12.2652 10 12 10C11.7348 10 11.4804 9.89464 11.2929 9.70711C11.1054 9.51957 11 9.26522 11 9C11 8.73478 11.1054 8.48043 11.2929 8.29289C11.4804 8.10536 11.7348 8 12 8V8ZM21 11C21 16.55 17.16 21.74 12 23C6.84 21.74 3 16.55 3 11V5L12 1L21 5V11ZM12 6C11.2044 6 10.4413 6.31607 9.87868 6.87868C9.31607 7.44129 9 8.20435 9 9C9 10.31 9.83 11.42 11 11.83V18H13V16H15V14H13V11.83C14.17 11.42 15 10.31 15 9C15 8.20435 14.6839 7.44129 14.1213 6.87868C13.5587 6.31607 12.7956 6 12 6Z"
      />
    </symbol>
    <symbol viewBox="0 0 24 24" id="lp-icon-star-outline">
      <path
        d="m22 9.24-7.19-.62L12 2 9.19 8.63 2 9.24l5.46 4.73L5.82 21 12 17.27 18.18 21l-1.63-7.03L22 9.24zM12 15.4l-3.76 2.27 1-4.28-3.32-2.88 4.38-.38L12 6.1l1.71 4.04 4.38.38-3.32 2.88 1 4.28L12 15.4z"
      />
    </symbol>
    <symbol viewBox="0 0 24 24" id="lp-icon-star">
      <path d="M0 0h24v24H0z" fill="none" />
      <path d="M0 0h24v24H0z" fill="none" />
      <path
        d="M12 17.27 18.18 21l-1.64-7.03L22 9.24l-7.19-.61L12 2 9.19 8.63 2 9.24l5.46 4.73L5.82 21z"
      />
    </symbol>
    <symbol viewBox="0 0 24 24" id="lp-icon-stars">
      <path
        d="M11.99 2C6.47 2 2 6.48 2 12s4.47 10 9.99 10C17.52 22 22 17.52 22 12S17.52 2 11.99 2zm4.24 16L12 15.45 7.77 18l1.12-4.81-3.73-3.23 4.92-.42L12 5l1.92 4.53 4.92.42-3.73 3.23L16.23 18z"
      />
    </symbol>
    <symbol viewBox="0 0 17 16" id="lp-icon-status-active">
      <path
        fill-rule="evenodd"
        clip-rule="evenodd"
        d="M5.9515 0.927734L10.0532 10.1566L11.382 7.49907H15.5V9.49907H12.618L9.94679 14.8416L6.0485 6.07041L4.67703 9.49907H0.5V7.49907H3.32297L5.9515 0.927734Z"
      />
    </symbol>
    <symbol viewBox="0 0 17 16" id="lp-icon-status-inactive">
      <path
        fill-rule="evenodd"
        clip-rule="evenodd"
        d="M2.66699 7.83398H13.3337V9.16732H2.66699V7.83398Z"
      />
    </symbol>
    <symbol viewBox="0 0 17 16" id="lp-icon-status-launched">
      <path
        d="M12 8.5C12 10.7091 10.2091 12.5 8 12.5C5.79086 12.5 4 10.7091 4 8.5C4 6.29086 5.79086 4.5 8 4.5C10.2091 4.5 12 6.29086 12 8.5Z"
      />
    </symbol>
    <symbol viewBox="0 0 17 16" id="lp-icon-status-new">
      <path
        d="M12.6663 9.16732H8.66634V13.1673H7.33301V9.16732H3.33301V7.83398H7.33301V3.83398H8.66634V7.83398H12.6663V9.16732Z"
      />
    </symbol>
    <symbol viewBox="0 0 24 24" id="lp-icon-step-in-progress-outline">
      <path
        d="M12.834 3.692v1.683a6.662 6.662 0 0 1 5.8 7.433c-.384 3.034-2.767 5.442-5.8 5.8v1.667a8.313 8.313 0 0 0 7.458-9.108c-.375-3.959-3.517-7.084-7.459-7.475Zm-1.667.025A8.19 8.19 0 0 0 6.725 5.55l1.192 1.233a6.663 6.663 0 0 1 3.25-1.4V3.717ZM5.55 6.725a8.237 8.237 0 0 0-1.841 4.442h1.666a6.68 6.68 0 0 1 1.367-3.25L5.55 6.725Zm-1.833 6.108a8.366 8.366 0 0 0 1.842 4.442l1.183-1.192a6.668 6.668 0 0 1-1.359-3.25H3.717Zm4.2 4.475L6.725 18.45a8.328 8.328 0 0 0 4.442 1.883v-1.666a6.668 6.668 0 0 1-3.25-1.359Z"
      />
    </symbol>
    <symbol viewBox="0 0 24 24" id="lp-icon-step-in-progress">
      <path d="M12 24c6.627 0 12-5.373 12-12S18.627 0 12 0 0 5.373 0 12s5.373 12 12 12Z" />
      <path
        d="M12.834 3.692v1.683a6.662 6.662 0 0 1 5.8 7.433c-.384 3.034-2.767 5.442-5.8 5.8v1.667a8.313 8.313 0 0 0 7.458-9.108c-.375-3.959-3.517-7.084-7.459-7.475Zm-1.667.025A8.19 8.19 0 0 0 6.725 5.55l1.192 1.233a6.663 6.663 0 0 1 3.25-1.4V3.717ZM5.55 6.725a8.237 8.237 0 0 0-1.841 4.442h1.666a6.68 6.68 0 0 1 1.367-3.25L5.55 6.725Zm-1.833 6.108a8.366 8.366 0 0 0 1.842 4.442l1.183-1.192a6.668 6.668 0 0 1-1.359-3.25H3.717Zm4.2 4.475L6.725 18.45a8.328 8.328 0 0 0 4.442 1.883v-1.666a6.668 6.668 0 0 1-3.25-1.359Z"
        fill="#fff"
      />
    </symbol>
    <symbol viewBox="0 0 24 24" id="lp-icon-stop">
      <path d="M6 6h12v12H6V6Z" />
    </symbol>
    <symbol viewBox="0 0 24 24" id="lp-icon-support-agent">
      <path
        d="M21 12.22C21 6.73 16.74 3 12 3C7.31 3 3 6.65 3 12.28C2.4 12.62 2 13.26 2 14V16C2 17.1 2.9 18 4 18H5V11.9C5 8.03 8.13 4.9 12 4.9C15.87 4.9 19 8.03 19 11.9V19H11V21H19C20.1 21 21 20.1 21 19V17.78C21.59 17.47 22 16.86 22 16.14V13.84C22 13.14 21.59 12.53 21 12.22Z"
      />
      <path
        d="M9 14C9.55228 14 10 13.5523 10 13C10 12.4477 9.55228 12 9 12C8.44772 12 8 12.4477 8 13C8 13.5523 8.44772 14 9 14Z"
      />
      <path
        d="M15 14C15.5523 14 16 13.5523 16 13C16 12.4477 15.5523 12 15 12C14.4477 12 14 12.4477 14 13C14 13.5523 14.4477 14 15 14Z"
      />
      <path
        d="M18 11.03C17.52 8.18 15.04 6 12.05 6C9.01997 6 5.75997 8.51 6.01997 12.45C8.48997 11.44 10.35 9.24 10.88 6.56C12.19 9.19 14.88 11 18 11.03Z"
      />
    </symbol>
    <symbol viewBox="0 0 24 24" id="lp-icon-swap-horiz">
      <path d="M0 0h24v24H0z" fill="none" />
      <path d="M6.99 11 3 15l3.99 4v-3H14v-2H6.99v-3zM21 9l-3.99-4v3H10v2h7.01v3L21 9z" />
    </symbol>
    <symbol viewBox="0 0 24 24" id="lp-icon-swap-vertical">
      <path
        d="M16 17.01V10h-2v7.01h-3L15 21l4-3.99h-3ZM9 3 5 6.99h3V14h2V6.99h3L9 3Zm7 14.01V10h-2v7.01h-3L15 21l4-3.99h-3ZM9 3 5 6.99h3V14h2V6.99h3L9 3Z"
      />
    </symbol>
    <symbol viewBox="0 0 64 64" id="lp-icon-templates-circle">
      <circle cx="31.5" cy="31.5" r="31.5" />
      <path d="M31.5 10.5833L21.6458 26.7083H41.3542L31.5 10.5833Z" fill="#EFFF63" />
      <path
        d="M41.3542 46.4166C45.807 46.4166 49.4167 42.8069 49.4167 38.3541C49.4167 33.9013 45.807 30.2916 41.3542 30.2916C36.9014 30.2916 33.2917 33.9013 33.2917 38.3541C33.2917 42.8069 36.9014 46.4166 41.3542 46.4166Z"
        fill="#EFFF63"
      />
      <path d="M15.375 31.1874H29.7083V45.5208H15.375V31.1874Z" fill="#EFFF63" />
    </symbol>
    <symbol viewBox="0 0 24 24" id="lp-icon-thumb-up">
      <path d="M0 0h24v24H0V0z" fill="none" />
      <path
        d="M1 21h4V9H1v12zm22-11c0-1.1-.9-2-2-2h-6.31l.95-4.57.03-.32c0-.41-.17-.79-.44-1.06L14.17 1 7.59 7.59C7.22 7.95 7 8.45 7 9v10c0 1.1.9 2 2 2h9c.83 0 1.54-.5 1.84-1.22l3.02-7.05c.09-.23.14-.47.14-.73v-2z"
      />
    </symbol>
    <symbol viewBox="0 0 24 24" id="lp-icon-toggles">
      <path d="M8 8.5c-.83 0-1.5-.67-1.5-1.5S7.17 5.5 8 5.5s1.5.67 1.5 1.5S8.83 8.5 8 8.5z" />
      <path
        fill-rule="evenodd"
        d="M7.75 3h7.5C17.32 3 19 4.792 19 7s-1.68 4-3.75 4h-7.5C5.68 11 4 9.208 4 7s1.68-4 3.75-4zm7.5 1h-7.5C6.292 4 5 5.283 5 7s1.292 3 2.75 3h7.5C16.708 10 18 8.717 18 7s-1.292-3-2.75-3zm0 9h-7.5C5.68 13 4 14.792 4 17s1.68 4 3.75 4h7.5c2.07 0 3.75-1.792 3.75-4s-1.68-4-3.75-4zM15 19a2 2 0 100-4 2 2 0 000 4z"
        clip-rule="evenodd"
      />
      <path d="M10 7a2 2 0 11-4 0 2 2 0 014 0z" />
    </symbol>
    <symbol viewBox="0 0 64 64" id="lp-icon-trending-up-circle">
      <circle cx="32" cy="32" r="31" />
      <path
        d="m40 20 4.58 4.58-9.76 9.76-8-8L12 41.18 14.82 44l12-12 8 8 12.6-12.58L52 32V20H40z"
        fill="#EBFF38"
      />
    </symbol>
    <symbol viewBox="0 0 24 24" id="lp-icon-undo">
      <path d="M0 0h24v24H0V0z" fill="none" />
      <path
        d="M12.5 8c-2.65 0-5.05.99-6.9 2.6L2 7v9h9l-3.62-3.62c1.39-1.16 3.16-1.88 5.12-1.88 3.54 0 6.55 2.31 7.6 5.5l2.37-.78C21.08 11.03 17.15 8 12.5 8z"
      />
    </symbol>
    <symbol viewBox="0 0 24 24" id="lp-icon-unfold-less">
      <path
        d="M7.41 18.59 8.83 20 12 16.83 15.17 20l1.41-1.41L12 14l-4.59 4.59Zm9.18-13.18L15.17 4 12 7.17 8.83 4 7.41 5.41 12 10l4.59-4.59Z"
      />
    </symbol>
    <symbol viewBox="0 0 24 24" id="lp-icon-unfold-more">
      <path
        d="M12 5.83 15.17 9l1.41-1.41L12 3 7.41 7.59 8.83 9 12 5.83zm0 12.34L8.83 15l-1.41 1.41L12 21l4.59-4.59L15.17 15 12 18.17z"
      />
    </symbol>
    <symbol viewBox="0 0 24 24" id="lp-icon-verified">
      <path
        d="M23 12L20.56 9.22004L20.9 5.54004L17.29 4.72004L15.4 1.54004L12 3.00004L8.6 1.54004L6.71 4.72004L3.1 5.53004L3.44 9.21004L1 12L3.44 14.78L3.1 18.47L6.71 19.29L8.6 22.47L12 21L15.4 22.46L17.29 19.28L20.9 18.46L20.56 14.78L23 12ZM10 17L6 13L7.41 11.59L10 14.17L16.59 7.58004L18 9.00004L10 17Z"
      />
    </symbol>
    <symbol viewBox="0 0 24 24" id="lp-icon-view-list">
      <path
        d="M3 14h4v-4H3v4zm0 5h4v-4H3v4zM3 9h4V5H3v4zm5 5h13v-4H8v4zm0 5h13v-4H8v4zM8 5v4h13V5H8z"
      />
    </symbol>
    <symbol viewBox="0 0 24 24" id="lp-icon-visibility-off">
      <path
        d="M12 7c2.76 0 5 2.24 5 5 0 .65-.13 1.26-.36 1.83l2.92 2.92c1.51-1.26 2.7-2.89 3.43-4.75-1.73-4.39-6-7.5-11-7.5-1.4 0-2.74.25-3.98.7l2.16 2.16C10.74 7.13 11.35 7 12 7zM2 4.27l2.28 2.28.46.46A11.804 11.804 0 0 0 1 12c1.73 4.39 6 7.5 11 7.5 1.55 0 3.03-.3 4.38-.84l.42.42L19.73 22 21 20.73 3.27 3 2 4.27zM7.53 9.8l1.55 1.55c-.05.21-.08.43-.08.65 0 1.66 1.34 3 3 3 .22 0 .44-.03.65-.08l1.55 1.55c-.67.33-1.41.53-2.2.53-2.76 0-5-2.24-5-5 0-.79.2-1.53.53-2.2zm4.31-.78 3.15 3.15.02-.16c0-1.66-1.34-3-3-3l-.17.01z"
      />
    </symbol>
    <symbol viewBox="0 0 24 24" id="lp-icon-visibility">
      <path
        d="M12 4C7 4 2.73 7.11 1 11.5 2.73 15.89 7 19 12 19s9.27-3.11 11-7.5C21.27 7.11 17 4 12 4Zm0 12.5c-2.76 0-5-2.24-5-5s2.24-5 5-5 5 2.24 5 5-2.24 5-5 5Zm0-8c-1.66 0-3 1.34-3 3s1.34 3 3 3 3-1.34 3-3-1.34-3-3-3Z"
      />
    </symbol>
    <symbol viewBox="0 0 24 24" id="lp-icon-warning">
      <path
        fill-rule="evenodd"
        clip-rule="evenodd"
        d="M10.29 3.599l-8.47 14.14a2 2 0 001.71 3h16.94a2 2 0 001.71-3l-8.47-14.14a2 2 0 00-3.42 0zm3.362 13.537a1.5 1.5 0 11-3 0 1.5 1.5 0 013 0zm-1.51-11a1.19 1.19 0 00-1.186 1.287l.49 6.07a.7.7 0 001.394 0l.49-6.07a1.19 1.19 0 00-1.187-1.287z"
      />
    </symbol>
    <symbol viewBox="0 0 121 121" id="lp-icon-workflow-builder">
      <path d="m60.5 0 52.395 30.25v60.5L60.5 121 8.105 90.75v-60.5L60.5 0z" />
      <g clip-path="url(#a)" fill="#EBFF38">
        <path
          d="M70.09 51.178H50v15.61h20.09v-15.61zM71 38.22H50L60.72 22 71 38.22zM60.5 99c-5.297 0-9.596-4.33-9.596-9.678 0-5.343 4.293-9.678 9.596-9.678 5.298 0 9.596 4.329 9.596 9.678C70.09 94.665 65.798 99 60.5 99zM61.904 41.176H59.09v6.566h2.813v-6.566zM61.904 69.935H59.09v6.566h2.813v-6.566z"
        />
      </g>
      <defs>
        <clipPath id="a">
          <path fill="#fff" transform="translate(50 22)" d="M0 0h21v77H0z" />
        </clipPath>
      </defs>
    </symbol>
  </defs>
</svg>
